{
.appVersion = "3134";
.formatVersion = 3;
axes = (
{
name = Weight;
tag = wght;
},
{
name = Width;
tag = wdth;
}
);
classes = (
{
automatic = 1;
code = "A Aacute Abreve Acaron Acircumflex Adieresis Adotaccent Agrave Aogonek Aring Atilde B Bdotaccent C Cacute Ccaron Ccedilla Ccircumflex Cdotaccent D Dcaron Dcroat Ddotaccent E Eacute Ebreve Ecaron Ecedilla Ecircumflex Edieresis Edotaccent Egrave Eogonek Etilde F Fdotaccent G Gacute Gbreve Gcaron Gcircumflex Gdotaccent H Hcedilla Hcircumflex Hdotaccent I Iacute Ibreve Icaron Icircumflex Idieresis Idotaccent Igrave Iogonek Itilde J Jacute Jcircumflex K Kacute Kcaron L Lacute Lcaron Lslash M Macute Mdotaccent N Nacute Ncaron Ndotaccent Ngrave Ntilde O Oacute Obreve Ocaron Ocircumflex Odieresis Odotaccent Ograve Oogonek Otilde P Pdotaccent Q R Racute Rcaron Rdotaccent S Sacute Scaron Scedilla Scircumflex Sdotaccent T Tcaron Tcedilla Tdotaccent U Uacute Ubreve Ucaron Ucircumflex Udieresis Ugrave Uogonek Uring Utilde V Vtilde W Wacute Wcircumflex Wdieresis Wdotaccent Wgrave X Xdotaccent Y Yacute Ycircumflex Ydieresis Ydotaccent Ygrave Ytilde Z Zacute Zcaron Zdotaccent G.ss06 Gacute.ss06 Gbreve.ss06 Gcaron.ss06 Gcircumflex.ss06 Gdotaccent.ss06 J.ss07 Jacute.ss07 Jcircumflex.ss07 R.ss08 Racute.ss08 Rcaron.ss08 Rdotaccent.ss08";
name = Uppercase;
}
);
customParameters = (
{
name = fsType;
value = (
);
},
{
name = versionString;
value = "Version %d.%03d";
},
{
name = "Family Alignment Zones";
value = (
{
pos = 1100;
size = 0;
},
{
pos = 720;
size = 12;
},
{
pos = 520;
size = 12;
},
{
pos = 0;
size = "-12";
},
{
pos = "-200";
size = "-12";
},
{
pos = "-330";
size = 0;
}
);
},
{
name = "Variable Font Origin";
value = m002;
}
);
date = "2022-07-05 01:03:03 +0000";
familyName = "Aspekta Variable";
featurePrefixes = (
{
automatic = 1;
code = "languagesystem DFLT dflt;

languagesystem latn dflt;
languagesystem latn NLD;
";
name = Languagesystems;
}
);
features = (
{
automatic = 1;
code = "feature locl;
feature case;
feature ss01;

glyphs = (
{
color = 4;
glyphname = A;
lastChange = "2022-09-14 12:40:34 +0000";
layers = (
{
anchors = (
{
name = ogonek;
pos = (646,0);
},
{
name = top;
pos = (330,720);
}
);
layerId = m01;
shapes = (
{
closed = 1;
nodes = (
(50,0,l),
(141,222,l),
(519,222,l),
(610,0,l),
(646,0,l),
(347,720,l),
(313,720,l),
(14,0,l)
);
},
{
closed = 1;
nodes = (
(330,683,l),
(507,252,l),
(153,252,l)
);
}
);
width = 660;
},
{
anchors = (
{
name = ogonek;
pos = (702,0);
},
{
name = top;
pos = (360,720);
}
);
layerId = m002;
shapes = (
{
closed = 1;
nodes = (
(112,0,l),
(193,206,l),
(527,206,l),
(608,0,l),
(702,0,l),
(408,720,l),
(312,720,l),
(18,0,l)
);
},
{
closed = 1;
nodes = (
(360,629,l),
(495,286,l),
(225,286,l)
);
}
);
width = 720;
},
{
anchors = (
{
name = ogonek;
pos = (760,0);
},
{
name = top;
pos = (374,720);
}
);
layerId = m003;
shapes = (
{
closed = 1;
nodes = (
(204,0,l),
(236,100,l),
(512,100,l),
(544,0,l),
(760,0,l),
(497,720,l),
(251,720,l),
(-2,0,l)
);
},
{
closed = 1;
nodes = (
(374,530,l),
(458,268,l),
(290,268,l)
);
}
);
width = 758;
}
);
unicode = 65;
},
{
color = 5;
glyphname = Aogonek;
lastChange = "2022-09-14 14:07:31 +0000";
layers = (
{
layerId = m01;
shapes = (
{
closed = 1;
nodes = (
(603,-212,o),
(625,-209,o),
(646,-199,c),
(646,-172,l),
(626,-181,o),
(608,-184,o),
(588,-184,cs),
(550,-184,o),
(521,-168,o),
(521,-130,cs),
(521,-92,o),
(568,-44,o),
(646,0,c),
(347,720,l),
(313,720,l),
(14,0,l),
(50,0,l),
(141,222,l),
(519,222,l),
(610,0,l),
(613,0,l),
(542,-39,o),
(490,-83,o),
(490,-138,cs),
(490,-184,o),
(526,-212,o),
(582,-212,cs)
);
},
{
closed = 1;
nodes = (
(330,683,l),
(507,252,l),
(153,252,l)
);
}
);
width = 660;
},
{
layerId = m002;
shapes = (
{
closed = 1;
nodes = (
(655,-212,o),
(679,-209,o),
(702,-201,c),
(702,-133,l),
(685,-139,o),
(669,-142,o),
(652,-142,cs),
(620,-142,o),
(598,-129,o),
(598,-99,cs),
(598,-69,o),
(636,-36,o),
(702,0,c),
(408,720,l),
(312,720,l),
(18,0,l),
(112,0,l),
(193,206,l),
(527,206,l),
(608,0,l),
(624,0,l),
(571,-23,o),
(518,-62,o),
(518,-119,cs),
(518,-181,o),
(566,-212,o),
(632,-212,cs)
);
},
{
closed = 1;
nodes = (
(360,629,l),
(495,286,l),
(225,286,l)
);
}
);
width = 720;
},
{
layerId = m003;
shapes = (
{
closed = 1;
nodes = (
(703,-212,o),
(737,-209,o),
(760,-202,c),
(760,-110,l),
(746,-114,o),
(732,-116,o),
(718,-116,cs),
(690,-116,o),
(668,-107,o),
(668,-83,cs),
(668,-59,o),
(686,-34,o),
(760,0,c),
(497,720,l),
(251,720,l),
(-2,0,l),
(204,0,l),
(236,100,l),
(512,100,l),
(544,0,l),
(628,0,l),
(563,-29,o),
(534,-77,o),
(534,-114,cs),
(534,-186,o),
(598,-212,o),
(680,-212,cs)
);
},
{
closed = 1;
nodes = (
(374,530,l),
(458,268,l),
(290,268,l)
);
}
);
width = 758;
}
);
unicode = 260;
},
{
color = 5;
glyphname = Aring;
lastChange = "2022-09-14 14:07:31 +0000";
layers = (
{
layerId = m01;
shapes = (
{
closed = 1;
nodes = (
(50,0,l),
(141,222,l),
(519,222,l),
(610,0,l),
(646,0,l),
(357,697,l),
(404,708,o),
(438,749,o),
(438,800,cs),
(438,860,o),
(390,906,o),
(330,906,cs),
(270,906,o),
(222,860,o),
(222,800,cs),
(222,749,o),
(256,708,o),
(303,697,c),
(14,0,l)
);
},
{
closed = 1;
nodes = (
(330,683,l),
(507,252,l),
(153,252,l)
);
},
{
closed = 1;
nodes = (
(282,720,o),
(248,752,o),
(248,800,cs),
(248,848,o),
(282,880,o),
(330,880,cs),
(378,880,o),
(412,848,o),
(412,800,cs),
(412,752,o),
(378,720,o),
(330,720,cs)
);
}
);
width = 660;
},
{
layerId = m002;
shapes = (
{
closed = 1;
nodes = (
(112,0,l),
(193,206,l),
(527,206,l),
(608,0,l),
(702,0,l),
(426,675,l),
(464,697,o),
(489,737,o),
(489,782,cs),
(489,850,o),
(432,906,o),
(360,906,cs),
(288,906,o),
(231,850,o),
(231,782,cs),
(231,737,o),
(256,697,o),
(294,675,c),
(18,0,l)
);
},
{
closed = 1;
nodes = (
(360,629,l),
(495,286,l),
(225,286,l)
);
},
{
closed = 1;
nodes = (
(324,720,o),
(297,746,o),
(297,782,cs),
(297,818,o),
(324,844,o),
(360,844,cs),
(396,844,o),
(423,818,o),
(423,782,cs),
(423,746,o),
(396,720,o),
(360,720,cs)
);
}
);
width = 720;
},
{
layerId = m003;
shapes = (
{
closed = 1;
nodes = (
(204,0,l),
(236,100,l),
(512,100,l),
(544,0,l),
(760,0,l),
(511,683,l),
(529,708,o),
(540,739,o),
(540,774,cs),
(540,866,o),
(466,930,o),
(374,930,cs),
(282,930,o),
(208,866,o),
(208,774,cs),
(208,739,o),
(219,707,o),
(238,682,c),
(-2,0,l)
);
},
{
closed = 1;
nodes = (
(374,530,l),
(458,268,l),
(290,268,l)
);
},
{
closed = 1;
nodes = (
(342,720,o),
(319,742,o),
(319,774,cs),
(319,806,o),
(342,828,o),
(374,828,cs),
(406,828,o),
(429,806,o),
(429,774,cs),
(429,742,o),
(406,720,o),
(374,720,cs)
);
}
);
width = 758;
}
);
unicode = 197;
},
{
color = 4;
glyphname = B;
lastChange = "2022-09-14 12:40:49 +0000";
layers = (
{
anchors = (
{
name = top;
pos = (300,720);
}
);
guides = (
{
angle = 270;
pos = (532,539);
},
{
angle = 270;
pos = (68,539);
}
);
layerId = m01;
shapes = (
{
closed = 1;
nodes = (
(362,0,ls),
(510,0,o),
(592,78,o),
(592,194,cs),
(592,287,o),
(539,353,o),
(442,376,c),
(524,401,o),
(564,462,o),
(564,539,cs),
(564,642,o),
(492,720,o),
(344,720,cs),
(68,720,l),
(68,0,l)
);
},
{
closed = 1;
nodes = (
(100,358,l),
(362,358,ls),
(488,358,o),
(559,294,o),
(559,194,cs),
(559,94,o),
(488,30,o),
(362,30,cs),
(100,30,l)
);
},
{
closed = 1;
nodes = (
(100,690,l),
(345,690,ls),
(471,690,o),
(532,626,o),
(532,539,cs),
(532,452,o),
(471,388,o),
(345,388,cs),
(100,388,l)
);
}
);
width = 616;
},
{
anchors = (
{
name = top;
pos = (305,720);
}
);
guides = (
{
angle = 270;
pos = (68,514);
},
{
angle = 270;
pos = (542,514);
}
);
layerId = m002;
shapes = (
{
closed = 1;
nodes = (
(366,0,ls),
(536,0,o),
(614,87,o),
(614,204,cs),
(614,284,o),
(577,345,o),
(499,375,c),
(557,407,o),
(584,460,o),
(584,524,cs),
(584,633,o),
(506,720,o),
(336,720,cs),
(68,720,l),
(68,0,l)
);
},
{
closed = 1;
nodes = (
(156,328,l),
(369,328,ls),
(479,328,o),
(526,281,o),
(526,204,cs),
(526,127,o),
(479,80,o),
(369,80,cs),
(156,80,l)
);
},
{
closed = 1;
nodes = (
(156,640,l),
(341,640,ls),
(451,640,o),
(498,593,o),
(498,524,cs),
(498,455,o),
(451,408,o),
(341,408,cs),
(156,408,l)
);
}
);
width = 642;
},
{
anchors = (
{
name = top;
pos = (349,720);
}
);
guides = (
{
angle = 270;
pos = (256,514);
},
{
angle = 270;
pos = (442,514);
}
);
layerId = m003;
shapes = (
{
closed = 1;
nodes = (
(401,0,ls),
(585,0,o),
(686,67,o),
(686,215,cs),
(686,285,o),
(644,349,o),
(564,385,c),
(624,416,o),
(656,467,o),
(656,535,cs),
(656,657,o),
(555,720,o),
(371,720,cs),
(52,720,l),
(52,0,l)
);
},
{
closed = 1;
nodes = (
(256,288,l),
(396,288,ls),
(446,288,o),
(474,271,o),
(474,225,cs),
(474,179,o),
(446,162,o),
(396,162,cs),
(256,162,l)
);
},
{
closed = 1;
nodes = (
(256,558,l),
(374,558,ls),
(424,558,o),
(452,541,o),
(452,499,cs),
(452,457,o),
(424,440,o),
(374,440,cs),
(256,440,l)
);
}
);
width = 704;
}
);
unicode = 66;
},
{
color = 4;
glyphname = C;
lastChange = "2022-09-07 10:19:17 +0000";
layers = (
{
anchors = (
{
name = bottom;
pos = (367,-12);
},
{
name = cedilla;
pos = (367,-12);
},
{
name = top;
pos = (367,732);
}
);
guides = (
{
angle = 180;
pos = (367,468);
},
{
pos = (367,264);
}
);
layerId = m01;
shapes = (
{
closed = 1;
nodes = (
(534,-12,o),
(638,111,o),
(654,264,c),
(622,264,l),
(607,127,o),
(514,18,o),
(367,18,cs),
(167,18,o),
(75,180,o),
(75,360,cs),
(75,540,o),
(167,702,o),
(367,702,cs),
(510,702,o),
(602,600,o),
(620,468,c),
(652,468,l),
(633,616,o),
(529,732,o),
(367,732,cs),
(147,732,o),
(42,556,o),
(42,360,cs),
(42,164,o),
(147,-12,o),
(367,-12,cs)
);
}
);
width = 696;
},
{
anchors = (
{
name = bottom;
pos = (381,-12);
},
{
name = cedilla;
pos = (381,-12);
},
{
name = top;
pos = (381,732);
}
);
guides = (
{
angle = 180;
pos = (381,482);
},
{
pos = (381,262);
}
);
layerId = m002;
shapes = (
{
closed = 1;
nodes = (
(554,-12,o),
(663,107,o),
(682,262,c),
(593,262,l),
(579,151,o),
(500,70,o),
(381,70,cs),
(209,70,o),
(130,202,o),
(130,360,cs),
(130,518,o),
(209,650,o),
(381,650,cs),
(491,650,o),
(569,581,o),
(587,482,c),
(677,482,l),
(652,625,o),
(545,732,o),
(381,732,cs),
(153,732,o),
(38,560,o),
(38,360,cs),
(38,160,o),
(153,-12,o),
(381,-12,cs)
);
}
);
width = 720;
},
{
anchors = (
{
name = bottom;
pos = (398,-12);
},
{
name = cedilla;
pos = (398,-12);
},
{
name = top;
pos = (398,732);
}
);
guides = (
{
angle = 180;
pos = (398,448);
},
{
pos = (398,284);
}
);
layerId = m003;
shapes = (
{
closed = 1;
nodes = (
(601,-12,o),
(729,115,o),
(748,284,c),
(542,284,l),
(524,216,o),
(480,166,o),
(398,166,cs),
(278,166,o),
(234,256,o),
(234,360,cs),
(234,464,o),
(278,554,o),
(398,554,cs),
(475,554,o),
(523,510,o),
(542,448,c),
(748,448,l),
(725,611,o),
(596,732,o),
(398,732,cs),
(156,732,o),
(22,566,o),
(22,360,cs),
(22,154,o),
(156,-12,o),
(398,-12,cs)
);
}
);
width = 770;
}
);
unicode = 67;
},
{
color = 5;
glyphname = Ccedilla;
lastChange = "2022-09-14 14:07:31 +0000";
layers = (
{
layerId = m01;
shapes = (
{
closed = 1;
nodes = (
(415,-224,o),
(459,-199,o),
(459,-147,cs),
(459,-95,o),
(415,-73,o),
(344,-73,cs),
(338,-73,l),
(381,-12,l),
(540,-5,o),
(638,115,o),
(654,264,c),
(622,264,l),
(607,127,o),
(514,18,o),
(367,18,cs),
(167,18,o),
(75,180,o),
(75,360,cs),
(75,540,o),
(167,702,o),
(367,702,cs),
(510,702,o),
(602,600,o),
(620,468,c),
(652,468,l),
(633,616,o),
(529,732,o),
(367,732,cs),
(147,732,o),
(42,556,o),
(42,360,cs),
(42,168,o),
(142,-4,o),
(352,-12,c),
(311,-75,l),
(311,-96,l),
(319,-95,o),
(329,-94,o),
(337,-94,cs),
(400,-94,o),
(429,-111,o),
(429,-147,cs),
(429,-183,o),
(399,-201,o),
(337,-201,cs),
(318,-201,o),
(300,-199,o),
(281,-195,c),
(281,-217,l),
(303,-223,o),
(325,-224,o),
(347,-224,cs)
);
}
);
width = 696;
},
{
layerId = m002;
shapes = (
{
closed = 1;
nodes = (
(439,-236,o),
(481,-190,o),
(481,-140,cs),
(481,-90,o),
(439,-57,o),
(378,-57,cs),
(374,-57,l),
(417,-10,l),
(569,5,o),
(664,118,o),
(682,262,c),
(593,262,l),
(579,151,o),
(500,70,o),
(381,70,cs),
(209,70,o),
(130,202,o),
(130,360,cs),
(130,518,o),
(209,650,o),
(381,650,cs),
(491,650,o),
(569,581,o),
(587,482,c),
(677,482,l),
(652,625,o),
(545,732,o),
(381,732,cs),
(153,732,o),
(38,560,o),
(38,360,cs),
(38,171,o),
(141,6,o),
(346,-11,c),
(308,-62,l),
(308,-103,l),
(318,-101,o),
(329,-101,o),
(339,-101,cs),
(381,-101,o),
(401,-114,o),
(401,-140,cs),
(401,-166,o),
(381,-184,o),
(329,-184,cs),
(317,-184,o),
(295,-182,o),
(273,-178,c),
(273,-228,l),
(298,-234,o),
(324,-236,o),
(349,-236,cs)
);
}
);
width = 720;
},
{
layerId = m003;
shapes = (
{
closed = 1;
nodes = (
(481,-236,o),
(530,-188,o),
(530,-136,cs),
(530,-84,o),
(481,-56,o),
(405,-56,cs),
(394,-56,l),
(438,-10,l),
(618,5,o),
(730,126,o),
(748,284,c),
(542,284,l),
(524,216,o),
(480,166,o),
(398,166,cs),
(278,166,o),
(234,256,o),
(234,360,cs),
(234,464,o),
(278,554,o),
(398,554,cs),
(475,554,o),
(523,510,o),
(542,448,c),
(748,448,l),
(725,611,o),
(596,732,o),
(398,732,cs),
(156,732,o),
(22,566,o),
(22,360,cs),
(22,165,o),
(143,5,o),
(361,-11,c),
(321,-63,l),
(321,-103,l),
(331,-101,o),
(341,-101,o),
(351,-101,cs),
(391,-101,o),
(408,-114,o),
(408,-136,cs),
(408,-158,o),
(391,-172,o),
(343,-172,cs),
(329,-172,o),
(308,-170,o),
(286,-166,c),
(286,-228,l),
(311,-234,o),
(336,-236,o),
(361,-236,cs)
);
}
);
width = 770;
}
);
unicode = 199;
},
{
color = 4;
glyphname = D;
lastChange = "2022-09-14 12:42:40 +0000";
layers = (
{
anchors = (
{
name = top;
pos = (294,720);
}
);
guides = (
{
angle = 90;
pos = (270,720);
}
);
layerId = m01;
shapes = (
{
closed = 1;
nodes = (
(270,0,ls),
(511,0,o),
(626,164,o),
(626,360,cs),
(626,556,o),
(511,720,o),
(270,720,cs),
(68,720,l),
(68,0,l)
);
},
{
closed = 1;
nodes = (
(100,690,l),
(270,690,ls),
(491,690,o),
(593,540,o),
(593,360,cs),
(593,180,o),
(491,30,o),
(270,30,cs),
(100,30,l)
);
}
);
width = 666;
},
{
anchors = (
{
name = top;
pos = (327,720);
}
);
guides = (
{
angle = 90;
pos = (305,720);
}
);
layerId = m002;
shapes = (
{
closed = 1;
nodes = (
(305,0,ls),
(543,0,o),
(658,160,o),
(658,360,cs),
(658,560,o),
(543,720,o),
(305,720,cs),
(68,720,l),
(68,0,l)
);
},
{
closed = 1;
nodes = (
(156,640,l),
(305,640,ls),
(487,640,o),
(566,518,o),
(566,360,cs),
(566,202,o),
(487,80,o),
(305,80,cs),
(156,80,l)
);
}
);
width = 696;
},
{
anchors = (
{
name = top;
pos = (362,720);
}
);
layerId = m003;
shapes = (
{
closed = 1;
nodes = (
(362,0,ls),
(624,0,o),
(738,154,o),
(738,360,cs),
(738,566,o),
(624,720,o),
(362,720,cs),
(52,720,l),
(52,0,l)
);
},
{
closed = 1;
nodes = (
(256,548,l),
(362,548,ls),
(482,548,o),
(526,464,o),
(526,360,cs),
(526,256,o),
(482,172,o),
(362,172,cs),
(256,172,l)
);
}
);
width = 760;
}
);
unicode = 68;
},
{
color = 5;
glyphname = Dcroat;
lastChange = "2022-09-14 14:07:31 +0000";
layers = (
{
guides = (
{
angle = 270;
pos = (92,390);
},
{
angle = 270;
pos = (124,390);
}
);
layerId = m01;
shapes = (
{
closed = 1;
nodes = (
(294,0,ls),
(535,0,o),
(650,164,o),
(650,360,cs),
(650,556,o),
(535,720,o),
(294,720,cs),
(92,720,l),
(92,390,l),
(0,390,l),
(0,362,l),
(92,362,l),
(92,0,l)
);
},
{
closed = 1;
nodes = (
(124,362,l),
(344,362,l),
(344,390,l),
(124,390,l),
(124,690,l),
(294,690,ls),
(515,690,o),
(617,540,o),
(617,360,cs),
(617,180,o),
(515,30,o),
(294,30,cs),
(124,30,l)
);
}
);
width = 690;
},
{
guides = (
{
angle = 90;
pos = (86,405);
},
{
angle = 90;
pos = (174,405);
}
);
layerId = m002;
shapes = (
{
closed = 1;
nodes = (
(323,10,ls),
(561,10,o),
(676,170,o),
(676,370,cs),
(676,570,o),
(561,730,o),
(323,730,cs),
(86,730,l),
(86,405,l),
(0,405,l),
(0,335,l),
(86,335,l),
(86,10,l)
);
},
{
closed = 1;
nodes = (
(174,335,l),
(374,335,l),
(374,405,l),
(174,405,l),
(174,650,l),
(323,650,ls),
(505,650,o),
(584,528,o),
(584,370,cs),
(584,212,o),
(505,90,o),
(323,90,cs),
(174,90,l)
);
}
);
width = 714;
},
{
guides = (
{
angle = 90;
pos = (74,415);
},
{
angle = 90;
pos = (278,415);
}
);
layerId = m003;
shapes = (
{
closed = 1;
nodes = (
(384,0,ls),
(646,0,o),
(760,154,o),
(760,360,cs),
(760,566,o),
(646,720,o),
(384,720,cs),
(74,720,l),
(74,415,l),
(0,415,l),
(0,317,l),
(74,317,l),
(74,0,l)
);
},
{
closed = 1;
nodes = (
(278,317,l),
(418,317,l),
(418,415,l),
(278,415,l),
(278,548,l),
(384,548,ls),
(504,548,o),
(548,464,o),
(548,360,cs),
(548,256,o),
(504,172,o),
(384,172,cs),
(278,172,l)
);
}
);
width = 782;
}
);
unicode = 272;
},
{
color = 4;
glyphname = E;
lastChange = "2022-09-14 12:42:56 +0000";
layers = (
{
anchors = (
{
name = cedilla;
pos = (301,0);
},
{
name = ogonek;
pos = (542,0);
},
{
name = top;
pos = (301,720);
}
);
guides = (
{
angle = 90;
pos = (68,720);
},
{
angle = 90;
pos = (534,720);
}
);
layerId = m01;
shapes = (
{
closed = 1;
nodes = (
(542,0,l),
(542,30,l),
(100,30,l),
(100,360,l),
(504,360,l),
(504,390,l),
(100,390,l),
(100,690,l),
(534,690,l),
(534,720,l),
(68,720,l),
(68,0,l)
);
}
);
width = 574;
},
{
anchors = (
{
name = cedilla;
pos = (319,0);
},
{
name = ogonek;
pos = (566,0);
},
{
name = top;
pos = (319,720);
}
);
guides = (
{
angle = 90;
pos = (68,720);
},
{
angle = 90;
pos = (570,720);
}
);
layerId = m002;
shapes = (
{
closed = 1;
nodes = (
(566,0,l),
(566,80,l),
(156,80,l),
(156,336,l),
(540,336,l),
(540,416,l),
(156,416,l),
(156,640,l),
(570,640,l),
(570,720,l),
(68,720,l),
(68,0,l)
);
}
);
width = 598;
},
{
anchors = (
{
name = cedilla;
pos = (336,0);
},
{
name = ogonek;
pos = (620,0);
},
{
name = top;
pos = (336,720);
}
);
guides = (
{
angle = 90;
pos = (52,720);
},
{
angle = 90;
pos = (620,720);
}
);
layerId = m003;
shapes = (
{
closed = 1;
nodes = (
(620,0,l),
(620,182,l),
(256,182,l),
(256,276,l),
(592,276,l),
(592,446,l),
(256,446,l),
(256,538,l),
(620,538,l),
(620,720,l),
(52,720,l),
(52,0,l)
);
}
);
width = 648;
}
);
unicode = 69;
},
{
color = 5;
glyphname = Ecedilla;
lastChange = "2022-09-14 14:07:31 +0000";
layers = (
{
layerId = m01;
shapes = (
{
closed = 1;
nodes = (
(349,-212,o),
(393,-187,o),
(393,-135,cs),
(393,-83,o),
(349,-61,o),
(278,-61,cs),
(272,-61,l),
(315,0,l),
(542,0,l),
(542,30,l),
(100,30,l),
(100,360,l),
(504,360,l),
(504,390,l),
(100,390,l),
(100,690,l),
(534,690,l),
(534,720,l),
(68,720,l),
(68,0,l),
(286,0,l),
(245,-63,l),
(245,-84,l),
(253,-83,o),
(263,-82,o),
(271,-82,cs),
(334,-82,o),
(363,-99,o),
(363,-135,cs),
(363,-171,o),
(333,-189,o),
(271,-189,cs),
(252,-189,o),
(234,-187,o),
(215,-183,c),
(215,-205,l),
(237,-211,o),
(259,-212,o),
(281,-212,cs)
);
}
);
width = 574;
},
{
layerId = m002;
shapes = (
{
closed = 1;
nodes = (
(377,-224,o),
(419,-178,o),
(419,-128,cs),
(419,-78,o),
(377,-45,o),
(316,-45,cs),
(312,-45,l),
(353,0,l),
(566,0,l),
(566,80,l),
(156,80,l),
(156,336,l),
(540,336,l),
(540,416,l),
(156,416,l),
(156,640,l),
(570,640,l),
(570,720,l),
(68,720,l),
(68,0,l),
(283,0,l),
(246,-50,l),
(246,-91,l),
(256,-89,o),
(267,-89,o),
(277,-89,cs),
(319,-89,o),
(339,-102,o),
(339,-128,cs),
(339,-154,o),
(319,-172,o),
(267,-172,cs),
(255,-172,o),
(233,-170,o),
(211,-166,c),
(211,-216,l),
(236,-222,o),
(262,-224,o),
(287,-224,cs)
);
}
);
width = 598;
},
{
layerId = m003;
shapes = (
{
closed = 1;
nodes = (
(419,-224,o),
(468,-176,o),
(468,-124,cs),
(468,-72,o),
(419,-44,o),
(343,-44,cs),
(332,-44,l),
(374,0,l),
(620,0,l),
(620,182,l),
(256,182,l),
(256,276,l),
(592,276,l),
(592,446,l),
(256,446,l),
(256,538,l),
(620,538,l),
(620,720,l),
(52,720,l),
(52,0,l),
(298,0,l),
(259,-51,l),
(259,-91,l),
(269,-89,o),
(279,-89,o),
(289,-89,cs),
(329,-89,o),
(346,-102,o),
(346,-124,cs),
(346,-146,o),
(329,-160,o),
(281,-160,cs),
(267,-160,o),
(246,-158,o),
(224,-154,c),
(224,-216,l),
(249,-222,o),
(274,-224,o),
(299,-224,cs)
);
}
);
width = 648;
}
);
unicode = 552;
},
{
color = 5;
glyphname = Eogonek;
lastChange = "2022-09-14 14:26:53 +0000";
layers = (
{
layerId = m01;
shapes = (
{
closed = 1;
nodes = (
(499,-212,o),
(521,-209,o),
(542,-199,c),
(542,-172,l),
(522,-181,o),
(504,-184,o),
(484,-184,cs),
(446,-184,o),
(417,-168,o),
(417,-130,cs),
(417,-92,o),
(464,-44,o),
(542,0,c),
(542,30,l),
(100,30,l),
(100,360,l),
(504,360,l),
(504,390,l),
(100,390,l),
(100,690,l),
(534,690,l),
(534,720,l),
(68,720,l),
(68,0,l),
(509,0,l),
(438,-39,o),
(386,-83,o),
(386,-138,cs),
(386,-184,o),
(422,-212,o),
(478,-212,cs)
);
}
);
width = 574;
},
{
layerId = m002;
shapes = (
{
closed = 1;
nodes = (
(519,-212,o),
(543,-209,o),
(566,-201,c),
(566,-133,l),
(549,-139,o),
(533,-142,o),
(516,-142,cs),
(484,-142,o),
(462,-129,o),
(462,-99,cs),
(462,-69,o),
(500,-36,o),
(566,0,c),
(566,80,l),
(156,80,l),
(156,336,l),
(540,336,l),
(540,416,l),
(156,416,l),
(156,640,l),
(570,640,l),
(570,720,l),
(68,720,l),
(68,0,l),
(488,0,l),
(435,-23,o),
(382,-62,o),
(382,-119,cs),
(382,-181,o),
(430,-212,o),
(496,-212,cs)
);
}
);
width = 598;
},
{
layerId = m003;
shapes = (
{
closed = 1;
nodes = (
(563,-212,o),
(597,-209,o),
(620,-202,c),
(620,-110,l),
(606,-114,o),
(592,-116,o),
(578,-116,cs),
(550,-116,o),
(528,-107,o),
(528,-83,cs),
(528,-59,o),
(546,-34,o),
(620,0,c),
(620,182,l),
(256,182,l),
(256,276,l),
(592,276,l),
(592,446,l),
(256,446,l),
(256,538,l),
(620,538,l),
(620,720,l),
(52,720,l),
(52,0,l),
(488,0,l),
(423,-29,o),
(394,-77,o),
(394,-114,cs),
(394,-186,o),
(458,-212,o),
(540,-212,cs)
);
}
);
width = 648;
}
);
unicode = 280;
},
{
color = 4;
glyphname = F;
lastChange = "2022-09-14 12:42:56 +0000";
layers = (
{
anchors = (
{
name = top;
pos = (291,720);
}
);
guides = (
{
angle = 90;
pos = (68,720);
},
{
angle = 90;
pos = (514,720);
}
);
layerId = m01;
shapes = (
{
closed = 1;
nodes = (
(100,0,l),
(100,360,l),
(494,360,l),
(494,390,l),
(100,390,l),
(100,690,l),
(514,690,l),
(514,720,l),
(68,720,l),
(68,0,l)
);
}
);
width = 540;
},
{
anchors = (
{
name = top;
pos = (309,720);
}
);
guides = (
{
angle = 90;
pos = (68,720);
},
{
angle = 90;
pos = (550,720);
}
);
layerId = m002;
shapes = (
{
closed = 1;
nodes = (
(156,0,l),
(156,336,l),
(530,336,l),
(530,416,l),
(156,416,l),
(156,640,l),
(550,640,l),
(550,720,l),
(68,720,l),
(68,0,l)
);
}
);
width = 572;
},
{
anchors = (
{
name = top;
pos = (326,720);
}
);
guides = (
{
angle = 90;
pos = (52,720);
},
{
angle = 90;
pos = (600,720);
}
);
layerId = m003;
shapes = (
{
closed = 1;
nodes = (
(256,0,l),
(256,276,l),
(582,276,l),
(582,446,l),
(256,446,l),
(256,538,l),
(600,538,l),
(600,720,l),
(52,720,l),
(52,0,l)
);
}
);
width = 612;
}
);
unicode = 70;
},
{
color = 4;
glyphname = G;
lastChange = "2022-09-14 12:43:22 +0000";
layers = (
{
anchors = (
{
name = top;
pos = (367,732);
}
);
guides = (
{
pos = (367,478);
},
{
pos = (367,358);
}
);
layerId = m01;
shapes = (
{
closed = 1;
nodes = (
(521,-12,o),
(609,74,o),
(649,193,c),
(649,0,l),
(681,0,l),
(681,358,l),
(337,358,l),
(337,328,l),
(648,328,l),
(638,161,o),
(555,18,o),
(367,18,cs),
(167,18,o),
(75,180,o),
(75,360,cs),
(75,540,o),
(167,702,o),
(367,702,cs),
(522,702,o),
(616,605,o),
(636,478,c),
(669,478,l),
(647,621,o),
(541,732,o),
(367,732,cs),
(147,732,o),
(42,556,o),
(42,360,cs),
(42,164,o),
(147,-12,o),
(367,-12,cs)
);
}
);
width = 739;
},
{
anchors = (
{
name = top;
pos = (381,732);
}
);
guides = (
{
pos = (381,477);
},
{
pos = (381,371);
}
);
layerId = m002;
shapes = (
{
closed = 1;
nodes = (
(510,-12,o),
(589,43,o),
(633,128,c),
(633,0,l),
(709,0,l),
(709,371,l),
(351,371,l),
(351,291,l),
(621,291,l),
(600,162,o),
(525,70,o),
(381,70,cs),
(209,70,o),
(130,202,o),
(130,360,cs),
(130,518,o),
(209,650,o),
(381,650,cs),
(508,650,o),
(593,578,o),
(611,477,c),
(701,477,l),
(676,623,o),
(563,732,o),
(381,732,cs),
(153,732,o),
(38,560,o),
(38,360,cs),
(38,160,o),
(153,-12,o),
(381,-12,cs)
);
}
);
width = 767;
},
{
anchors = (
{
name = top;
pos = (398,732);
}
);
guides = (
{
pos = (398,412);
},
{
angle = 180;
pos = (398,469);
}
);
layerId = m003;
shapes = (
{
closed = 1;
nodes = (
(489,-12,o),
(572,37,o),
(620,122,c),
(620,0,l),
(760,0,l),
(760,412,l),
(368,412,l),
(368,256,l),
(544,256,l),
(517,196,o),
(470,163,o),
(398,163,cs),
(278,163,o),
(234,256,o),
(234,360,cs),
(234,464,o),
(278,557,o),
(398,557,cs),
(473,557,o),
(519,520,o),
(542,469,c),
(750,469,l),
(725,621,o),
(596,732,o),
(398,732,cs),
(156,732,o),
(22,566,o),
(22,360,cs),
(22,154,o),
(156,-12,o),
(358,-12,cs)
);
}
);
width = 802;
}
);
unicode = 71;
},
{
color = 4;
glyphname = H;
lastChange = "2022-09-14 12:42:56 +0000";
layers = (
{
anchors = (
{
name = cedilla;
pos = (84,0);
},
{
name = top;
pos = (337,720);
}
);
guides = (
{
angle = 90;
pos = (68,720);
},
{
angle = 90;
pos = (606,720);
},
{
angle = 90;
pos = (100,720);
},
{
angle = 90;
pos = (574,720);
}
);
layerId = m01;
shapes = (
{
closed = 1;
nodes = (
(100,0,l),
(100,360,l),
(574,360,l),
(574,0,l),
(606,0,l),
(606,720,l),
(574,720,l),
(574,390,l),
(100,390,l),
(100,720,l),
(68,720,l),
(68,0,l)
);
}
);
width = 674;
},
{
anchors = (
{
name = cedilla;
pos = (112,0);
},
{
name = top;
pos = (354,720);
}
);
guides = (
{
angle = 90;
pos = (68,720);
},
{
angle = 90;
pos = (640,720);
},
{
angle = 90;
pos = (156,720);
},
{
angle = 90;
pos = (552,720);
}
);
layerId = m002;
shapes = (
{
closed = 1;
nodes = (
(156,0,l),
(156,330,l),
(552,330,l),
(552,0,l),
(640,0,l),
(640,720,l),
(552,720,l),
(552,412,l),
(156,412,l),
(156,720,l),
(68,720,l),
(68,0,l)
);
}
);
width = 708;
},
{
anchors = (
{
name = cedilla;
pos = (154,0);
},
{
name = top;
pos = (378,720);
}
);
guides = (
{
angle = 90;
pos = (52,720);
},
{
angle = 90;
pos = (704,720);
},
{
angle = 90;
pos = (256,720);
},
{
angle = 90;
pos = (500,720);
}
);
layerId = m003;
shapes = (
{
closed = 1;
nodes = (
(256,0,l),
(256,276,l),
(500,276,l),
(500,0,l),
(704,0,l),
(704,720,l),
(500,720,l),
(500,458,l),
(256,458,l),
(256,720,l),
(52,720,l),
(52,0,l)
);
}
);
width = 756;
}
);
unicode = 72;
},
{
color = 5;
glyphname = Hcedilla;
lastChange = "2022-09-14 14:07:31 +0000";
layers = (
{
layerId = m01;
shapes = (
{
closed = 1;
nodes = (
(132,-212,o),
(176,-187,o),
(176,-135,cs),
(176,-83,o),
(132,-61,o),
(61,-61,cs),
(55,-61,l),
(98,0,l),
(100,0,l),
(100,360,l),
(574,360,l),
(574,0,l),
(606,0,l),
(606,720,l),
(574,720,l),
(574,390,l),
(100,390,l),
(100,720,l),
(68,720,l),
(68,0,l),
(69,0,l),
(28,-63,l),
(28,-84,l),
(36,-83,o),
(46,-82,o),
(54,-82,cs),
(117,-82,o),
(146,-99,o),
(146,-135,cs),
(146,-171,o),
(116,-189,o),
(54,-189,cs),
(35,-189,o),
(17,-187,o),
(-2,-183,c),
(-2,-205,l),
(20,-211,o),
(42,-212,o),
(64,-212,cs)
);
}
);
width = 674;
},
{
layerId = m002;
shapes = (
{
closed = 1;
nodes = (
(170,-224,o),
(212,-178,o),
(212,-128,cs),
(212,-78,o),
(170,-45,o),
(109,-45,cs),
(105,-45,l),
(146,0,l),
(156,0,l),
(156,330,l),
(552,330,l),
(552,0,l),
(640,0,l),
(640,720,l),
(552,720,l),
(552,412,l),
(156,412,l),
(156,720,l),
(68,720,l),
(68,0,l),
(76,0,l),
(39,-50,l),
(39,-91,l),
(49,-89,o),
(60,-89,o),
(70,-89,cs),
(112,-89,o),
(132,-102,o),
(132,-128,cs),
(132,-154,o),
(112,-172,o),
(60,-172,cs),
(48,-172,o),
(26,-170,o),
(4,-166,c),
(4,-216,l),
(29,-222,o),
(55,-224,o),
(80,-224,cs)
);
}
);
width = 708;
},
{
layerId = m003;
shapes = (
{
closed = 1;
nodes = (
(237,-224,o),
(286,-176,o),
(286,-124,cs),
(286,-72,o),
(237,-44,o),
(161,-44,cs),
(150,-44,l),
(192,0,l),
(256,0,l),
(256,276,l),
(500,276,l),
(500,0,l),
(704,0,l),
(704,720,l),
(500,720,l),
(500,458,l),
(256,458,l),
(256,720,l),
(52,720,l),
(52,0,l),
(116,0,l),
(77,-51,l),
(77,-91,l),
(87,-89,o),
(97,-89,o),
(107,-89,cs),
(147,-89,o),
(164,-102,o),
(164,-124,cs),
(164,-146,o),
(147,-160,o),
(99,-160,cs),
(85,-160,o),
(64,-158,o),
(42,-154,c),
(42,-216,l),
(67,-222,o),
(92,-224,o),
(117,-224,cs)
);
}
);
width = 756;
}
);
unicode = 7720;
},
{
color = 4;
glyphname = I;
lastChange = "2022-09-15 15:33:14 +0000";
layers = (
{
anchors = (
{
name = ogonek;
pos = (100,0);
},
{
name = top;
pos = (84,720);
}
);
layerId = m01;
shapes = (
{
closed = 1;
nodes = (
(100,0,l),
(100,720,l),
(68,720,l),
(68,0,l)
);
}
);
width = 168;
},
{
anchors = (
{
name = ogonek;
pos = (156,0);
},
{
name = top;
pos = (112,720);
}
);
layerId = m002;
shapes = (
{
closed = 1;
nodes = (
(156,0,l),
(156,720,l),
(68,720,l),
(68,0,l)
);
}
);
width = 224;
},
{
anchors = (
{
name = ogonek;
pos = (256,0);
},
{
name = top;
pos = (154,720);
}
);
layerId = m003;
shapes = (
{
closed = 1;
nodes = (
(256,0,l),
(256,720,l),
(52,720,l),
(52,0,l)
);
}
);
width = 308;
}
);
unicode = 73;
},
{
color = 5;
glyphname = Iogonek;
lastChange = "2022-09-14 14:07:31 +0000";
layers = (
{
layerId = m01;
shapes = (
{
closed = 1;
nodes = (
(57,-212,o),
(79,-209,o),
(100,-199,c),
(100,-172,l),
(80,-181,o),
(62,-184,o),
(42,-184,cs),
(4,-184,o),
(-25,-168,o),
(-25,-130,cs),
(-25,-92,o),
(22,-44,o),
(100,0,c),
(100,720,l),
(68,720,l),
(68,0,l),
(69,0,l),
(-2,-39,o),
(-56,-83,o),
(-56,-138,cs),
(-56,-184,o),
(-20,-212,o),
(36,-212,cs)
);
}
);
width = 168;
},
{
layerId = m002;
shapes = (
{
closed = 1;
nodes = (
(109,-212,o),
(133,-209,o),
(156,-201,c),
(156,-133,l),
(139,-139,o),
(123,-142,o),
(106,-142,cs),
(74,-142,o),
(52,-129,o),
(52,-99,cs),
(52,-69,o),
(90,-36,o),
(156,0,c),
(156,720,l),
(68,720,l),
(68,0,l),
(78,0,l),
(25,-23,o),
(-28,-62,o),
(-28,-119,cs),
(-28,-181,o),
(20,-212,o),
(86,-212,cs)
);
}
);
width = 224;
},
{
layerId = m003;
shapes = (
{
closed = 1;
nodes = (
(199,-212,o),
(233,-209,o),
(256,-202,c),
(256,-110,l),
(242,-114,o),
(228,-116,o),
(214,-116,cs),
(186,-116,o),
(164,-107,o),
(164,-83,cs),
(164,-59,o),
(182,-34,o),
(256,0,c),
(256,720,l),
(52,720,l),
(52,0,l),
(124,0,l),
(59,-29,o),
(30,-77,o),
(30,-114,cs),
(30,-186,o),
(94,-212,o),
(176,-212,cs)
);
}
);
width = 308;
}
);
unicode = 302;
},
{
color = 4;
glyphname = J;
lastChange = "2022-09-02 09:01:36 +0000";
layers = (
{
anchors = (
{
name = top;
pos = (460,720);
}
);
guides = (
{
angle = 90;
pos = (444,720);
},
{
angle = 90;
pos = (476,720);
}
);
layerId = m01;
shapes = (
{
closed = 1;
nodes = (
(388,-12,o),
(476,72,o),
(476,228,cs),
(476,720,l),
(444,720,l),
(444,228,ls),
(444,88,o),
(368,18,o),
(262,18,cs),
(156,18,o),
(80,88,o),
(80,228,cs),
(80,258,l),
(48,258,l),
(48,228,ls),
(48,72,o),
(136,-12,o),
(262,-12,cs)
);
}
);
width = 534;
},
{
anchors = (
{
name = top;
pos = (432,720);
}
);
guides = (
{
angle = 90;
pos = (388,720);
},
{
angle = 90;
pos = (476,720);
}
);
layerId = m002;
shapes = (
{
closed = 1;
nodes = (
(404,-12,o),
(476,85,o),
(476,225,cs),
(476,720,l),
(388,720,l),
(388,225,ls),
(388,125,o),
(348,68,o),
(254,68,cs),
(160,68,o),
(120,125,o),
(120,225,cs),
(120,265,l),
(32,265,l),
(32,225,ls),
(32,85,o),
(104,-12,o),
(254,-12,cs)
);
}
);
width = 534;
},
{
anchors = (
{
name = top;
pos = (454,720);
}
);
guides = (
{
angle = 90;
pos = (352,720);
},
{
angle = 90;
pos = (556,720);
}
);
layerId = m003;
shapes = (
{
closed = 1;
nodes = (
(454,-12,o),
(556,85,o),
(556,239,cs),
(556,720,l),
(352,720,l),
(352,239,ls),
(352,189,o),
(336,160,o),
(284,160,cs),
(232,160,o),
(216,189,o),
(216,239,cs),
(216,279,l),
(22,279,l),
(22,239,ls),
(22,85,o),
(114,-12,o),
(284,-12,cs)
);
}
);
width = 598;
}
);
unicode = 74;
},
{
color = 4;
glyphname = K;
lastChange = "2022-09-14 12:42:56 +0000";
layers = (
{
anchors = (
{
name = top;
pos = (329,720);
}
);
guides = (
{
angle = 90;
pos = (100,720);
},
{
angle = 90;
pos = (559,720);
}
);
layerId = m01;
shapes = (
{
closed = 1;
nodes = (
(100,0,l),
(100,227,l),
(271,391,l),
(581,0,l),
(621,0,l),
(294,413,l),
(613,720,l),
(569,720,l),
(100,267,l),
(100,720,l),
(68,720,l),
(68,0,l)
);
}
);
width = 635;
},
{
anchors = (
{
name = top;
pos = (351,720);
}
);
guides = (
{
angle = 90;
pos = (156,720);
},
{
angle = 90;
pos = (545,720);
}
);
layerId = m002;
shapes = (
{
closed = 1;
nodes = (
(156,0,l),
(156,220,l),
(303,365,l),
(554,0,l),
(662,0,l),
(366,427,l),
(662,720,l),
(545,720,l),
(156,328,l),
(156,720,l),
(68,720,l),
(68,0,l)
);
}
);
width = 680;
},
{
anchors = (
{
name = top;
pos = (388,720);
}
);
guides = (
{
angle = 90;
pos = (256,720);
},
{
angle = 90;
pos = (520,720);
}
);
layerId = m003;
shapes = (
{
closed = 1;
nodes = (
(256,0,l),
(256,191,l),
(348,286,l),
(526,0,l),
(768,0,l),
(486,429,l),
(768,720,l),
(520,720,l),
(256,427,l),
(256,720,l),
(52,720,l),
(52,0,l)
);
}
);
width = 766;
}
);
unicode = 75;
},
{
color = 4;
glyphname = L;
lastChange = "2022-09-14 12:43:36 +0000";
layers = (
{
anchors = (
{
name = caron.alt;
pos = (236,520);
},
{
name = top;
pos = (84,720);
}
);
guides = (
{
pos = (100,520);
},
{
angle = 90;
pos = (68,0);
},
{
angle = 90;
pos = (100,0);
}
);
layerId = m01;
shapes = (
{
closed = 1;
nodes = (
(482,0,l),
(482,30,l),
(100,30,l),
(100,720,l),
(68,720,l),
(68,0,l)
);
}
);
width = 508;
},
{
anchors = (
{
name = caron.alt;
pos = (236,520);
},
{
name = top;
pos = (112,720);
}
);
guides = (
{
pos = (156,520);
},
{
angle = 90;
pos = (68,0);
},
{
angle = 90;
pos = (156,0);
}
);
layerId = m002;
shapes = (
{
closed = 1;
nodes = (
(518,0,l),
(518,80,l),
(156,80,l),
(156,720,l),
(68,720,l),
(68,0,l)
);
}
);
width = 540;
},
{
anchors = (
{
name = caron.alt;
pos = (316,520);
},
{
name = top;
pos = (154,720);
}
);
guides = (
{
angle = 90;
pos = (52,0);
},
{
angle = 90;
pos = (256,0);
},
{
pos = (256,520);
}
);
layerId = m003;
shapes = (
{
closed = 1;
nodes = (
(576,0,l),
(576,182,l),
(256,182,l),
(256,720,l),
(52,720,l),
(52,0,l)
);
}
);
width = 588;
}
);
unicode = 76;
},
{
color = 5;
glyphname = Lslash;
lastChange = "2022-09-14 14:07:31 +0000";
layers = (
{
guides = (
{
angle = 90;
pos = (92,0);
},
{
angle = 90;
pos = (124,0);
},
{
pos = (124,500);
}
);
layerId = m01;
shapes = (
{
closed = 1;
nodes = (
(506,0,l),
(506,30,l),
(124,30,l),
(124,371,l),
(336,470,l),
(336,500,l),
(124,401,l),
(124,720,l),
(92,720,l),
(92,386,l),
(0,343,l),
(0,313,l),
(92,356,l),
(92,0,l)
);
}
);
width = 532;
},
{
guides = (
{
angle = 90;
pos = (86,0);
},
{
angle = 90;
pos = (174,0);
},
{
pos = (174,540);
}
);
layerId = m002;
shapes = (
{
closed = 1;
nodes = (
(536,0,l),
(536,80,l),
(174,80,l),
(174,373,l),
(360,460,l),
(360,540,l),
(174,453,l),
(174,720,l),
(86,720,l),
(86,412,l),
(0,372,l),
(0,292,l),
(86,332,l),
(86,0,l)
);
}
);
width = 558;
},
{
guides = (
{
angle = 90;
pos = (76,0);
},
{
angle = 90;
pos = (280,0);
},
{
pos = (280,550);
}
);
layerId = m003;
shapes = (
{
closed = 1;
nodes = (
(600,0,l),
(600,182,l),
(280,182,l),
(280,367,l),
(450,440,l),
(450,550,l),
(280,477,l),
(280,720,l),
(76,720,l),
(76,390,l),
(0,358,l),
(0,248,l),
(76,280,l),
(76,0,l)
);
}
);
width = 612;
}
);
unicode = 321;
},
{
color = 4;
glyphname = M;
lastChange = "2022-09-14 12:43:36 +0000";
layers = (
{
anchors = (
{
name = top;
pos = (420,720);
}
);
guides = (
{
angle = 90;
pos = (68,720);
},
{
angle = 90;
pos = (772,720);
}
);
layerId = m01;
shapes = (
{
closed = 1;
nodes = (
(100,0,l),
(100,667,l),
(403,0,l),
(437,0,l),
(740,667,l),
(740,0,l),
(772,0,l),
(772,720,l),
(730,720,l),
(420,35,l),
(110,720,l),
(68,720,l),
(68,0,l)
);
}
);
width = 840;
},
{
anchors = (
{
name = top;
pos = (428,720);
}
);
guides = (
{
angle = 90;
pos = (68,720);
},
{
angle = 90;
pos = (788,720);
}
);
layerId = m002;
shapes = (
{
closed = 1;
nodes = (
(154,0,l),
(154,565,l),
(387,0,l),
(469,0,l),
(702,565,l),
(702,0,l),
(788,0,l),
(788,720,l),
(674,720,l),
(428,101,l),
(182,720,l),
(68,720,l),
(68,0,l)
);
}
);
width = 856;
},
{
anchors = (
{
name = top;
pos = (467,720);
}
);
guides = (
{
angle = 90;
pos = (52,720);
},
{
angle = 90;
pos = (882,720);
}
);
layerId = m003;
shapes = (
{
closed = 1;
nodes = (
(246,0,l),
(246,502,l),
(384,0,l),
(550,0,l),
(688,502,l),
(688,0,l),
(882,0,l),
(882,720,l),
(570,720,l),
(467,308,l),
(364,720,l),
(52,720,l),
(52,0,l)
);
}
);
width = 934;
}
);
unicode = 77;
},
{
color = 4;
glyphname = N;
lastChange = "2022-09-14 12:43:36 +0000";
layers = (
{
anchors = (
{
name = top;
pos = (337,720);
}
);
layerId = m01;
shapes = (
{
closed = 1;
nodes = (
(100,0,l),
(100,675,l),
(569,0,l),
(610,0,l),
(610,720,l),
(578,720,l),
(578,45,l),
(109,720,l),
(68,720,l),
(68,0,l)
);
}
);
width = 678;
},
{
anchors = (
{
name = top;
pos = (359,720);
}
);
layerId = m002;
shapes = (
{
closed = 1;
nodes = (
(156,0,l),
(156,599,l),
(544,0,l),
(650,0,l),
(650,720,l),
(562,720,l),
(562,121,l),
(174,720,l),
(68,720,l),
(68,0,l)
);
}
);
width = 718;
},
{
anchors = (
{
name = top;
pos = (378,720);
}
);
layerId = m003;
shapes = (
{
closed = 1;
nodes = (
(246,0,l),
(246,427,l),
(488,0,l),
(704,0,l),
(704,720,l),
(510,720,l),
(510,293,l),
(268,720,l),
(52,720,l),
(52,0,l)
);
}
);
width = 756;
}
);
unicode = 78;
},
{
color = 4;
glyphname = O;
lastChange = "2022-09-08 15:17:30 +0000";
layers = (
{
anchors = (
{
name = ogonek;
pos = (460,0);
},
{
name = top;
pos = (367,732);
}
);
layerId = m01;
shapes = (
{
closed = 1;
nodes = (
(587,-12,o),
(692,164,o),
(692,360,cs),
(692,556,o),
(587,732,o),
(367,732,cs),
(147,732,o),
(42,556,o),
(42,360,cs),
(42,164,o),
(147,-12,o),
(367,-12,cs)
);
},
{
closed = 1;
nodes = (
(167,18,o),
(75,180,o),
(75,360,cs),
(75,540,o),
(167,702,o),
(367,702,cs),
(567,702,o),
(659,540,o),
(659,360,cs),
(659,180,o),
(567,18,o),
(367,18,cs)
);
}
);
width = 734;
},
{
anchors = (
{
name = ogonek;
pos = (479,0);
},
{
name = top;
pos = (381,732);
}
);
layerId = m002;
shapes = (
{
closed = 1;
nodes = (
(609,-12,o),
(724,160,o),
(724,360,cs),
(724,560,o),
(609,732,o),
(381,732,cs),
(153,732,o),
(38,560,o),
(38,360,cs),
(38,160,o),
(153,-12,o),
(381,-12,cs)
);
},
{
closed = 1;
nodes = (
(209,70,o),
(130,202,o),
(130,360,cs),
(130,518,o),
(209,650,o),
(381,650,cs),
(553,650,o),
(632,518,o),
(632,360,cs),
(632,202,o),
(553,70,o),
(381,70,cs)
);
}
);
width = 762;
},
{
anchors = (
{
name = ogonek;
pos = (504,0);
},
{
name = top;
pos = (398,732);
}
);
layerId = m003;
shapes = (
{
closed = 1;
nodes = (
(640,-12,o),
(774,154,o),
(774,360,cs),
(774,566,o),
(640,732,o),
(398,732,cs),
(156,732,o),
(22,566,o),
(22,360,cs),
(22,154,o),
(156,-12,o),
(398,-12,cs)
);
},
{
closed = 1;
nodes = (
(278,166,o),
(234,256,o),
(234,360,cs),
(234,464,o),
(278,554,o),
(398,554,cs),
(518,554,o),
(562,464,o),
(562,360,cs),
(562,256,o),
(518,166,o),
(398,166,cs)
);
}
);
width = 796;
}
);
unicode = 79;
},
{
color = 5;
glyphname = Oogonek;
lastChange = "2022-09-14 14:30:30 +0000";
layers = (
{
layerId = m01;
shapes = (
{
closed = 1;
nodes = (
(417,-212,o),
(439,-209,o),
(460,-199,c),
(460,-172,l),
(440,-181,o),
(422,-184,o),
(402,-184,cs),
(364,-184,o),
(335,-168,o),
(335,-130,cs),
(335,-92,o),
(382,-44,o),
(459,0,c),
(616,42,o),
(692,194,o),
(692,360,cs),
(692,556,o),
(587,732,o),
(367,732,cs),
(147,732,o),
(42,556,o),
(42,360,cs),
(42,130,o),
(183,-35,o),
(410,-10,c),
(348,-46,o),
(304,-87,o),
(304,-138,cs),
(304,-184,o),
(340,-212,o),
(396,-212,cs)
);
},
{
closed = 1;
nodes = (
(167,18,o),
(75,180,o),
(75,360,cs),
(75,540,o),
(167,702,o),
(367,702,cs),
(567,702,o),
(659,540,o),
(659,360,cs),
(659,180,o),
(567,18,o),
(367,18,cs)
);
}
);
width = 734;
},
{
layerId = m002;
shapes = (
{
closed = 1;
nodes = (
(432,-212,o),
(456,-209,o),
(479,-201,c),
(479,-133,l),
(462,-139,o),
(446,-142,o),
(429,-142,cs),
(397,-142,o),
(375,-129,o),
(375,-99,cs),
(375,-69,o),
(413,-36,o),
(479,0,c),
(642,42,o),
(724,191,o),
(724,360,cs),
(724,560,o),
(609,732,o),
(381,732,cs),
(153,732,o),
(38,560,o),
(38,360,cs),
(38,161,o),
(151,-10,o),
(376,-12,c),
(333,-36,o),
(295,-71,o),
(295,-119,cs),
(295,-181,o),
(343,-212,o),
(409,-212,cs)
);
},
{
closed = 1;
nodes = (
(209,70,o),
(130,202,o),
(130,360,cs),
(130,518,o),
(209,650,o),
(381,650,cs),
(553,650,o),
(632,518,o),
(632,360,cs),
(632,202,o),
(553,70,o),
(381,70,cs)
);
}
);
width = 762;
},
{
layerId = m003;
shapes = (
{
closed = 1;
nodes = (
(447,-212,o),
(481,-209,o),
(504,-202,c),
(504,-110,l),
(490,-114,o),
(476,-116,o),
(462,-116,cs),
(434,-116,o),
(412,-107,o),
(412,-83,cs),
(412,-59,o),
(430,-34,o),
(503,0,c),
(679,41,o),
(774,186,o),
(774,360,cs),
(774,566,o),
(640,732,o),
(398,732,cs),
(156,732,o),
(22,566,o),
(22,360,cs),
(22,167,o),
(139,10,o),
(352,-10,c),
(301,-39,o),
(278,-81,o),
(278,-114,cs),
(278,-186,o),
(342,-212,o),
(424,-212,cs)
);
},
{
closed = 1;
nodes = (
(278,166,o),
(234,256,o),
(234,360,cs),
(234,464,o),
(278,554,o),
(398,554,cs),
(518,554,o),
(562,464,o),
(562,360,cs),
(562,256,o),
(518,166,o),
(398,166,cs)
);
}
);
width = 796;
}
);
unicode = 490;
},
{
color = 4;
glyphname = P;
lastChange = "2022-09-14 12:43:36 +0000";
layers = (
{
anchors = (
{
name = top;
pos = (303,720);
}
);
guides = (
{
angle = 270;
pos = (537,527);
},
{
angle = 270;
pos = (68,527);
}
);
layerId = m01;
shapes = (
{
closed = 1;
nodes = (
(100,0,l),
(100,308,l),
(340,308,ls),
(488,308,o),
(570,396,o),
(570,514,cs),
(570,632,o),
(488,720,o),
(340,720,cs),
(68,720,l),
(68,0,l)
);
},
{
closed = 1;
nodes = (
(100,690,l),
(340,690,ls),
(466,690,o),
(537,616,o),
(537,514,cs),
(537,412,o),
(466,338,o),
(340,338,cs),
(100,338,l)
);
}
);
width = 628;
},
{
anchors = (
{
name = top;
pos = (313,720);
}
);
guides = (
{
angle = 270;
pos = (558,527);
},
{
angle = 270;
pos = (68,527);
}
);
layerId = m002;
shapes = (
{
closed = 1;
nodes = (
(156,0,l),
(156,278,l),
(356,278,ls),
(526,278,o),
(604,379,o),
(604,499,cs),
(604,619,o),
(526,720,o),
(356,720,cs),
(68,720,l),
(68,0,l)
);
},
{
closed = 1;
nodes = (
(156,640,l),
(356,640,ls),
(466,640,o),
(513,579,o),
(513,499,cs),
(513,419,o),
(466,358,o),
(356,358,cs),
(156,358,l)
);
}
);
width = 640;
},
{
anchors = (
{
name = top;
pos = (353,720);
}
);
guides = (
{
angle = 270;
pos = (450,470);
},
{
angle = 270;
pos = (256,470);
}
);
layerId = m003;
shapes = (
{
closed = 1;
nodes = (
(256,0,l),
(256,220,l),
(378,220,ls),
(562,220,o),
(663,322,o),
(663,470,cs),
(663,618,o),
(562,720,o),
(378,720,cs),
(52,720,l),
(52,0,l)
);
},
{
closed = 1;
nodes = (
(256,548,l),
(362,548,ls),
(424,548,o),
(460,530,o),
(460,470,cs),
(460,410,o),
(424,392,o),
(362,392,cs),
(256,392,l)
);
}
);
width = 685;
}
);
unicode = 80;
},
{
color = 4;
glyphname = Q;
lastChange = "2022-09-14 12:44:23 +0000";
layers = (
{
layerId = m01;
shapes = (
{
closed = 1;
nodes = (
(632,-84,l),
(544,37,l),
(644,103,o),
(692,227,o),
(692,360,cs),
(692,556,o),
(587,732,o),
(367,732,cs),
(147,732,o),
(42,556,o),
(42,360,cs),
(42,164,o),
(147,-12,o),
(367,-12,cs),
(424,-12,o),
(474,0,o),
(516,21,c),
(592,-84,l)
);
},
{
closed = 1;
nodes = (
(497,46,l),
(460,28,o),
(417,18,o),
(367,18,cs),
(167,18,o),
(75,180,o),
(75,360,cs),
(75,540,o),
(167,702,o),
(367,702,cs),
(567,702,o),
(659,540,o),
(659,360,cs),
(659,237,o),
(616,123,o),
(525,62,c),
(440,180,l),
(400,180,l)
);
}
);
width = 734;
},
{
layerId = m002;
shapes = (
{
closed = 1;
nodes = (
(674,-84,l),
(580,46,l),
(676,113,o),
(724,230,o),
(724,360,cs),
(724,560,o),
(609,732,o),
(381,732,cs),
(153,732,o),
(38,560,o),
(38,360,cs),
(38,160,o),
(153,-12,o),
(381,-12,cs),
(427,-12,o),
(468,-5,o),
(505,8,c),
(572,-84,l)
);
},
{
closed = 1;
nodes = (
(454,79,l),
(432,73,o),
(407,70,o),
(381,70,cs),
(209,70,o),
(130,202,o),
(130,360,cs),
(130,518,o),
(209,650,o),
(381,650,cs),
(553,650,o),
(632,518,o),
(632,360,cs),
(632,258,o),
(599,167,o),
(529,115,c),
(456,216,l),
(354,216,l)
);
}
);
width = 762;
},
{
layerId = m003;
shapes = (
{
closed = 1;
nodes = (
(724,-74,l),
(637,61,l),
(727,129,o),
(774,238,o),
(774,360,cs),
(774,566,o),
(640,732,o),
(398,732,cs),
(156,732,o),
(22,566,o),
(22,360,cs),
(22,154,o),
(156,-12,o),
(398,-12,cs),
(438,-12,o),
(474,-8,o),
(508,1,c),
(556,-74,l)
);
},
{
closed = 1;
nodes = (
(402,166,l),
(387,166,o),
(377,167,o),
(368,168,cs),
(271,182,o),
(234,265,o),
(234,360,cs),
(234,464,o),
(278,554,o),
(398,554,cs),
(518,554,o),
(562,464,o),
(562,360,cs),
(562,311,o),
(552,265,o),
(529,230,c),
(481,306,l),
(313,306,l)
);
}
);
width = 796;
}
);
locked = 1;
unicode = 81;
},
{
color = 4;
glyphname = R;
lastChange = "2022-09-14 12:45:01 +0000";
layers = (
{
anchors = (
{
name = top;
pos = (306,720);
}
);
guides = (
{
angle = 270;
pos = (543,527);
},
{
angle = 270;
pos = (68,527);
}
);
layerId = m01;
shapes = (
{
closed = 1;
nodes = (
(100,0,l),
(100,334,l),
(350,334,ls),
(479,334,o),
(504,275,o),
(518,192,cs),
(551,0,l),
(584,0,l),
(544,226,ls),
(535,280,o),
(506,330,o),
(434,348,c),
(531,376,o),
(576,441,o),
(576,527,cs),
(576,642,o),
(494,720,o),
(346,720,cs),
(68,720,l),
(68,0,l)
);
},
{
closed = 1;
nodes = (
(100,690,l),
(346,690,ls),
(472,690,o),
(543,626,o),
(543,527,cs),
(543,428,o),
(472,364,o),
(346,364,cs),
(100,364,l)
);
}
);
width = 616;
},
{
anchors = (
{
name = top;
pos = (318,720);
}
);
guides = (
{
angle = 270;
pos = (68,514);
},
{
angle = 270;
pos = (568,514);
}
);
layerId = m002;
shapes = (
{
closed = 1;
nodes = (
(156,0,l),
(156,308,l),
(370,308,ls),
(453,308,o),
(495,275,o),
(507,189,cs),
(533,0,l),
(624,0,l),
(590,226,ls),
(581,284,o),
(553,326,o),
(501,344,c),
(579,383,o),
(614,447,o),
(614,514,cs),
(614,640,o),
(536,720,o),
(366,720,cs),
(68,720,l),
(68,0,l)
);
},
{
closed = 1;
nodes = (
(156,640,l),
(366,640,ls),
(476,640,o),
(523,590,o),
(523,514,cs),
(523,438,o),
(476,388,o),
(366,388,cs),
(156,388,l)
);
}
);
width = 652;
},
{
anchors = (
{
name = top;
pos = (357,720);
}
);
guides = (
{
angle = 270;
pos = (459,480);
},
{
angle = 270;
pos = (256,480);
}
);
layerId = m003;
shapes = (
{
closed = 1;
nodes = (
(256,0,l),
(256,250,l),
(360,250,ls),
(421,250,o),
(449,215,o),
(459,150,cs),
(481,0,l),
(689,0,l),
(664,170,ls),
(654,234,o),
(630,285,o),
(564,320,c),
(630,362,o),
(673,422,o),
(673,500,cs),
(673,624,o),
(592,720,o),
(408,720,cs),
(52,720,l),
(52,0,l)
);
},
{
closed = 1;
nodes = (
(256,560,l),
(365,560,ls),
(427,560,o),
(463,540,o),
(463,480,cs),
(463,420,o),
(427,400,o),
(365,400,cs),
(256,400,l)
);
}
);
width = 707;
}
);
unicode = 82;
},
{
color = 4;
glyphname = S;
lastChange = "2022-09-07 10:20:03 +0000";
layers = (
{
anchors = (
{
name = bottom;
pos = (305,-12);
},
{
name = cedilla;
pos = (305,-12);
},
{
name = top;
pos = (305,732);
}
);
layerId = m01;
shapes = (
{
closed = 1;
nodes = (
(479,-12,o),
(574,71,o),
(574,185,cs),
(574,282,o),
(535,345,o),
(320,385,cs),
(130,420,o),
(93,466,o),
(93,553,cs),
(93,639,o),
(169,702,o),
(299,702,cs),
(430,702,o),
(516,636,o),
(520,505,c),
(553,505,l),
(550,643,o),
(458,732,o),
(299,732,cs),
(152,732,o),
(60,657,o),
(60,553,cs),
(60,449,o),
(113,390,o),
(306,356,cs),
(508,320,o),
(541,268,o),
(541,185,cs),
(541,88,o),
(462,18,o),
(318,18,cs),
(177,18,o),
(78,77,o),
(69,234,c),
(36,234,l),
(46,59,o),
(154,-12,o),
(318,-12,cs)
);
}
);
width = 606;
},
{
anchors = (
{
name = bottom;
pos = (315,-12);
},
{
name = cedilla;
pos = (315,-12);
},
{
name = top;
pos = (315,732);
}
);
layerId = m002;
shapes = (
{
closed = 1;
nodes = (
(491,-12,o),
(598,71,o),
(598,198,cs),
(598,301,o),
(549,366,o),
(339,410,cs),
(170,445,o),
(148,478,o),
(148,545,cs),
(148,611,o),
(209,652,o),
(301,652,cs),
(432,652,o),
(488,598,o),
(494,496,c),
(584,496,l),
(581,623,o),
(503,732,o),
(301,732,cs),
(163,732,o),
(57,660,o),
(57,545,cs),
(57,414,o),
(143,366,o),
(304,332,cs),
(471,296,o),
(507,264,o),
(507,198,cs),
(507,111,o),
(433,68,o),
(330,68,cs),
(224,68,o),
(128,110,o),
(123,242,c),
(32,242,l),
(38,62,o),
(169,-12,o),
(330,-12,cs)
);
}
);
width = 626;
},
{
anchors = (
{
name = bottom;
pos = (338,-12);
},
{
name = cedilla;
pos = (338,-12);
},
{
name = top;
pos = (338,732);
}
);
layerId = m003;
shapes = (
{
closed = 1;
nodes = (
(518,-12,o),
(659,60,o),
(659,220,cs),
(659,347,o),
(588,417,o),
(372,448,cs),
(261,464,o),
(236,489,o),
(236,520,cs),
(236,554,o),
(272,576,o),
(328,576,cs),
(400,576,o),
(440,550,o),
(443,484,c),
(635,484,l),
(627,652,o),
(511,732,o),
(328,732,cs),
(134,732,o),
(28,635,o),
(28,511,cs),
(28,382,o),
(105,305,o),
(302,276,cs),
(432,257,o),
(449,234,o),
(449,205,cs),
(449,168,o),
(409,144,o),
(348,144,cs),
(277,144,o),
(215,157,o),
(214,241,c),
(18,241,l),
(17,93,o),
(128,-12,o),
(338,-12,cs)
);
}
);
width = 677;
}
);
unicode = 83;
},
{
color = 5;
glyphname = Scedilla;
lastChange = "2022-09-14 14:07:31 +0000";
layers = (
{
layerId = m01;
shapes = (
{
closed = 1;
nodes = (
(353,-224,o),
(397,-199,o),
(397,-147,cs),
(397,-95,o),
(353,-73,o),
(282,-73,cs),
(276,-73,l),
(319,-12,l),
(479,-12,o),
(574,71,o),
(574,185,cs),
(574,282,o),
(535,345,o),
(320,385,cs),
(130,420,o),
(93,466,o),
(93,553,cs),
(93,639,o),
(169,702,o),
(299,702,cs),
(430,702,o),
(516,636,o),
(520,505,c),
(553,505,l),
(550,643,o),
(458,732,o),
(299,732,cs),
(152,732,o),
(60,657,o),
(60,553,cs),
(60,449,o),
(113,390,o),
(306,356,cs),
(508,320,o),
(541,268,o),
(541,185,cs),
(541,88,o),
(462,18,o),
(318,18,cs),
(177,18,o),
(78,77,o),
(69,234,c),
(36,234,l),
(45,69,o),
(142,-4,o),
(291,-11,c),
(249,-75,l),
(249,-96,l),
(257,-95,o),
(267,-94,o),
(275,-94,cs),
(338,-94,o),
(367,-111,o),
(367,-147,cs),
(367,-183,o),
(337,-201,o),
(275,-201,cs),
(256,-201,o),
(238,-199,o),
(219,-195,c),
(219,-217,l),
(241,-223,o),
(263,-224,o),
(285,-224,cs)
);
}
);
width = 606;
},
{
layerId = m002;
shapes = (
{
closed = 1;
nodes = (
(373,-236,o),
(415,-190,o),
(415,-140,cs),
(415,-90,o),
(373,-57,o),
(312,-57,cs),
(308,-57,l),
(350,-12,l),
(500,-5,o),
(598,76,o),
(598,198,cs),
(598,301,o),
(549,366,o),
(339,410,cs),
(170,445,o),
(148,478,o),
(148,545,cs),
(148,611,o),
(209,652,o),
(301,652,cs),
(432,652,o),
(488,598,o),
(494,496,c),
(584,496,l),
(581,623,o),
(503,732,o),
(301,732,cs),
(163,732,o),
(57,660,o),
(57,545,cs),
(57,414,o),
(143,366,o),
(304,332,cs),
(471,296,o),
(507,264,o),
(507,198,cs),
(507,111,o),
(433,68,o),
(330,68,cs),
(224,68,o),
(128,110,o),
(123,242,c),
(32,242,l),
(37,81,o),
(143,5,o),
(280,-10,c),
(242,-62,l),
(242,-103,l),
(252,-101,o),
(263,-101,o),
(273,-101,cs),
(315,-101,o),
(335,-114,o),
(335,-140,cs),
(335,-166,o),
(315,-184,o),
(263,-184,cs),
(251,-184,o),
(229,-182,o),
(207,-178,c),
(207,-228,l),
(232,-234,o),
(258,-236,o),
(283,-236,cs)
);
}
);
width = 626;
},
{
layerId = m003;
shapes = (
{
closed = 1;
nodes = (
(421,-236,o),
(470,-188,o),
(470,-136,cs),
(470,-84,o),
(421,-56,o),
(345,-56,cs),
(334,-56,l),
(377,-11,l),
(538,-1,o),
(659,72,o),
(659,220,cs),
(659,347,o),
(588,417,o),
(372,448,cs),
(261,464,o),
(236,489,o),
(236,520,cs),
(236,554,o),
(272,576,o),
(328,576,cs),
(400,576,o),
(440,550,o),
(443,484,c),
(635,484,l),
(627,652,o),
(511,732,o),
(328,732,cs),
(134,732,o),
(28,635,o),
(28,511,cs),
(28,382,o),
(105,305,o),
(302,276,cs),
(432,257,o),
(449,234,o),
(449,205,cs),
(449,168,o),
(409,144,o),
(348,144,cs),
(277,144,o),
(215,157,o),
(214,241,c),
(18,241,l),
(17,102,o),
(115,1,o),
(301,-11,c),
(261,-63,l),
(261,-103,l),
(271,-101,o),
(281,-101,o),
(291,-101,cs),
(331,-101,o),
(348,-114,o),
(348,-136,cs),
(348,-158,o),
(331,-172,o),
(283,-172,cs),
(269,-172,o),
(248,-170,o),
(226,-166,c),
(226,-228,l),
(251,-234,o),
(276,-236,o),
(301,-236,cs)
);
}
);
width = 677;
}
);
unicode = 350;
},
{
color = 4;
glyphname = T;
lastChange = "2022-09-14 12:45:01 +0000";
layers = (
{
anchors = (
{
name = cedilla;
pos = (309,0);
},
{
name = top;
pos = (308,720);
}
);
layerId = m01;
shapes = (
{
closed = 1;
nodes = (
(325,0,l),
(325,690,l),
(591,690,l),
(591,720,l),
(26,720,l),
(26,690,l),
(292,690,l),
(292,0,l)
);
}
);
width = 617;
},
{
anchors = (
{
name = cedilla;
pos = (308,0);
},
{
name = top;
pos = (309,720);
}
);
layerId = m002;
shapes = (
{
closed = 1;
nodes = (
(354,0,l),
(354,640,l),
(597,640,l),
(597,720,l),
(20,720,l),
(20,640,l),
(263,640,l),
(263,0,l)
);
}
);
width = 617;
},
{
anchors = (
{
name = cedilla;
pos = (323,0);
},
{
name = top;
pos = (323,720);
}
);
layerId = m003;
shapes = (
{
closed = 1;
nodes = (
(425,0,l),
(425,538,l),
(636,538,l),
(636,720,l),
(10,720,l),
(10,538,l),
(221,538,l),
(221,0,l)
);
}
);
width = 646;
}
);
unicode = 84;
},
{
color = 5;
glyphname = Tcedilla;
lastChange = "2022-09-14 14:07:31 +0000";
layers = (
{
layerId = m01;
shapes = (
{
closed = 1;
nodes = (
(357,-212,o),
(401,-187,o),
(401,-135,cs),
(401,-83,o),
(357,-61,o),
(286,-61,cs),
(280,-61,l),
(323,0,l),
(325,0,l),
(325,690,l),
(591,690,l),
(591,720,l),
(26,720,l),
(26,690,l),
(292,690,l),
(292,0,l),
(294,0,l),
(253,-63,l),
(253,-84,l),
(261,-83,o),
(271,-82,o),
(279,-82,cs),
(342,-82,o),
(371,-99,o),
(371,-135,cs),
(371,-171,o),
(341,-189,o),
(279,-189,cs),
(260,-189,o),
(242,-187,o),
(223,-183,c),
(223,-205,l),
(245,-211,o),
(267,-212,o),
(289,-212,cs)
);
}
);
width = 617;
},
{
layerId = m002;
shapes = (
{
closed = 1;
nodes = (
(366,-224,o),
(408,-178,o),
(408,-128,cs),
(408,-78,o),
(366,-45,o),
(305,-45,cs),
(301,-45,l),
(342,0,l),
(354,0,l),
(354,640,l),
(597,640,l),
(597,720,l),
(20,720,l),
(20,640,l),
(263,640,l),
(263,0,l),
(272,0,l),
(235,-50,l),
(235,-91,l),
(245,-89,o),
(256,-89,o),
(266,-89,cs),
(308,-89,o),
(328,-102,o),
(328,-128,cs),
(328,-154,o),
(308,-172,o),
(256,-172,cs),
(244,-172,o),
(222,-170,o),
(200,-166,c),
(200,-216,l),
(225,-222,o),
(251,-224,o),
(276,-224,cs)
);
}
);
width = 617;
},
{
layerId = m003;
shapes = (
{
closed = 1;
nodes = (
(406,-224,o),
(455,-176,o),
(455,-124,cs),
(455,-72,o),
(406,-44,o),
(330,-44,cs),
(319,-44,l),
(361,0,l),
(425,0,l),
(425,538,l),
(636,538,l),
(636,720,l),
(10,720,l),
(10,538,l),
(221,538,l),
(221,0,l),
(285,0,l),
(246,-51,l),
(246,-91,l),
(256,-89,o),
(266,-89,o),
(276,-89,cs),
(316,-89,o),
(333,-102,o),
(333,-124,cs),
(333,-146,o),
(316,-160,o),
(268,-160,cs),
(254,-160,o),
(233,-158,o),
(211,-154,c),
(211,-216,l),
(236,-222,o),
(261,-224,o),
(286,-224,cs)
);
}
);
width = 646;
}
);
unicode = 354;
},
{
color = 4;
glyphname = U;
lastChange = "2022-09-08 14:56:11 +0000";
layers = (
{
anchors = (
{
name = ogonek;
pos = (413,0);
},
{
name = top;
pos = (320,720);
}
);
layerId = m01;
shapes = (
{
closed = 1;
nodes = (
(474,-12,o),
(582,72,o),
(582,258,cs),
(582,720,l),
(550,720,l),
(550,258,ls),
(550,88,o),
(454,18,o),
(320,18,cs),
(186,18,o),
(90,88,o),
(90,258,cs),
(90,720,l),
(58,720,l),
(58,258,ls),
(58,72,o),
(166,-12,o),
(320,-12,cs)
);
}
);
width = 640;
},
{
anchors = (
{
name = ogonek;
pos = (438,0);
},
{
name = top;
pos = (340,720);
}
);
layerId = m002;
shapes = (
{
closed = 1;
nodes = (
(520,-12,o),
(622,89,o),
(622,269,cs),
(622,720,l),
(534,720,l),
(534,269,ls),
(534,129,o),
(464,68,o),
(340,68,cs),
(216,68,o),
(146,129,o),
(146,269,cs),
(146,720,l),
(58,720,l),
(58,269,ls),
(58,89,o),
(160,-12,o),
(340,-12,cs)
);
}
);
width = 680;
},
{
anchors = (
{
name = ogonek;
pos = (468,0);
},
{
name = top;
pos = (364,720);
}
);
layerId = m003;
shapes = (
{
closed = 1;
nodes = (
(544,-12,o),
(686,85,o),
(686,279,cs),
(686,720,l),
(482,720,l),
(482,279,ls),
(482,203,o),
(436,163,o),
(364,163,cs),
(292,163,o),
(246,203,o),
(246,279,cs),
(246,720,l),
(42,720,l),
(42,279,ls),
(42,85,o),
(184,-12,o),
(364,-12,cs)
);
}
);
width = 728;
}
);
unicode = 85;
},
{
color = 5;
glyphname = Uogonek;
lastChange = "2022-09-14 14:07:31 +0000";
layers = (
{
layerId = m01;
shapes = (
{
closed = 1;
nodes = (
(370,-212,o),
(392,-209,o),
(413,-199,c),
(413,-172,l),
(393,-181,o),
(375,-184,o),
(355,-184,cs),
(317,-184,o),
(288,-168,o),
(288,-130,cs),
(288,-92,o),
(335,-44,o),
(413,0,c),
(516,29,o),
(582,112,o),
(582,258,cs),
(582,720,l),
(550,720,l),
(550,258,ls),
(550,88,o),
(454,18,o),
(320,18,cs),
(186,18,o),
(90,88,o),
(90,258,cs),
(90,720,l),
(58,720,l),
(58,258,ls),
(58,50,o),
(196,-28,o),
(363,-10,c),
(301,-46,o),
(257,-87,o),
(257,-138,cs),
(257,-184,o),
(293,-212,o),
(349,-212,cs)
);
}
);
width = 640;
},
{
layerId = m002;
shapes = (
{
closed = 1;
nodes = (
(391,-212,o),
(415,-209,o),
(438,-201,c),
(438,-133,l),
(421,-139,o),
(405,-142,o),
(388,-142,cs),
(356,-142,o),
(334,-129,o),
(334,-99,cs),
(334,-69,o),
(372,-36,o),
(437,0,c),
(556,31,o),
(622,125,o),
(622,269,cs),
(622,720,l),
(534,720,l),
(534,269,ls),
(534,129,o),
(464,68,o),
(340,68,cs),
(216,68,o),
(146,129,o),
(146,269,cs),
(146,720,l),
(58,720,l),
(58,269,ls),
(58,91,o),
(158,-10,o),
(335,-12,c),
(292,-36,o),
(254,-71,o),
(254,-119,cs),
(254,-181,o),
(302,-212,o),
(368,-212,cs)
);
}
);
width = 680;
},
{
layerId = m003;
shapes = (
{
closed = 1;
nodes = (
(411,-212,o),
(445,-209,o),
(468,-202,c),
(468,-110,l),
(454,-114,o),
(440,-116,o),
(426,-116,cs),
(398,-116,o),
(376,-107,o),
(376,-83,cs),
(376,-59,o),
(394,-34,o),
(468,0,c),
(596,31,o),
(686,124,o),
(686,279,cs),
(686,720,l),
(482,720,l),
(482,279,ls),
(482,203,o),
(436,163,o),
(364,163,cs),
(292,163,o),
(246,203,o),
(246,279,cs),
(246,720,l),
(42,720,l),
(42,279,ls),
(42,102,o),
(160,6,o),
(317,-10,c),
(265,-39,o),
(242,-81,o),
(242,-114,cs),
(242,-186,o),
(306,-212,o),
(388,-212,cs)
);
}
);
width = 728;
}
);
unicode = 370;
},
{
color = 4;
glyphname = V;
lastChange = "2022-09-14 12:45:01 +0000";
layers = (
{
anchors = (
{
name = top;
pos = (321,720);
}
);
guides = (
{
angle = 90;
pos = (49,720);
},
{
angle = 90;
pos = (593,720);
}
);
layerId = m01;
shapes = (
{
closed = 1;
nodes = (
(339,0,l),
(628,720,l),
(593,720,l),
(321,36,l),
(49,720,l),
(14,720,l),
(303,0,l)
);
}
);
width = 642;
},
{
anchors = (
{
name = top;
pos = (340,720);
}
);
guides = (
{
angle = 90;
pos = (111,720);
},
{
angle = 90;
pos = (569,720);
}
);
layerId = m002;
shapes = (
{
closed = 1;
nodes = (
(388,0,l),
(662,720,l),
(569,720,l),
(340,99,l),
(111,720,l),
(18,720,l),
(292,0,l)
);
}
);
width = 680;
},
{
anchors = (
{
name = top;
pos = (378,720);
}
);
guides = (
{
angle = 90;
pos = (216,720);
},
{
angle = 90;
pos = (540,720);
}
);
layerId = m003;
shapes = (
{
closed = 1;
nodes = (
(500,0,l),
(758,720,l),
(540,720,l),
(382,175,l),
(216,720,l),
(-2,720,l),
(256,0,l)
);
}
);
width = 756;
}
);
unicode = 86;
},
{
color = 4;
glyphname = W;
lastChange = "2022-09-14 12:45:01 +0000";
layers = (
{
anchors = (
{
name = top;
pos = (498,720);
}
);
guides = (
{
angle = 90;
pos = (480,720);
},
{
angle = 90;
pos = (516,720);
}
);
layerId = m01;
shapes = (
{
closed = 1;
nodes = (
(287,0,l),
(498,675,l),
(709,0,l),
(745,0,l),
(982,720,l),
(948,720,l),
(727,45,l),
(516,720,l),
(480,720,l),
(269,45,l),
(48,720,l),
(14,720,l),
(251,0,l)
);
}
);
width = 996;
},
{
anchors = (
{
name = top;
pos = (491,720);
}
);
guides = (
{
angle = 90;
pos = (442,720);
},
{
angle = 90;
pos = (540,720);
}
);
layerId = m002;
shapes = (
{
closed = 1;
nodes = (
(325,0,l),
(491,601,l),
(657,0,l),
(755,0,l),
(964,720,l),
(872,720,l),
(706,130,l),
(540,720,l),
(442,720,l),
(276,130,l),
(110,720,l),
(18,720,l),
(227,0,l)
);
}
);
width = 982;
},
{
anchors = (
{
name = top;
pos = (512,720);
}
);
guides = (
{
angle = 90;
pos = (411,720);
},
{
angle = 90;
pos = (613,720);
}
);
layerId = m003;
shapes = (
{
closed = 1;
nodes = (
(426,0,l),
(512,439,l),
(598,0,l),
(828,0,l),
(1026,720,l),
(810,720,l),
(702,239,l),
(613,720,l),
(411,720,l),
(322,239,l),
(214,720,l),
(-2,720,l),
(196,0,l)
);
}
);
width = 1024;
}
);
unicode = 87;
},
{
color = 4;
glyphname = X;
lastChange = "2022-09-14 12:45:01 +0000";
layers = (
{
anchors = (
{
name = top;
pos = (314,720);
}
);
guides = (
{
angle = 90;
pos = (72,720);
},
{
angle = 90;
pos = (556,720);
}
);
layerId = m01;
shapes = (
{
closed = 1;
nodes = (
(51,0,l),
(314,349,l),
(576,0,l),
(614,0,l),
(333,374,l),
(593,720,l),
(556,720,l),
(314,399,l),
(72,720,l),
(34,720,l),
(295,373,l),
(14,0,l)
);
}
);
width = 628;
},
{
anchors = (
{
name = top;
pos = (327,720);
}
);
guides = (
{
angle = 90;
pos = (131,720);
},
{
angle = 90;
pos = (522,720);
}
);
layerId = m002;
shapes = (
{
closed = 1;
nodes = (
(117,0,l),
(325,296,l),
(532,0,l),
(635,0,l),
(376,370,l),
(621,720,l),
(522,720,l),
(327,441,l),
(131,720,l),
(28,720,l),
(275,367,l),
(18,0,l)
);
}
);
width = 653;
},
{
anchors = (
{
name = top;
pos = (354,720);
}
);
guides = (
{
angle = 90;
pos = (243,720);
},
{
angle = 90;
pos = (465,720);
}
);
layerId = m003;
shapes = (
{
closed = 1;
nodes = (
(228,0,l),
(352,190,l),
(475,0,l),
(710,0,l),
(469,372,l),
(695,720,l),
(465,720,l),
(354,549,l),
(243,720,l),
(8,720,l),
(237,368,l),
(-2,0,l)
);
}
);
width = 708;
}
);
unicode = 88;
},
{
color = 4;
glyphname = Y;
lastChange = "2022-09-14 12:45:01 +0000";
layers = (
{
anchors = (
{
name = top;
pos = (321,720);
}
);
guides = (
{
angle = 90;
pos = (52,720);
},
{
angle = 90;
pos = (590,720);
}
);
layerId = m01;
shapes = (
{
closed = 1;
nodes = (
(337,0,l),
(337,315,l),
(628,720,l),
(590,720,l),
(321,345,l),
(52,720,l),
(14,720,l),
(305,315,l),
(305,0,l)
);
}
);
width = 642;
},
{
anchors = (
{
name = top;
pos = (344,720);
}
);
guides = (
{
angle = 90;
pos = (119,720);
},
{
angle = 90;
pos = (568,720);
}
);
layerId = m002;
shapes = (
{
closed = 1;
nodes = (
(387,0,l),
(387,287,l),
(668,720,l),
(568,720,l),
(344,366,l),
(119,720,l),
(18,720,l),
(299,287,l),
(299,0,l)
);
}
);
width = 686;
},
{
anchors = (
{
name = top;
pos = (376,720);
}
);
guides = (
{
angle = 270;
pos = (1491,310);
},
{
angle = 90;
pos = (232,720);
},
{
angle = 90;
pos = (520,720);
}
);
layerId = m003;
shapes = (
{
closed = 1;
nodes = (
(478,0,l),
(478,279,l),
(744,720,l),
(520,720,l),
(376,463,l),
(232,720,l),
(-2,720,l),
(274,275,l),
(274,0,l)
);
}
);
width = 742;
}
);
unicode = 89;
},
{
color = 4;
glyphname = Z;
lastChange = "2022-09-14 12:45:01 +0000";
layers = (
{
anchors = (
{
name = top;
pos = (301,720);
}
);
layerId = m01;
shapes = (
{
closed = 1;
nodes = (
(556,0,l),
(556,30,l),
(200,30,l),
(69,28,l),
(552,691,l),
(552,720,l),
(50,720,l),
(50,690,l),
(384,690,l),
(515,692,l),
(32,29,l),
(32,0,l)
);
}
);
width = 588;
},
{
anchors = (
{
name = top;
pos = (312,720);
}
);
layerId = m002;
shapes = (
{
closed = 1;
nodes = (
(584,0,l),
(584,80,l),
(296,80,l),
(136,78,l),
(578,642,l),
(578,720,l),
(46,720,l),
(46,640,l),
(310,640,l),
(470,642,l),
(28,78,l),
(28,0,l)
);
}
);
width = 612;
},
{
anchors = (
{
name = top;
pos = (339,720);
}
);
layerId = m003;
shapes = (
{
closed = 1;
nodes = (
(644,0,l),
(644,182,l),
(490,182,l),
(293,179,l),
(640,568,l),
(640,720,l),
(38,720,l),
(38,538,l),
(178,538,l),
(368,541,l),
(28,160,l),
(28,0,l)
);
}
);
width = 672;
}
);
unicode = 90;
},
{
color = 6;
glyphname = G.ss06;
lastChange = "2022-09-15 15:32:00 +0000";
layers = (
{
anchors = (
{
name = top;
pos = (367,732);
}
);
guides = (
{
pos = (367,477);
},
{
pos = (367,361);
}
);
layerId = m01;
shapes = (
{
closed = 1;
nodes = (
(581,-12,o),
(686,155,o),
(683,341,cs),
(683,348,o),
(683,354,o),
(682,361,c),
(337,361,l),
(337,331,l),
(650,331,l),
(650,168,o),
(560,18,o),
(367,18,cs),
(167,18,o),
(75,180,o),
(75,360,cs),
(75,540,o),
(167,702,o),
(367,702,cs),
(522,702,o),
(610,605,o),
(643,477,c),
(676,477,l),
(641,621,o),
(542,732,o),
(367,732,cs),
(147,732,o),
(42,556,o),
(42,360,cs),
(42,164,o),
(147,-12,o),
(367,-12,cs)
);
}
);
width = 725;
},
{
anchors = (
{
name = top;
pos = (381,732);
}
);
guides = (
{
pos = (381,479);
},
{
pos = (381,385);
}
);
layerId = m002;
shapes = (
{
closed = 1;
nodes = (
(609,-12,o),
(717,160,o),
(717,360,cs),
(717,368,o),
(717,377,o),
(716,385,c),
(351,385,l),
(351,305,l),
(625,305,l),
(610,173,o),
(536,70,o),
(381,70,cs),
(209,70,o),
(130,202,o),
(130,360,cs),
(130,518,o),
(209,650,o),
(381,650,cs),
(507,650,o),
(583,579,o),
(614,479,c),
(705,479,l),
(668,624,o),
(562,732,o),
(381,732,cs),
(153,732,o),
(38,560,o),
(38,360,cs),
(38,160,o),
(153,-12,o),
(381,-12,cs)
);
}
);
width = 755;
},
{
anchors = (
{
name = top;
pos = (398,732);
}
);
guides = (
{
pos = (398,474);
},
{
pos = (398,414);
}
);
layerId = m003;
shapes = (
{
closed = 1;
nodes = (
(640,-12,o),
(762,154,o),
(762,360,cs),
(762,378,o),
(761,396,o),
(759,414,c),
(368,414,l),
(368,258,l),
(544,258,l),
(521,203,o),
(475,166,o),
(398,166,cs),
(278,166,o),
(234,256,o),
(234,360,cs),
(234,464,o),
(278,554,o),
(398,554,cs),
(469,554,o),
(520,522,o),
(544,474,c),
(750,474,l),
(712,624,o),
(593,732,o),
(398,732,cs),
(156,732,o),
(22,566,o),
(22,360,cs),
(22,154,o),
(156,-12,o),
(398,-12,cs)
);
}
);
width = 784;
}
);
},
{
color = 6;
glyphname = J.ss07;
lastChange = "2022-09-15 15:31:39 +0000";
layers = (
{
anchors = (
{
name = top;
pos = (266,720);
}
);
guides = (
{
angle = 90;
pos = (250,720);
},
{
angle = 90;
pos = (282,720);
}
);
layerId = m01;
shapes = (
{
closed = 1;
nodes = (
(138,0,ls),
(252,0,o),
(282,78,o),
(282,162,cs),
(282,720,l),
(250,720,l),
(250,162,ls),
(250,88,o),
(222,30,o),
(138,30,cs),
(48,30,l),
(48,0,l)
);
}
);
width = 340;
},
{
anchors = (
{
name = top;
pos = (270,720);
}
);
guides = (
{
angle = 90;
pos = (226,720);
},
{
angle = 90;
pos = (314,720);
}
);
layerId = m002;
shapes = (
{
closed = 1;
nodes = (
(130,0,ls),
(260,0,o),
(314,62,o),
(314,192,cs),
(314,720,l),
(226,720,l),
(226,208,ls),
(226,118,o),
(204,80,o),
(114,80,cs),
(32,80,l),
(32,0,l)
);
}
);
width = 372;
},
{
anchors = (
{
name = top;
pos = (309,720);
}
);
guides = (
{
angle = 90;
pos = (207,720);
},
{
angle = 90;
pos = (411,720);
}
);
layerId = m003;
shapes = (
{
closed = 1;
nodes = (
(196,0,ls),
(310,0,o),
(411,49,o),
(411,219,cs),
(411,720,l),
(207,720,l),
(207,239,ls),
(207,179,o),
(181,156,o),
(121,156,cs),
(22,156,l),
(22,0,l)
);
}
);
width = 453;
}
);
},
{
color = 6;
glyphname = R.ss08;
lastChange = "2022-09-15 15:32:37 +0000";
layers = (
{
anchors = (
{
name = top;
pos = (306,720);
}
);
guides = (
{
angle = 270;
pos = (543,514);
},
{
angle = 270;
pos = (68,514);
}
);
layerId = m01;
shapes = (
{
closed = 1;
nodes = (
(100,0,l),
(100,308,l),
(359,308,l),
(558,-1,l),
(596,-1,l),
(393,311,l),
(511,328,o),
(576,409,o),
(576,514,cs),
(576,632,o),
(494,720,o),
(346,720,cs),
(68,720,l),
(68,0,l)
);
},
{
closed = 1;
nodes = (
(100,690,l),
(346,690,ls),
(472,690,o),
(543,616,o),
(543,514,cs),
(543,412,o),
(472,338,o),
(346,338,cs),
(100,338,l)
);
}
);
width = 622;
},
{
anchors = (
{
name = top;
pos = (318,720);
}
);
guides = (
{
angle = 270;
pos = (68,499);
},
{
angle = 270;
pos = (568,499);
}
);
layerId = m002;
shapes = (
{
closed = 1;
nodes = (
(156,0,l),
(156,278,l),
(337,278,l),
(530,0,l),
(634,0,l),
(435,284,l),
(557,308,o),
(614,397,o),
(614,499,cs),
(614,619,o),
(536,720,o),
(366,720,cs),
(68,720,l),
(68,0,l)
);
},
{
closed = 1;
nodes = (
(156,640,l),
(366,640,ls),
(476,640,o),
(523,579,o),
(523,499,cs),
(523,419,o),
(476,358,o),
(366,358,cs),
(156,358,l)
);
}
);
width = 648;
},
{
anchors = (
{
name = top;
pos = (358,720);
}
);
guides = (
{
angle = 270;
pos = (460,480);
},
{
angle = 270;
pos = (256,480);
}
);
layerId = m003;
shapes = (
{
closed = 1;
nodes = (
(256,0,l),
(256,240,l),
(345,240,l),
(477,0,l),
(703,0,l),
(535,275,l),
(620,315,o),
(673,386,o),
(673,480,cs),
(673,618,o),
(572,720,o),
(388,720,cs),
(52,720,l),
(52,0,l)
);
},
{
closed = 1;
nodes = (
(256,558,l),
(372,558,ls),
(434,558,o),
(470,540,o),
(470,480,cs),
(470,420,o),
(434,402,o),
(372,402,cs),
(256,402,l)
);
}
);
width = 703;
}
);
locked = 1;
},
{
color = 4;
glyphname = a;
lastChange = "2022-09-14 12:46:11 +0000";
layers = (
{
anchors = (
{
name = ogonek;
pos = (434,0);
},
{
name = top;
pos = (242,520);
}
);
layerId = m01;
shapes = (
{
closed = 1;
nodes = (
(284,-12,o),
(362,26,o),
(403,112,c),
(403,0,l),
(434,0,l),
(434,384,ls),
(434,476,o),
(372,532,o),
(252,532,cs),
(142,532,o),
(50,476,o),
(50,360,c),
(82,360,l),
(82,464,o),
(162,502,o),
(252,502,cs),
(352,502,o),
(403,464,o),
(403,380,cs),
(403,333,l),
(216,291,ls),
(82,261,o),
(28,218,o),
(28,134,cs),
(28,51,o),
(84,-12,o),
(194,-12,cs)
);
},
{
closed = 1;
nodes = (
(104,18,o),
(60,68,o),
(60,135,cs),
(60,209,o),
(110,237,o),
(220,263,cs),
(403,306,l),
(403,228,ls),
(403,86,o),
(312,18,o),
(195,18,cs)
);
}
);
width = 478;
},
{
anchors = (
{
name = ogonek;
pos = (464,0);
},
{
name = top;
pos = (257,520);
}
);
layerId = m002;
shapes = (
{
closed = 1;
nodes = (
(281,-12,o),
(341,7,o),
(386,65,c),
(386,0,l),
(464,0,l),
(464,382,ls),
(464,474,o),
(402,532,o),
(268,532,cs),
(158,532,o),
(54,486,o),
(50,360,c),
(134,360,l),
(138,439,o),
(206,458,o),
(268,458,cs),
(340,458,o),
(382,436,o),
(382,374,cs),
(382,334,l),
(219,303,ls),
(103,281,o),
(32,233,o),
(32,141,cs),
(32,43,o),
(103,-12,o),
(220,-12,cs)
);
},
{
closed = 1;
nodes = (
(150,62,o),
(119,95,o),
(119,143,cs),
(119,202,o),
(164,218,o),
(231,232,cs),
(382,263,l),
(382,206,ls),
(382,105,o),
(300,62,o),
(224,62,cs)
);
}
);
width = 512;
},
{
anchors = (
{
name = ogonek;
pos = (553,0);
},
{
name = top;
pos = (301,520);
}
);
layerId = m003;
shapes = (
{
closed = 1;
nodes = (
(280,-12,o),
(330,4,o),
(373,51,c),
(373,0,l),
(553,0,l),
(553,369,ls),
(553,469,o),
(469,532,o),
(301,532,cs),
(153,532,o),
(49,466,o),
(49,346,c),
(235,346,l),
(235,370,o),
(253,400,o),
(303,400,cs),
(363,400,o),
(369,370,o),
(369,346,cs),
(369,332,l),
(236,311,ls),
(74,285,o),
(18,244,o),
(18,151,cs),
(18,45,o),
(102,-12,o),
(210,-12,cs)
);
},
{
closed = 1;
nodes = (
(233,110,o),
(209,128,o),
(209,158,cs),
(209,188,o),
(228,199,o),
(276,208,cs),
(369,226,l),
(369,195,ls),
(369,133,o),
(326,110,o),
(273,110,cs)
);
}
);
width = 583;
}
);
unicode = 97;
},
{
color = 5;
glyphname = aogonek;
lastChange = "2022-09-14 14:11:41 +0000";
layers = (
{
layerId = m01;
shapes = (
{
closed = 1;
nodes = (
(391,-212,o),
(413,-209,o),
(434,-199,c),
(434,-172,l),
(414,-181,o),
(396,-184,o),
(376,-184,cs),
(338,-184,o),
(309,-168,o),
(309,-130,cs),
(309,-92,o),
(356,-44,o),
(434,0,c),
(434,384,ls),
(434,476,o),
(372,532,o),
(252,532,cs),
(142,532,o),
(50,476,o),
(50,360,c),
(82,360,l),
(82,464,o),
(162,502,o),
(252,502,cs),
(352,502,o),
(403,464,o),
(403,380,cs),
(403,333,l),
(216,291,ls),
(82,261,o),
(28,218,o),
(28,134,cs),
(28,51,o),
(84,-12,o),
(194,-12,cs),
(284,-12,o),
(362,26,o),
(403,112,c),
(403,0,l),
(404,0,l),
(332,-39,o),
(278,-82,o),
(278,-138,cs),
(278,-184,o),
(314,-212,o),
(370,-212,cs)
);
},
{
closed = 1;
nodes = (
(104,18,o),
(60,68,o),
(60,135,cs),
(60,209,o),
(110,237,o),
(220,263,cs),
(403,306,l),
(403,228,ls),
(403,86,o),
(312,18,o),
(195,18,cs)
);
}
);
width = 478;
},
{
layerId = m002;
shapes = (
{
closed = 1;
nodes = (
(417,-212,o),
(441,-209,o),
(464,-201,c),
(464,-133,l),
(447,-139,o),
(431,-142,o),
(414,-142,cs),
(382,-142,o),
(360,-129,o),
(360,-99,cs),
(360,-69,o),
(398,-36,o),
(464,0,c),
(464,382,ls),
(464,474,o),
(402,532,o),
(268,532,cs),
(158,532,o),
(54,486,o),
(50,360,c),
(134,360,l),
(138,439,o),
(206,458,o),
(268,458,cs),
(340,458,o),
(382,436,o),
(382,374,cs),
(382,334,l),
(219,303,ls),
(103,281,o),
(32,233,o),
(32,141,cs),
(32,43,o),
(103,-12,o),
(220,-12,cs),
(281,-12,o),
(341,7,o),
(386,65,c),
(386,0,l),
(387,0,l),
(334,-23,o),
(280,-62,o),
(280,-119,cs),
(280,-181,o),
(328,-212,o),
(394,-212,cs)
);
},
{
closed = 1;
nodes = (
(150,62,o),
(119,95,o),
(119,143,cs),
(119,202,o),
(164,218,o),
(231,232,cs),
(382,263,l),
(382,206,ls),
(382,105,o),
(300,62,o),
(224,62,cs)
);
}
);
width = 512;
},
{
layerId = m003;
shapes = (
{
closed = 1;
nodes = (
(496,-212,o),
(530,-209,o),
(553,-202,c),
(553,-110,l),
(539,-114,o),
(525,-116,o),
(511,-116,cs),
(483,-116,o),
(461,-107,o),
(461,-83,cs),
(461,-59,o),
(479,-34,o),
(553,0,c),
(553,369,ls),
(553,469,o),
(469,532,o),
(301,532,cs),
(153,532,o),
(49,466,o),
(49,346,c),
(235,346,l),
(235,370,o),
(253,400,o),
(303,400,cs),
(363,400,o),
(369,370,o),
(369,346,cs),
(369,332,l),
(236,311,ls),
(74,285,o),
(18,244,o),
(18,151,cs),
(18,45,o),
(102,-12,o),
(210,-12,cs),
(280,-12,o),
(330,4,o),
(373,51,c),
(373,0,l),
(421,0,l),
(356,-29,o),
(327,-77,o),
(327,-114,cs),
(327,-186,o),
(391,-212,o),
(473,-212,cs)
);
},
{
closed = 1;
nodes = (
(233,110,o),
(209,128,o),
(209,158,cs),
(209,188,o),
(228,199,o),
(276,208,cs),
(369,226,l),
(369,195,ls),
(369,133,o),
(326,110,o),
(273,110,cs)
);
}
);
width = 583;
}
);
unicode = 261;
},
{
color = 4;
glyphname = b;
lastChange = "2022-09-14 12:46:32 +0000";
layers = (
{
anchors = (
{
name = top;
pos = (78,720);
}
);
guides = (
{
angle = 270;
pos = (94,720);
},
{
angle = 270;
pos = (62,720);
},
{
angle = 270;
pos = (520,720);
}
);
layerId = m01;
shapes = (
{
closed = 1;
nodes = (
(441,-12,o),
(520,110,o),
(520,260,cs),
(520,410,o),
(441,532,o),
(290,532,cs),
(195,532,o),
(128,478,o),
(94,398,c),
(94,720,l),
(62,720,l),
(62,0,l),
(93,0,l),
(93,125,l),
(127,43,o),
(194,-12,o),
(290,-12,cs)
);
},
{
closed = 1;
nodes = (
(159,18,o),
(92,128,o),
(92,260,cs),
(92,392,o),
(159,502,o),
(290,502,cs),
(421,502,o),
(488,392,o),
(488,260,cs),
(488,128,o),
(421,18,o),
(290,18,cs)
);
}
);
width = 562;
},
{
anchors = (
{
name = top;
pos = (104,720);
}
);
guides = (
{
angle = 270;
pos = (62,720);
},
{
angle = 270;
pos = (146,720);
},
{
angle = 270;
pos = (560,720);
}
);
layerId = m002;
shapes = (
{
closed = 1;
nodes = (
(474,-12,o),
(560,104,o),
(560,260,cs),
(560,416,o),
(474,532,o),
(318,532,cs),
(241,532,o),
(183,500,o),
(146,446,c),
(146,720,l),
(62,720,l),
(62,0,l),
(142,0,l),
(142,80,l),
(179,23,o),
(238,-12,o),
(318,-12,cs)
);
},
{
closed = 1;
nodes = (
(198,64,o),
(144,146,o),
(144,260,cs),
(144,374,o),
(198,456,o),
(308,456,cs),
(418,456,o),
(472,374,o),
(472,260,cs),
(472,146,o),
(418,64,o),
(308,64,cs)
);
}
);
width = 598;
},
{
anchors = (
{
name = top;
pos = (136,720);
}
);
guides = (
{
angle = 270;
pos = (42,720);
},
{
angle = 270;
pos = (230,720);
},
{
angle = 270;
pos = (593,720);
}
);
layerId = m003;
shapes = (
{
closed = 1;
nodes = (
(517,-12,o),
(593,106,o),
(593,260,cs),
(593,414,o),
(517,532,o),
(373,532,cs),
(309,532,o),
(262,509,o),
(230,469,c),
(230,720,l),
(42,720,l),
(42,0,l),
(225,0,l),
(225,58,l),
(257,14,o),
(305,-12,o),
(373,-12,cs)
);
},
{
closed = 1;
nodes = (
(252,136,o),
(228,182,o),
(228,260,cs),
(228,338,o),
(252,384,o),
(316,384,cs),
(380,384,o),
(404,338,o),
(404,260,cs),
(404,182,o),
(380,136,o),
(316,136,cs)
);
}
);
width = 615;
}
);
unicode = 98;
},
{
color = 4;
glyphname = c;
lastChange = "2022-09-07 10:20:37 +0000";
layers = (
{
anchors = (
{
name = bottom;
pos = (273,0);
},
{
name = cedilla;
pos = (273,-12);
},
{
name = top;
pos = (273,520);
}
);
guides = (
{
pos = (273,354);
},
{
pos = (273,178);
}
);
layerId = m01;
shapes = (
{
closed = 1;
nodes = (
(387,-12,o),
(464,69,o),
(482,178,c),
(450,178,l),
(433,86,o),
(368,18,o),
(273,18,cs),
(141,18,o),
(74,128,o),
(74,260,cs),
(74,392,o),
(141,502,o),
(273,502,cs),
(364,502,o),
(428,439,o),
(447,354,c),
(479,354,l),
(458,457,o),
(383,532,o),
(273,532,cs),
(121,532,o),
(42,410,o),
(42,260,cs),
(42,110,o),
(121,-12,o),
(273,-12,cs)
);
}
);
width = 514;
},
{
anchors = (
{
name = bottom;
pos = (284,0);
},
{
name = cedilla;
pos = (284,-12);
},
{
name = top;
pos = (284,520);
}
);
guides = (
{
pos = (284,344);
},
{
pos = (284,178);
}
);
layerId = m002;
shapes = (
{
closed = 1;
nodes = (
(403,-12,o),
(492,65,o),
(507,178,c),
(420,178,l),
(407,108,o),
(357,64,o),
(284,64,cs),
(184,64,o),
(130,146,o),
(130,260,cs),
(130,374,o),
(184,456,o),
(284,456,cs),
(357,456,o),
(406,413,o),
(420,344,c),
(507,344,l),
(491,456,o),
(412,532,o),
(284,532,cs),
(138,532,o),
(42,416,o),
(42,260,cs),
(42,104,o),
(138,-12,o),
(284,-12,cs)
);
}
);
width = 539;
},
{
anchors = (
{
name = bottom;
pos = (297,0);
},
{
name = cedilla;
pos = (297,-12);
},
{
name = top;
pos = (297,520);
}
);
guides = (
{
pos = (297,319);
},
{
pos = (297,213);
}
);
layerId = m003;
shapes = (
{
closed = 1;
nodes = (
(467,-12,o),
(549,82,o),
(565,213,c),
(380,213,l),
(373,163,o),
(346,136,o),
(297,136,cs),
(234,136,o),
(210,182,o),
(210,260,cs),
(210,338,o),
(234,384,o),
(297,384,cs),
(341,384,o),
(371,361,o),
(380,319,c),
(565,319,l),
(549,444,o),
(462,532,o),
(297,532,cs),
(118,532,o),
(22,414,o),
(22,260,cs),
(22,106,o),
(118,-12,o),
(297,-12,cs)
);
}
);
width = 577;
}
);
unicode = 99;
},
{
color = 5;
glyphname = ccedilla;
lastChange = "2022-09-14 14:11:07 +0000";
layers = (
{
layerId = m01;
shapes = (
{
closed = 1;
nodes = (
(321,-224,o),
(365,-199,o),
(365,-147,cs),
(365,-95,o),
(321,-73,o),
(250,-73,cs),
(244,-73,l),
(287,-12,l),
(393,-5,o),
(465,73,o),
(482,178,c),
(450,178,l),
(433,86,o),
(368,18,o),
(273,18,cs),
(141,18,o),
(74,128,o),
(74,260,cs),
(74,392,o),
(141,502,o),
(273,502,cs),
(364,502,o),
(428,439,o),
(447,354,c),
(479,354,l),
(458,457,o),
(383,532,o),
(273,532,cs),
(121,532,o),
(42,410,o),
(42,260,cs),
(42,115,o),
(116,-4,o),
(258,-12,c),
(217,-75,l),
(217,-96,l),
(225,-95,o),
(235,-94,o),
(243,-94,cs),
(306,-94,o),
(335,-111,o),
(335,-147,cs),
(335,-183,o),
(305,-201,o),
(243,-201,cs),
(224,-201,o),
(206,-199,o),
(187,-195,c),
(187,-217,l),
(209,-223,o),
(231,-224,o),
(253,-224,cs)
);
}
);
width = 514;
},
{
layerId = m002;
shapes = (
{
closed = 1;
nodes = (
(342,-236,o),
(384,-190,o),
(384,-140,cs),
(384,-90,o),
(342,-57,o),
(281,-57,cs),
(277,-57,l),
(321,-9,l),
(421,5,o),
(494,77,o),
(507,178,c),
(420,178,l),
(407,108,o),
(357,64,o),
(284,64,cs),
(184,64,o),
(130,146,o),
(130,260,cs),
(130,374,o),
(184,456,o),
(284,456,cs),
(357,456,o),
(406,413,o),
(420,344,c),
(507,344,l),
(491,456,o),
(412,532,o),
(284,532,cs),
(138,532,o),
(42,416,o),
(42,260,cs),
(42,117,o),
(123,7,o),
(249,-10,c),
(211,-62,l),
(211,-103,l),
(221,-101,o),
(232,-101,o),
(242,-101,cs),
(284,-101,o),
(304,-114,o),
(304,-140,cs),
(304,-166,o),
(284,-184,o),
(232,-184,cs),
(220,-184,o),
(198,-182,o),
(176,-178,c),
(176,-228,l),
(201,-234,o),
(227,-236,o),
(252,-236,cs)
);
}
);
width = 539;
},
{
layerId = m003;
shapes = (
{
closed = 1;
nodes = (
(380,-236,o),
(429,-188,o),
(429,-136,cs),
(429,-84,o),
(380,-56,o),
(304,-56,cs),
(293,-56,l),
(337,-10,l),
(480,4,o),
(550,93,o),
(565,213,c),
(380,213,l),
(373,163,o),
(346,136,o),
(297,136,cs),
(234,136,o),
(210,182,o),
(210,260,cs),
(210,338,o),
(234,384,o),
(297,384,cs),
(341,384,o),
(371,361,o),
(380,319,c),
(565,319,l),
(549,444,o),
(462,532,o),
(297,532,cs),
(118,532,o),
(22,414,o),
(22,260,cs),
(22,117,o),
(105,5,o),
(261,-10,c),
(220,-63,l),
(220,-103,l),
(230,-101,o),
(240,-101,o),
(250,-101,cs),
(290,-101,o),
(307,-114,o),
(307,-136,cs),
(307,-158,o),
(290,-172,o),
(242,-172,cs),
(228,-172,o),
(207,-170,o),
(185,-166,c),
(185,-228,l),
(210,-234,o),
(235,-236,o),
(260,-236,cs)
);
}
);
width = 577;
}
);
unicode = 231;
},
{
color = 5;
glyphname = dcroat;
lastChange = "2022-09-14 14:11:07 +0000";
layers = (
{
layerId = m01;
shapes = (
{
closed = 1;
nodes = (
(368,-12,o),
(435,43,o),
(469,125,c),
(469,0,l),
(500,0,l),
(500,608,l),
(594,608,l),
(594,636,l),
(500,636,l),
(500,720,l),
(468,720,l),
(468,636,l),
(332,636,l),
(332,608,l),
(468,608,l),
(468,398,l),
(434,478,o),
(367,532,o),
(272,532,cs),
(121,532,o),
(42,410,o),
(42,260,cs),
(42,110,o),
(121,-12,o),
(272,-12,cs)
);
},
{
closed = 1;
nodes = (
(141,18,o),
(74,128,o),
(74,260,cs),
(74,392,o),
(141,502,o),
(272,502,cs),
(403,502,o),
(470,392,o),
(470,260,cs),
(470,128,o),
(403,18,o),
(272,18,cs)
);
}
);
width = 594;
},
{
layerId = m002;
shapes = (
{
closed = 1;
nodes = (
(360,-12,o),
(419,23,o),
(456,80,c),
(456,0,l),
(536,0,l),
(536,587,l),
(624,587,l),
(624,657,l),
(536,657,l),
(536,720,l),
(452,720,l),
(452,657,l),
(338,657,l),
(338,587,l),
(452,587,l),
(452,446,l),
(415,500,o),
(357,532,o),
(280,532,cs),
(124,532,o),
(38,416,o),
(38,260,cs),
(38,104,o),
(124,-12,o),
(280,-12,cs)
);
},
{
closed = 1;
nodes = (
(180,64,o),
(126,146,o),
(126,260,cs),
(126,374,o),
(180,456,o),
(290,456,cs),
(400,456,o),
(454,374,o),
(454,260,cs),
(454,146,o),
(400,64,o),
(290,64,cs)
);
}
);
width = 624;
},
{
layerId = m003;
shapes = (
{
closed = 1;
nodes = (
(310,-12,o),
(358,14,o),
(390,58,c),
(390,0,l),
(573,0,l),
(573,573,l),
(658,573,l),
(658,671,l),
(573,671,l),
(573,720,l),
(385,720,l),
(385,671,l),
(292,671,l),
(292,573,l),
(385,573,l),
(385,469,l),
(353,509,o),
(306,532,o),
(242,532,cs),
(98,532,o),
(22,414,o),
(22,260,cs),
(22,106,o),
(98,-12,o),
(242,-12,cs)
);
},
{
closed = 1;
nodes = (
(235,136,o),
(211,182,o),
(211,260,cs),
(211,338,o),
(235,384,o),
(299,384,cs),
(363,384,o),
(387,338,o),
(387,260,cs),
(387,182,o),
(363,136,o),
(299,136,cs)
);
}
);
width = 658;
}
);
unicode = 273;
},
{
color = 4;
glyphname = e;
lastChange = "2022-09-14 12:46:11 +0000";
layers = (
{
anchors = (
{
name = cedilla;
pos = (270,-12);
},
{
name = ogonek;
pos = (346,0);
},
{
name = top;
pos = (270,520);
}
);
guides = (
{
pos = (270,251);
},
{
pos = (270,173);
}
);
layerId = m01;
shapes = (
{
closed = 1;
nodes = (
(389,-12,o),
(464,64,o),
(490,173,c),
(459,173,l),
(435,82,o),
(369,18,o),
(270,18,cs),
(144,18,o),
(77,123,o),
(74,251,c),
(498,251,l),
(498,260,ls),
(498,410,o),
(419,532,o),
(270,532,cs),
(121,532,o),
(42,410,o),
(42,260,cs),
(42,110,o),
(121,-12,o),
(270,-12,cs)
);
},
{
closed = 1;
nodes = (
(81,403,o),
(148,502,o),
(270,502,cs),
(392,502,o),
(459,403,o),
(465,281,c),
(75,281,l)
);
}
);
width = 540;
},
{
anchors = (
{
name = cedilla;
pos = (281,-12);
},
{
name = ogonek;
pos = (360,0);
},
{
name = top;
pos = (281,520);
}
);
guides = (
{
pos = (281,230);
},
{
pos = (281,158);
}
);
layerId = m002;
shapes = (
{
closed = 1;
nodes = (
(394,-12,o),
(480,55,o),
(513,158,c),
(426,158,l),
(402,99,o),
(349,64,o),
(281,64,cs),
(189,64,o),
(136,132,o),
(127,230,c),
(524,230,l),
(524,260,ls),
(524,416,o),
(428,532,o),
(281,532,cs),
(134,532,o),
(38,416,o),
(38,260,cs),
(38,104,o),
(134,-12,o),
(281,-12,cs)
);
},
{
closed = 1;
nodes = (
(142,395,o),
(194,456,o),
(281,456,cs),
(368,456,o),
(420,395,o),
(433,306,c),
(129,306,l)
);
}
);
width = 562;
},
{
anchors = (
{
name = cedilla;
pos = (300,-12);
},
{
name = ogonek;
pos = (395,0);
},
{
name = top;
pos = (300,520);
}
);
guides = (
{
pos = (300,205);
},
{
pos = (300,161);
}
);
layerId = m003;
shapes = (
{
closed = 1;
nodes = (
(442,-12,o),
(536,58,o),
(570,161,c),
(393,161,l),
(375,135,o),
(351,122,o),
(300,122,cs),
(249,122,o),
(215,151,o),
(202,205,c),
(578,205,l),
(578,235,ls),
(578,424,o),
(482,532,o),
(300,532,cs),
(118,532,o),
(22,414,o),
(22,260,cs),
(22,106,o),
(118,-12,o),
(300,-12,cs)
);
},
{
closed = 1;
nodes = (
(216,369,o),
(250,398,o),
(300,398,cs),
(350,398,o),
(384,369,o),
(397,317,c),
(203,317,l)
);
}
);
width = 600;
}
);
unicode = 101;
},
{
color = 5;
glyphname = ecedilla;
lastChange = "2022-09-14 14:11:07 +0000";
layers = (
{
layerId = m01;
shapes = (
{
closed = 1;
nodes = (
(318,-224,o),
(362,-199,o),
(362,-147,cs),
(362,-95,o),
(318,-73,o),
(247,-73,cs),
(241,-73,l),
(284,-12,l),
(395,-6,o),
(465,68,o),
(490,173,c),
(459,173,l),
(435,82,o),
(369,18,o),
(270,18,cs),
(144,18,o),
(77,123,o),
(74,251,c),
(498,251,l),
(498,260,ls),
(498,410,o),
(419,532,o),
(270,532,cs),
(121,532,o),
(42,410,o),
(42,260,cs),
(42,115,o),
(116,-4,o),
(255,-12,c),
(214,-75,l),
(214,-96,l),
(222,-95,o),
(232,-94,o),
(240,-94,cs),
(303,-94,o),
(332,-111,o),
(332,-147,cs),
(332,-183,o),
(302,-201,o),
(240,-201,cs),
(221,-201,o),
(203,-199,o),
(184,-195,c),
(184,-217,l),
(206,-223,o),
(228,-224,o),
(250,-224,cs)
);
},
{
closed = 1;
nodes = (
(81,403,o),
(148,502,o),
(270,502,cs),
(392,502,o),
(459,403,o),
(465,281,c),
(75,281,l)
);
}
);
width = 540;
},
{
layerId = m002;
shapes = (
{
closed = 1;
nodes = (
(339,-236,o),
(381,-190,o),
(381,-140,cs),
(381,-90,o),
(339,-57,o),
(278,-57,cs),
(274,-57,l),
(318,-10,l),
(413,3,o),
(484,66,o),
(513,158,c),
(426,158,l),
(402,99,o),
(349,64,o),
(281,64,cs),
(189,64,o),
(136,132,o),
(127,230,c),
(524,230,l),
(524,260,ls),
(524,416,o),
(428,532,o),
(281,532,cs),
(134,532,o),
(38,416,o),
(38,260,cs),
(38,117,o),
(119,7,o),
(246,-10,c),
(208,-62,l),
(208,-103,l),
(218,-101,o),
(229,-101,o),
(239,-101,cs),
(281,-101,o),
(301,-114,o),
(301,-140,cs),
(301,-166,o),
(281,-184,o),
(229,-184,cs),
(217,-184,o),
(195,-182,o),
(173,-178,c),
(173,-228,l),
(198,-234,o),
(224,-236,o),
(249,-236,cs)
);
},
{
closed = 1;
nodes = (
(142,395,o),
(194,456,o),
(281,456,cs),
(368,456,o),
(420,395,o),
(433,306,c),
(129,306,l)
);
}
);
width = 562;
},
{
layerId = m003;
shapes = (
{
closed = 1;
nodes = (
(383,-236,o),
(432,-188,o),
(432,-136,cs),
(432,-84,o),
(383,-56,o),
(307,-56,cs),
(296,-56,l),
(340,-10,l),
(460,2,o),
(539,68,o),
(570,161,c),
(393,161,l),
(375,135,o),
(351,122,o),
(300,122,cs),
(249,122,o),
(215,151,o),
(202,205,c),
(578,205,l),
(578,235,ls),
(578,424,o),
(482,532,o),
(300,532,cs),
(118,532,o),
(22,414,o),
(22,260,cs),
(22,117,o),
(105,4,o),
(264,-10,c),
(223,-63,l),
(223,-103,l),
(233,-101,o),
(243,-101,o),
(253,-101,cs),
(293,-101,o),
(310,-114,o),
(310,-136,cs),
(310,-158,o),
(293,-172,o),
(245,-172,cs),
(231,-172,o),
(210,-170,o),
(188,-166,c),
(188,-228,l),
(213,-234,o),
(238,-236,o),
(263,-236,cs)
);
},
{
closed = 1;
nodes = (
(216,369,o),
(250,398,o),
(300,398,cs),
(350,398,o),
(384,369,o),
(397,317,c),
(203,317,l)
);
}
);
width = 600;
}
);
unicode = 553;
},
{
color = 5;
glyphname = eogonek;
lastChange = "2022-09-14 14:31:04 +0000";
layers = (
{
layerId = m01;
shapes = (
{
closed = 1;
nodes = (
(303,-212,o),
(325,-209,o),
(346,-199,c),
(346,-172,l),
(326,-181,o),
(308,-184,o),
(288,-184,cs),
(250,-184,o),
(221,-168,o),
(221,-130,cs),
(221,-92,o),
(268,-44,o),
(345,0,c),
(421,25,o),
(470,89,o),
(490,173,c),
(459,173,l),
(435,82,o),
(369,18,o),
(270,18,cs),
(144,18,o),
(77,123,o),
(74,251,c),
(498,251,l),
(498,260,ls),
(498,410,o),
(419,532,o),
(270,532,cs),
(121,532,o),
(42,410,o),
(42,260,cs),
(42,95,o),
(137,-25,o),
(294,-11,c),
(233,-47,o),
(190,-88,o),
(190,-138,cs),
(190,-184,o),
(226,-212,o),
(282,-212,cs)
);
},
{
closed = 1;
nodes = (
(81,403,o),
(148,502,o),
(270,502,cs),
(392,502,o),
(459,403,o),
(465,281,c),
(75,281,l)
);
}
);
width = 540;
},
{
layerId = m002;
shapes = (
{
closed = 1;
nodes = (
(313,-212,o),
(337,-209,o),
(360,-201,c),
(360,-133,l),
(343,-139,o),
(327,-142,o),
(310,-142,cs),
(278,-142,o),
(256,-129,o),
(256,-99,cs),
(256,-69,o),
(294,-36,o),
(360,0,c),
(434,24,o),
(488,81,o),
(513,158,c),
(426,158,l),
(402,99,o),
(349,64,o),
(281,64,cs),
(189,64,o),
(136,132,o),
(127,230,c),
(524,230,l),
(524,260,ls),
(524,416,o),
(428,532,o),
(281,532,cs),
(134,532,o),
(38,416,o),
(38,260,cs),
(38,112,o),
(125,0,o),
(259,-11,c),
(215,-35,o),
(176,-71,o),
(176,-119,cs),
(176,-181,o),
(224,-212,o),
(290,-212,cs)
);
},
{
closed = 1;
nodes = (
(142,395,o),
(194,456,o),
(281,456,cs),
(368,456,o),
(420,395,o),
(433,306,c),
(129,306,l)
);
}
);
width = 562;
},
{
layerId = m003;
shapes = (
{
closed = 1;
nodes = (
(338,-212,o),
(372,-209,o),
(395,-202,c),
(395,-110,l),
(381,-114,o),
(367,-116,o),
(353,-116,cs),
(325,-116,o),
(303,-107,o),
(303,-83,cs),
(303,-59,o),
(321,-34,o),
(395,0,c),
(484,24,o),
(544,83,o),
(570,161,c),
(393,161,l),
(375,135,o),
(351,122,o),
(300,122,cs),
(249,122,o),
(215,151,o),
(202,205,c),
(578,205,l),
(578,235,ls),
(578,424,o),
(482,532,o),
(300,532,cs),
(118,532,o),
(22,414,o),
(22,260,cs),
(22,122,o),
(99,13,o),
(246,-8,c),
(193,-38,o),
(169,-80,o),
(169,-114,cs),
(169,-186,o),
(233,-212,o),
(315,-212,cs)
);
},
{
closed = 1;
nodes = (
(216,369,o),
(250,398,o),
(300,398,cs),
(350,398,o),
(384,369,o),
(397,317,c),
(203,317,l)
);
}
);
width = 600;
}
);
unicode = 281;
},
{
color = 4;
glyphname = f;
lastChange = "2022-09-14 12:46:58 +0000";
layers = (
{
anchors = (
{
name = top;
pos = (208,720);
}
);
guides = (
{
angle = 270;
pos = (146,720);
},
{
angle = 270;
pos = (114,720);
},
{
angle = 270;
pos = (302,720);
},
{
angle = 270;
pos = (14,720);
}
);
layerId = m01;
shapes = (
{
closed = 1;
nodes = (
(146,0,l),
(146,492,l),
(302,492,l),
(302,520,l),
(146,520,l),
(146,598,ls),
(146,652,o),
(154,692,o),
(218,692,cs),
(302,692,l),
(302,720,l),
(218,720,ls),
(124,720,o),
(114,662,o),
(114,598,cs),
(114,520,l),
(14,520,l),
(14,492,l),
(114,492,l),
(114,0,l)
);
}
);
width = 326;
},
{
anchors = (
{
name = top;
pos = (226,720);
}
);
guides = (
{
angle = 270;
pos = (198,720);
},
{
angle = 270;
pos = (114,720);
},
{
angle = 270;
pos = (338,720);
},
{
angle = 270;
pos = (18,720);
}
);
layerId = m002;
shapes = (
{
closed = 1;
nodes = (
(198,0,l),
(198,446,l),
(338,446,l),
(338,520,l),
(198,520,l),
(198,592,ls),
(198,630,o),
(214,646,o),
(252,646,cs),
(338,646,l),
(338,720,l),
(236,720,ls),
(146,720,o),
(114,682,o),
(114,602,cs),
(114,520,l),
(18,520,l),
(18,446,l),
(114,446,l),
(114,0,l)
);
}
);
width = 366;
},
{
anchors = (
{
name = top;
pos = (250,720);
}
);
guides = (
{
angle = 270;
pos = (284,720);
},
{
angle = 270;
pos = (96,720);
},
{
angle = 270;
pos = (404,720);
},
{
angle = 270;
pos = (12,720);
}
);
layerId = m003;
shapes = (
{
closed = 1;
nodes = (
(284,0,l),
(284,388,l),
(404,388,l),
(404,520,l),
(284,520,l),
(284,547,ls),
(284,574,o),
(292,588,o),
(328,588,cs),
(404,588,l),
(404,720,l),
(273,720,ls),
(189,720,o),
(96,707,o),
(96,565,cs),
(96,520,l),
(12,520,l),
(12,388,l),
(96,388,l),
(96,0,l)
);
}
);
width = 426;
}
);
unicode = 102;
},
{
color = 4;
glyphname = g;
lastChange = "2022-09-14 12:47:10 +0000";
layers = (
{
anchors = (
{
name = top;
pos = (272,520);
}
);
guides = (
{
angle = 90;
pos = (469,158);
},
{
angle = 90;
pos = (501,520);
},
{
angle = 90;
pos = (42,520);
}
);
layerId = m01;
shapes = (
{
closed = 1;
nodes = (
(433,-212,o),
(501,-114,o),
(501,10,cs),
(501,520,l),
(470,520,l),
(470,393,l),
(437,476,o),
(369,532,o),
(272,532,cs),
(121,532,o),
(42,410,o),
(42,260,cs),
(42,110,o),
(121,-12,o),
(272,-12,cs),
(368,-12,o),
(435,43,o),
(469,125,c),
(469,10,ls),
(469,-105,o),
(413,-182,o),
(287,-182,cs),
(173,-182,o),
(119,-139,o),
(107,-56,c),
(75,-56,l),
(87,-152,o),
(153,-212,o),
(287,-212,cs)
);
},
{
closed = 1;
nodes = (
(141,18,o),
(74,128,o),
(74,260,cs),
(74,392,o),
(141,502,o),
(272,502,cs),
(403,502,o),
(470,392,o),
(470,260,cs),
(470,128,o),
(403,18,o),
(272,18,cs)
);
}
);
width = 563;
},
{
anchors = (
{
name = top;
pos = (287,520);
}
);
guides = (
{
angle = 90;
pos = (452,158);
},
{
angle = 90;
pos = (536,520);
},
{
angle = 90;
pos = (38,520);
}
);
layerId = m002;
shapes = (
{
closed = 1;
nodes = (
(428,-212,o),
(536,-146,o),
(536,14,cs),
(536,520,l),
(456,520,l),
(456,440,l),
(419,497,o),
(360,532,o),
(280,532,cs),
(124,532,o),
(38,416,o),
(38,260,cs),
(38,104,o),
(124,-12,o),
(280,-12,cs),
(357,-12,o),
(415,20,o),
(452,74,c),
(452,14,ls),
(452,-114,o),
(368,-140,o),
(290,-140,cs),
(212,-140,o),
(160,-113,o),
(148,-41,c),
(65,-41,l),
(77,-147,o),
(152,-212,o),
(290,-212,cs)
);
},
{
closed = 1;
nodes = (
(180,64,o),
(126,146,o),
(126,260,cs),
(126,374,o),
(180,456,o),
(290,456,cs),
(400,456,o),
(454,374,o),
(454,260,cs),
(454,146,o),
(400,64,o),
(290,64,cs)
);
}
);
width = 598;
},
{
anchors = (
{
name = top;
pos = (298,520);
}
);
guides = (
{
angle = 90;
pos = (385,158);
},
{
angle = 90;
pos = (573,520);
},
{
angle = 90;
pos = (22,520);
}
);
layerId = m003;
shapes = (
{
closed = 1;
nodes = (
(446,-212,o),
(573,-136,o),
(573,13,cs),
(573,520,l),
(389,520,l),
(389,468,l),
(357,508,o),
(309,532,o),
(242,532,cs),
(98,532,o),
(22,421,o),
(22,276,cs),
(22,132,o),
(98,21,o),
(242,21,cs),
(306,21,o),
(353,43,o),
(385,80,c),
(385,13,ls),
(385,-57,o),
(338,-74,o),
(296,-74,cs),
(254,-74,o),
(221,-57,o),
(219,-16,c),
(35,-16,l),
(37,-136,o),
(126,-212,o),
(286,-212,cs)
);
},
{
closed = 1;
nodes = (
(235,160,o),
(211,203,o),
(211,276,cs),
(211,350,o),
(235,393,o),
(299,393,cs),
(363,393,o),
(387,350,o),
(387,276,cs),
(387,203,o),
(363,160,o),
(299,160,cs)
);
}
);
width = 615;
}
);
unicode = 103;
},
{
color = 4;
glyphname = h;
lastChange = "2022-09-14 12:46:58 +0000";
layers = (
{
anchors = (
{
name = cedilla;
pos = (78,0);
},
{
name = top;
pos = (78,720);
}
);
guides = (
{
angle = 90;
pos = (62,720);
},
{
angle = 90;
pos = (462,720);
},
{
angle = 90;
pos = (94,720);
}
);
layerId = m01;
shapes = (
{
closed = 1;
nodes = (
(94,0,l),
(94,291,ls),
(94,406,o),
(161,502,o),
(272,502,cs),
(373,502,o),
(431,446,o),
(431,329,cs),
(431,0,l),
(462,0,l),
(462,333,ls),
(462,462,o),
(395,532,o),
(276,532,cs),
(182,532,o),
(122,480,o),
(94,406,c),
(94,720,l),
(62,720,l),
(62,0,l)
);
}
);
width = 524;
},
{
anchors = (
{
name = cedilla;
pos = (104,0);
},
{
name = top;
pos = (104,720);
}
);
guides = (
{
angle = 90;
pos = (62,720);
},
{
angle = 90;
pos = (494,720);
},
{
angle = 90;
pos = (146,720);
}
);
layerId = m002;
shapes = (
{
closed = 1;
nodes = (
(146,0,l),
(146,291,ls),
(146,439,o),
(257,456,o),
(293,456,cs),
(373,456,o),
(411,406,o),
(411,334,cs),
(411,0,l),
(494,0,l),
(494,342,ls),
(494,434,o),
(441,532,o),
(309,532,cs),
(234,532,o),
(181,497,o),
(146,450,c),
(146,720,l),
(62,720,l),
(62,0,l)
);
}
);
width = 556;
},
{
anchors = (
{
name = cedilla;
pos = (136,0);
},
{
name = top;
pos = (136,720);
}
);
guides = (
{
angle = 90;
pos = (42,720);
},
{
angle = 90;
pos = (572,720);
},
{
angle = 90;
pos = (230,720);
}
);
layerId = m003;
shapes = (
{
closed = 1;
nodes = (
(230,0,l),
(230,278,ls),
(230,326,o),
(251,372,o),
(311,372,cs),
(371,372,o),
(384,330,o),
(384,282,cs),
(384,0,l),
(572,0,l),
(572,306,ls),
(572,474,o),
(489,532,o),
(387,532,cs),
(318,532,o),
(266,501,o),
(230,458,c),
(230,720,l),
(42,720,l),
(42,0,l)
);
}
);
width = 614;
}
);
unicode = 104;
},
{
color = 5;
glyphname = hcedilla;
lastChange = "2022-09-14 14:11:07 +0000";
layers = (
{
layerId = m01;
shapes = (
{
closed = 1;
nodes = (
(126,-212,o),
(170,-187,o),
(170,-135,cs),
(170,-83,o),
(126,-61,o),
(55,-61,cs),
(49,-61,l),
(92,0,l),
(94,0,l),
(94,291,ls),
(94,406,o),
(161,502,o),
(272,502,cs),
(373,502,o),
(431,446,o),
(431,329,cs),
(431,0,l),
(462,0,l),
(462,333,ls),
(462,462,o),
(395,532,o),
(276,532,cs),
(182,532,o),
(122,480,o),
(94,406,c),
(94,720,l),
(62,720,l),
(62,0,l),
(63,0,l),
(22,-63,l),
(22,-84,l),
(30,-83,o),
(40,-82,o),
(48,-82,cs),
(111,-82,o),
(140,-99,o),
(140,-135,cs),
(140,-171,o),
(110,-189,o),
(48,-189,cs),
(29,-189,o),
(11,-187,o),
(-8,-183,c),
(-8,-205,l),
(14,-211,o),
(36,-212,o),
(58,-212,cs)
);
}
);
width = 524;
},
{
layerId = m002;
shapes = (
{
closed = 1;
nodes = (
(162,-224,o),
(204,-178,o),
(204,-128,cs),
(204,-78,o),
(162,-45,o),
(101,-45,cs),
(97,-45,l),
(138,0,l),
(146,0,l),
(146,291,ls),
(146,439,o),
(257,456,o),
(293,456,cs),
(373,456,o),
(411,406,o),
(411,334,cs),
(411,0,l),
(494,0,l),
(494,342,ls),
(494,434,o),
(441,532,o),
(309,532,cs),
(234,532,o),
(181,497,o),
(146,450,c),
(146,720,l),
(62,720,l),
(62,0,l),
(68,0,l),
(31,-50,l),
(31,-91,l),
(41,-89,o),
(52,-89,o),
(62,-89,cs),
(104,-89,o),
(124,-102,o),
(124,-128,cs),
(124,-154,o),
(104,-172,o),
(52,-172,cs),
(40,-172,o),
(18,-170,o),
(-4,-166,c),
(-4,-216,l),
(21,-222,o),
(47,-224,o),
(72,-224,cs)
);
}
);
width = 556;
},
{
layerId = m003;
shapes = (
{
closed = 1;
nodes = (
(219,-224,o),
(268,-176,o),
(268,-124,cs),
(268,-72,o),
(219,-44,o),
(143,-44,cs),
(132,-44,l),
(174,0,l),
(230,0,l),
(230,278,ls),
(230,326,o),
(251,372,o),
(311,372,cs),
(371,372,o),
(384,330,o),
(384,282,cs),
(384,0,l),
(572,0,l),
(572,306,ls),
(572,474,o),
(489,532,o),
(387,532,cs),
(318,532,o),
(266,501,o),
(230,458,c),
(230,720,l),
(42,720,l),
(42,0,l),
(98,0,l),
(59,-51,l),
(59,-91,l),
(69,-89,o),
(79,-89,o),
(89,-89,cs),
(129,-89,o),
(146,-102,o),
(146,-124,cs),
(146,-146,o),
(129,-160,o),
(81,-160,cs),
(67,-160,o),
(46,-158,o),
(24,-154,c),
(24,-216,l),
(49,-222,o),
(74,-224,o),
(99,-224,cs)
);
}
);
width = 614;
}
);
unicode = 7721;
},
{
glyphname = idotless;
lastChange = "2022-09-14 15:50:36 +0000";
layers = (
{
anchors = (
{
name = ogonek;
pos = (94,0);
},
{
name = top;
pos = (78,520);
}
);
guides = (
{
angle = 90;
pos = (62,520);
},
{
angle = 90;
pos = (94,520);
}
);
layerId = m01;
shapes = (
{
closed = 1;
nodes = (
(94,0,l),
(94,520,l),
(62,520,l),
(62,0,l)
);
}
);
width = 156;
},
{
anchors = (
{
name = ogonek;
pos = (144,0);
},
{
name = top;
pos = (102,520);
}
);
guides = (
{
angle = 90;
pos = (60,520);
},
{
angle = 90;
pos = (144,520);
}
);
layerId = m002;
shapes = (
{
closed = 1;
nodes = (
(144,0,l),
(144,520,l),
(60,520,l),
(60,0,l)
);
}
);
width = 204;
},
{
anchors = (
{
name = ogonek;
pos = (230,0);
},
{
name = top;
pos = (136,520);
}
);
guides = (
{
angle = 90;
pos = (42,520);
},
{
angle = 90;
pos = (230,520);
}
);
layerId = m003;
shapes = (
{
closed = 1;
nodes = (
(230,0,l),
(230,520,l),
(42,520,l),
(42,0,l)
);
}
);
width = 272;
}
);
unicode = 305;
},
{
color = 5;
glyphname = iogonek;
lastChange = "2022-09-14 14:13:06 +0000";
layers = (
{
layerId = m01;
shapes = (
{
closed = 1;
nodes = (
(51,-212,o),
(73,-209,o),
(94,-199,c),
(94,-172,l),
(74,-181,o),
(56,-184,o),
(36,-184,cs),
(-2,-184,o),
(-31,-168,o),
(-31,-130,cs),
(-31,-92,o),
(16,-44,o),
(94,0,c),
(94,520,l),
(62,520,l),
(62,0,l),
(63,0,l),
(-8,-39,o),
(-62,-83,o),
(-62,-138,cs),
(-62,-184,o),
(-26,-212,o),
(30,-212,cs)
);
},
{
closed = 1;
nodes = (
(94,626,l),
(94,720,l),
(62,720,l),
(62,626,l)
);
}
);
width = 156;
},
{
layerId = m002;
shapes = (
{
closed = 1;
nodes = (
(97,-212,o),
(121,-209,o),
(144,-201,c),
(144,-133,l),
(127,-139,o),
(111,-142,o),
(94,-142,cs),
(62,-142,o),
(40,-129,o),
(40,-99,cs),
(40,-69,o),
(78,-36,o),
(144,0,c),
(144,520,l),
(60,520,l),
(60,0,l),
(66,0,l),
(13,-23,o),
(-40,-62,o),
(-40,-119,cs),
(-40,-181,o),
(8,-212,o),
(74,-212,cs)
);
},
{
closed = 1;
nodes = (
(144,618,l),
(144,720,l),
(60,720,l),
(60,618,l)
);
}
);
width = 204;
},
{
layerId = m003;
shapes = (
{
closed = 1;
nodes = (
(173,-212,o),
(207,-209,o),
(230,-202,c),
(230,-110,l),
(216,-114,o),
(202,-116,o),
(188,-116,cs),
(160,-116,o),
(138,-107,o),
(138,-83,cs),
(138,-59,o),
(156,-34,o),
(230,0,c),
(230,520,l),
(42,520,l),
(42,0,l),
(98,0,l),
(33,-29,o),
(4,-77,o),
(4,-114,cs),
(4,-186,o),
(68,-212,o),
(150,-212,cs)
);
},
{
closed = 1;
nodes = (
(230,580,l),
(230,720,l),
(42,720,l),
(42,580,l)
);
}
);
width = 272;
}
);
unicode = 303;
},
{
color = 4;
glyphname = k;
lastChange = "2022-09-14 12:59:41 +0000";
layers = (
{
anchors = (
{
name = top;
pos = (78,720);
}
);
guides = (
{
angle = 90;
pos = (62,720);
},
{
angle = 90;
pos = (455,720);
},
{
angle = 90;
pos = (94,720);
}
);
layerId = m01;
shapes = (
{
closed = 1;
nodes = (
(94,0,l),
(94,181,l),
(217,297,l),
(432,0,l),
(469,0,l),
(239,317,l),
(455,520,l),
(412,520,l),
(94,221,l),
(94,720,l),
(62,720,l),
(62,0,l)
);
}
);
width = 487;
},
{
anchors = (
{
name = top;
pos = (106,720);
}
);
guides = (
{
angle = 90;
pos = (62,720);
},
{
angle = 90;
pos = (495,720);
},
{
angle = 90;
pos = (150,720);
}
);
layerId = m002;
shapes = (
{
closed = 1;
nodes = (
(150,0,l),
(150,170,l),
(234,256,l),
(410,0,l),
(513,0,l),
(294,317,l),
(495,520,l),
(385,520,l),
(150,277,l),
(150,720,l),
(62,720,l),
(62,0,l)
);
}
);
width = 517;
},
{
anchors = (
{
name = top;
pos = (134,720);
}
);
guides = (
{
angle = 90;
pos = (42,720);
},
{
angle = 90;
pos = (608,720);
},
{
angle = 90;
pos = (226,720);
}
);
layerId = m003;
shapes = (
{
closed = 1;
nodes = (
(226,0,l),
(226,134,l),
(288,197,l),
(402,0,l),
(616,0,l),
(416,326,l),
(608,520,l),
(396,520,l),
(226,343,l),
(226,720,l),
(42,720,l),
(42,0,l)
);
}
);
width = 618;
}
);
unicode = 107;
},
{
color = 5;
glyphname = lslash;
lastChange = "2022-09-14 14:11:07 +0000";
layers = (
{
layerId = m01;
shapes = (
{
closed = 1;
nodes = (
(226,0,l),
(226,28,l),
(166,28,ls),
(102,28,o),
(94,68,o),
(94,122,cs),
(94,367,l),
(186,410,l),
(186,440,l),
(94,397,l),
(94,720,l),
(62,720,l),
(62,383,l),
(-30,340,l),
(-30,310,l),
(62,353,l),
(62,122,ls),
(62,58,o),
(72,0,o),
(166,0,cs)
);
}
);
width = 250;
},
{
layerId = m002;
shapes = (
{
closed = 1;
nodes = (
(270,0,l),
(270,74,l),
(200,74,ls),
(162,74,o),
(146,90,o),
(146,128,cs),
(146,350,l),
(232,390,l),
(232,470,l),
(146,430,l),
(146,720,l),
(62,720,l),
(62,390,l),
(-24,350,l),
(-24,270,l),
(62,310,l),
(62,118,ls),
(62,38,o),
(94,0,o),
(184,0,cs)
);
}
);
width = 298;
},
{
layerId = m003;
shapes = (
{
closed = 1;
nodes = (
(340,0,l),
(340,132,l),
(274,132,ls),
(238,132,o),
(230,146,o),
(230,173,cs),
(230,348,l),
(306,380,l),
(306,490,l),
(230,458,l),
(230,720,l),
(42,720,l),
(42,378,l),
(-34,346,l),
(-34,236,l),
(42,268,l),
(42,155,ls),
(42,13,o),
(135,0,o),
(219,0,cs)
);
}
);
width = 362;
}
);
unicode = 322;
},
{
color = 4;
glyphname = m;
lastChange = "2022-09-14 12:49:19 +0000";
layers = (
{
anchors = (
{
name = top;
pos = (427,520);
}
);
guides = (
{
angle = 90;
pos = (62,520);
},
{
angle = 90;
pos = (792,520);
}
);
layerId = m01;
shapes = (
{
closed = 1;
nodes = (
(94,0,l),
(94,291,ls),
(94,406,o),
(151,502,o),
(262,502,cs),
(343,502,o),
(411,446,o),
(411,329,cs),
(411,0,l),
(443,0,l),
(443,291,ls),
(443,406,o),
(500,502,o),
(611,502,cs),
(692,502,o),
(760,446,o),
(760,329,cs),
(760,0,l),
(792,0,l),
(792,333,ls),
(792,462,o),
(714,532,o),
(615,532,cs),
(517,532,o),
(460,476,o),
(436,396,c),
(415,485,o),
(347,532,o),
(266,532,cs),
(174,532,o),
(119,482,o),
(93,410,c),
(93,520,l),
(62,520,l),
(62,0,l)
);
}
);
width = 854;
},
{
anchors = (
{
name = top;
pos = (429,520);
}
);
guides = (
{
angle = 90;
pos = (62,520);
},
{
angle = 90;
pos = (796,520);
}
);
layerId = m002;
shapes = (
{
closed = 1;
nodes = (
(146,0,l),
(146,291,ls),
(146,439,o),
(245,456,o),
(281,456,cs),
(349,456,o),
(387,406,o),
(387,334,cs),
(387,0,l),
(471,0,l),
(471,291,ls),
(471,439,o),
(570,456,o),
(606,456,cs),
(674,456,o),
(712,406,o),
(712,334,cs),
(712,0,l),
(796,0,l),
(796,342,ls),
(796,434,o),
(742,532,o),
(622,532,cs),
(538,532,o),
(484,487,o),
(453,431,c),
(428,488,o),
(378,532,o),
(297,532,cs),
(220,532,o),
(171,495,o),
(142,446,c),
(142,520,l),
(62,520,l),
(62,0,l)
);
}
);
width = 858;
},
{
anchors = (
{
name = top;
pos = (462,520);
}
);
guides = (
{
angle = 90;
pos = (42,520);
},
{
angle = 90;
pos = (882,520);
}
);
layerId = m003;
shapes = (
{
closed = 1;
nodes = (
(230,0,l),
(230,278,ls),
(230,326,o),
(244,372,o),
(304,372,cs),
(355,372,o),
(368,330,o),
(368,282,cs),
(368,0,l),
(556,0,l),
(556,278,ls),
(556,326,o),
(570,372,o),
(630,372,cs),
(681,372,o),
(694,330,o),
(694,282,cs),
(694,0,l),
(882,0,l),
(882,306,ls),
(882,474,o),
(799,532,o),
(706,532,cs),
(632,532,o),
(572,491,o),
(531,438,c),
(500,506,o),
(442,532,o),
(380,532,cs),
(310,532,o),
(260,495,o),
(226,446,c),
(226,520,l),
(42,520,l),
(42,0,l)
);
}
);
width = 924;
}
);
unicode = 109;
},
{
color = 4;
glyphname = n;
lastChange = "2022-09-14 12:49:19 +0000";
layers = (
{
anchors = (
{
name = top;
pos = (262,520);
}
);
guides = (
{
angle = 90;
pos = (62,520);
},
{
angle = 90;
pos = (462,520);
}
);
layerId = m01;
shapes = (
{
closed = 1;
nodes = (
(94,0,l),
(94,291,ls),
(94,406,o),
(161,502,o),
(272,502,cs),
(373,502,o),
(431,446,o),
(431,329,cs),
(431,0,l),
(462,0,l),
(462,333,ls),
(462,462,o),
(395,532,o),
(276,532,cs),
(181,532,o),
(121,479,o),
(93,403,c),
(93,520,l),
(62,520,l),
(62,0,l)
);
}
);
width = 524;
},
{
anchors = (
{
name = top;
pos = (278,520);
}
);
guides = (
{
angle = 90;
pos = (62,520);
},
{
angle = 90;
pos = (494,520);
}
);
layerId = m002;
shapes = (
{
closed = 1;
nodes = (
(146,0,l),
(146,291,ls),
(146,439,o),
(257,456,o),
(293,456,cs),
(373,456,o),
(411,406,o),
(411,334,cs),
(411,0,l),
(494,0,l),
(494,342,ls),
(494,434,o),
(441,532,o),
(309,532,cs),
(232,532,o),
(177,494,o),
(142,445,c),
(142,520,l),
(62,520,l),
(62,0,l)
);
}
);
width = 556;
},
{
anchors = (
{
name = top;
pos = (307,520);
}
);
guides = (
{
angle = 90;
pos = (42,520);
},
{
angle = 90;
pos = (572,520);
}
);
layerId = m003;
shapes = (
{
closed = 1;
nodes = (
(230,0,l),
(230,278,ls),
(230,326,o),
(251,372,o),
(311,372,cs),
(371,372,o),
(384,330,o),
(384,282,cs),
(384,0,l),
(572,0,l),
(572,306,ls),
(572,474,o),
(489,532,o),
(387,532,cs),
(316,532,o),
(262,498,o),
(226,453,c),
(226,520,l),
(42,520,l),
(42,0,l)
);
}
);
width = 614;
}
);
unicode = 110;
},
{
color = 4;
glyphname = o;
lastChange = "2022-09-08 15:21:39 +0000";
layers = (
{
anchors = (
{
name = ogonek;
pos = (350,0);
},
{
name = top;
pos = (273,520);
}
);
layerId = m01;
shapes = (
{
closed = 1;
nodes = (
(425,-12,o),
(504,110,o),
(504,260,cs),
(504,410,o),
(425,532,o),
(273,532,cs),
(121,532,o),
(42,410,o),
(42,260,cs),
(42,110,o),
(121,-12,o),
(273,-12,cs)
);
},
{
closed = 1;
nodes = (
(141,18,o),
(74,128,o),
(74,260,cs),
(74,392,o),
(141,502,o),
(273,502,cs),
(405,502,o),
(472,392,o),
(472,260,cs),
(472,128,o),
(405,18,o),
(273,18,cs)
);
}
);
width = 546;
},
{
anchors = (
{
name = ogonek;
pos = (372,0);
},
{
name = top;
pos = (290,520);
}
);
layerId = m002;
shapes = (
{
closed = 1;
nodes = (
(446,-12,o),
(542,104,o),
(542,260,cs),
(542,416,o),
(446,532,o),
(290,532,cs),
(134,532,o),
(38,416,o),
(38,260,cs),
(38,104,o),
(134,-12,o),
(290,-12,cs)
);
},
{
closed = 1;
nodes = (
(180,64,o),
(126,146,o),
(126,260,cs),
(126,374,o),
(180,456,o),
(290,456,cs),
(400,456,o),
(454,374,o),
(454,260,cs),
(454,146,o),
(400,64,o),
(290,64,cs)
);
}
);
width = 580;
},
{
anchors = (
{
name = ogonek;
pos = (396,0);
},
{
name = top;
pos = (302,520);
}
);
layerId = m003;
shapes = (
{
closed = 1;
nodes = (
(486,-12,o),
(582,106,o),
(582,260,cs),
(582,414,o),
(486,532,o),
(302,532,cs),
(118,532,o),
(22,414,o),
(22,260,cs),
(22,106,o),
(118,-12,o),
(302,-12,cs)
);
},
{
closed = 1;
nodes = (
(234,136,o),
(210,182,o),
(210,260,cs),
(210,338,o),
(234,384,o),
(302,384,cs),
(370,384,o),
(394,338,o),
(394,260,cs),
(394,182,o),
(370,136,o),
(302,136,cs)
);
}
);
width = 604;
}
);
unicode = 111;
},
{
color = 5;
glyphname = oogonek;
lastChange = "2022-09-14 14:31:38 +0000";
layers = (
{
layerId = m01;
shapes = (
{
closed = 1;
nodes = (
(307,-212,o),
(329,-209,o),
(350,-199,c),
(350,-172,l),
(330,-181,o),
(312,-184,o),
(292,-184,cs),
(254,-184,o),
(225,-168,o),
(225,-130,cs),
(225,-92,o),
(272,-44,o),
(350,0,c),
(452,34,o),
(504,138,o),
(504,260,cs),
(504,410,o),
(425,532,o),
(273,532,cs),
(121,532,o),
(42,410,o),
(42,260,cs),
(42,93,o),
(139,-26,o),
(298,-11,c),
(237,-47,o),
(194,-88,o),
(194,-138,cs),
(194,-184,o),
(230,-212,o),
(286,-212,cs)
);
},
{
closed = 1;
nodes = (
(141,18,o),
(74,128,o),
(74,260,cs),
(74,392,o),
(141,502,o),
(273,502,cs),
(405,502,o),
(472,392,o),
(472,260,cs),
(472,128,o),
(405,18,o),
(273,18,cs)
);
}
);
width = 546;
},
{
layerId = m002;
shapes = (
{
closed = 1;
nodes = (
(325,-212,o),
(349,-209,o),
(372,-201,c),
(372,-133,l),
(355,-139,o),
(339,-142,o),
(322,-142,cs),
(290,-142,o),
(268,-129,o),
(268,-99,cs),
(268,-69,o),
(306,-36,o),
(372,0,c),
(479,33,o),
(542,134,o),
(542,260,cs),
(542,416,o),
(446,532,o),
(290,532,cs),
(134,532,o),
(38,416,o),
(38,260,cs),
(38,111,o),
(126,-2,o),
(271,-11,c),
(226,-35,o),
(188,-71,o),
(188,-119,cs),
(188,-181,o),
(236,-212,o),
(302,-212,cs)
);
},
{
closed = 1;
nodes = (
(180,64,o),
(126,146,o),
(126,260,cs),
(126,374,o),
(180,456,o),
(290,456,cs),
(400,456,o),
(454,374,o),
(454,260,cs),
(454,146,o),
(400,64,o),
(290,64,cs)
);
}
);
width = 580;
},
{
layerId = m003;
shapes = (
{
closed = 1;
nodes = (
(339,-212,o),
(373,-209,o),
(396,-202,c),
(396,-110,l),
(382,-114,o),
(368,-116,o),
(354,-116,cs),
(326,-116,o),
(304,-107,o),
(304,-83,cs),
(304,-59,o),
(322,-34,o),
(395,0,c),
(518,33,o),
(582,135,o),
(582,260,cs),
(582,414,o),
(486,532,o),
(302,532,cs),
(118,532,o),
(22,414,o),
(22,260,cs),
(22,122,o),
(99,13,o),
(247,-8,c),
(194,-37,o),
(170,-80,o),
(170,-114,cs),
(170,-186,o),
(234,-212,o),
(316,-212,cs)
);
},
{
closed = 1;
nodes = (
(234,136,o),
(210,182,o),
(210,260,cs),
(210,338,o),
(234,384,o),
(302,384,cs),
(370,384,o),
(394,338,o),
(394,260,cs),
(394,182,o),
(370,136,o),
(302,136,cs)
);
}
);
width = 604;
}
);
unicode = 491;
},
{
color = 4;
glyphname = r;
lastChange = "2022-09-14 12:49:19 +0000";
layers = (
{
anchors = (
{
name = top;
pos = (193,520);
}
);
guides = (
{
angle = 270;
pos = (324,520);
},
{
angle = 270;
pos = (62,520);
}
);
layerId = m01;
shapes = (
{
closed = 1;
nodes = (
(94,0,l),
(94,286,ls),
(95,426,o),
(186,495,o),
(278,495,cs),
(324,495,l),
(324,526,l),
(283,526,ls),
(213,526,o),
(133,496,o),
(93,396,c),
(93,520,l),
(62,520,l),
(62,0,l)
);
}
);
width = 346;
},
{
anchors = (
{
name = top;
pos = (205,520);
}
);
guides = (
{
angle = 270;
pos = (347,520);
},
{
angle = 270;
pos = (62,520);
}
);
layerId = m002;
shapes = (
{
closed = 1;
nodes = (
(146,0,l),
(146,278,ls),
(146,408,o),
(218,445,o),
(306,445,cs),
(347,445,l),
(347,526,l),
(308,526,ls),
(245,526,o),
(184,507,o),
(142,433,c),
(142,520,l),
(62,520,l),
(62,0,l)
);
}
);
width = 375;
},
{
anchors = (
{
name = top;
pos = (228,520);
}
);
guides = (
{
angle = 270;
pos = (414,520);
},
{
angle = 270;
pos = (42,520);
}
);
layerId = m003;
shapes = (
{
closed = 1;
nodes = (
(230,0,l),
(230,212,ls),
(230,320,o),
(272,357,o),
(360,357,cs),
(414,357,l),
(414,526,l),
(370,526,ls),
(302,526,o),
(253,494,o),
(226,426,c),
(226,520,l),
(42,520,l),
(42,0,l)
);
}
);
width = 436;
}
);
unicode = 114;
},
{
color = 4;
glyphname = s;
lastChange = "2022-09-07 10:20:52 +0000";
layers = (
{
anchors = (
{
name = bottom;
pos = (239,0);
},
{
name = cedilla;
pos = (239,-12);
},
{
name = top;
pos = (239,520);
}
);
layerId = m01;
shapes = (
{
closed = 1;
nodes = (
(346,-12,o),
(444,29,o),
(444,135,cs),
(444,211,o),
(405,255,o),
(256,278,cs),
(119,299,o),
(82,327,o),
(82,397,cs),
(82,467,o),
(148,504,o),
(235,504,cs),
(346,504,o),
(395,452,o),
(400,360,c),
(432,360,l),
(427,466,o),
(366,532,o),
(235,532,cs),
(128,532,o),
(50,482,o),
(50,396,cs),
(50,312,o),
(96,273,o),
(245,250,cs),
(384,229,o),
(412,196,o),
(412,134,cs),
(412,50,o),
(336,16,o),
(245,16,cs),
(134,16,o),
(71,74,o),
(66,170,c),
(34,170,l),
(38,62,o),
(112,-12,o),
(245,-12,cs)
);
}
);
width = 478;
},
{
anchors = (
{
name = bottom;
pos = (239,0);
},
{
name = cedilla;
pos = (239,-12);
},
{
name = top;
pos = (239,520);
}
);
layerId = m002;
shapes = (
{
closed = 1;
nodes = (
(365,-12,o),
(454,44,o),
(454,144,cs),
(454,230,o),
(412,274,o),
(259,301,cs),
(150,320,o),
(124,337,o),
(124,385,cs),
(124,433,o),
(172,459,o),
(231,459,cs),
(302,459,o),
(357,438,o),
(360,360,c),
(444,360,l),
(443,470,o),
(362,532,o),
(231,532,cs),
(120,532,o),
(40,474,o),
(40,384,cs),
(40,302,o),
(79,250,o),
(238,224,cs),
(353,205,o),
(369,185,o),
(369,139,cs),
(369,89,o),
(323,61,o),
(246,61,cs),
(163,61,o),
(117,90,o),
(109,170,c),
(24,170,l),
(31,44,o),
(121,-12,o),
(246,-12,cs)
);
}
);
width = 478;
},
{
anchors = (
{
name = bottom;
pos = (274,0);
},
{
name = cedilla;
pos = (274,-12);
},
{
name = top;
pos = (274,520);
}
);
layerId = m003;
shapes = (
{
closed = 1;
nodes = (
(430,-12,o),
(536,45,o),
(536,155,cs),
(536,243,o),
(485,302,o),
(317,326,cs),
(221,340,o),
(200,352,o),
(200,376,cs),
(200,400,o),
(226,415,o),
(268,415,cs),
(306,415,o),
(350,404,o),
(352,348,c),
(520,348,l),
(515,452,o),
(446,532,o),
(268,532,cs),
(112,532,o),
(18,473,o),
(18,363,cs),
(18,275,o),
(74,224,o),
(242,194,cs),
(338,177,o),
(351,166,o),
(351,142,cs),
(351,118,o),
(318,105,o),
(284,105,cs),
(232,105,o),
(197,118,o),
(190,172,c),
(12,172,l),
(21,34,o),
(116,-12,o),
(274,-12,cs)
);
}
);
width = 548;
}
);
unicode = 115;
},
{
color = 5;
glyphname = scedilla;
lastChange = "2022-09-14 14:11:07 +0000";
layers = (
{
layerId = m01;
shapes = (
{
closed = 1;
nodes = (
(287,-224,o),
(331,-199,o),
(331,-147,cs),
(331,-95,o),
(287,-73,o),
(216,-73,cs),
(210,-73,l),
(253,-12,l),
(351,-10,o),
(444,32,o),
(444,135,cs),
(444,211,o),
(405,255,o),
(256,278,cs),
(119,299,o),
(82,327,o),
(82,397,cs),
(82,467,o),
(148,504,o),
(235,504,cs),
(346,504,o),
(395,452,o),
(400,360,c),
(432,360,l),
(427,466,o),
(366,532,o),
(235,532,cs),
(128,532,o),
(50,482,o),
(50,396,cs),
(50,312,o),
(96,273,o),
(245,250,cs),
(384,229,o),
(412,196,o),
(412,134,cs),
(412,50,o),
(336,16,o),
(245,16,cs),
(134,16,o),
(71,74,o),
(66,170,c),
(34,170,l),
(38,68,o),
(104,-4,o),
(224,-11,c),
(183,-75,l),
(183,-96,l),
(191,-95,o),
(201,-94,o),
(209,-94,cs),
(272,-94,o),
(301,-111,o),
(301,-147,cs),
(301,-183,o),
(271,-201,o),
(209,-201,cs),
(190,-201,o),
(172,-199,o),
(153,-195,c),
(153,-217,l),
(175,-223,o),
(197,-224,o),
(219,-224,cs)
);
}
);
width = 478;
},
{
layerId = m002;
shapes = (
{
closed = 1;
nodes = (
(297,-236,o),
(339,-190,o),
(339,-140,cs),
(339,-90,o),
(297,-57,o),
(236,-57,cs),
(232,-57,l),
(274,-11,l),
(379,-3,o),
(454,52,o),
(454,144,cs),
(454,230,o),
(412,274,o),
(259,301,cs),
(150,320,o),
(124,337,o),
(124,385,cs),
(124,433,o),
(172,459,o),
(231,459,cs),
(302,459,o),
(357,438,o),
(360,360,c),
(444,360,l),
(443,470,o),
(362,532,o),
(231,532,cs),
(120,532,o),
(40,474,o),
(40,384,cs),
(40,302,o),
(79,250,o),
(238,224,cs),
(353,205,o),
(369,185,o),
(369,139,cs),
(369,89,o),
(323,61,o),
(246,61,cs),
(163,61,o),
(117,90,o),
(109,170,c),
(24,170,l),
(30,59,o),
(101,2,o),
(204,-10,c),
(166,-62,l),
(166,-103,l),
(176,-101,o),
(187,-101,o),
(197,-101,cs),
(239,-101,o),
(259,-114,o),
(259,-140,cs),
(259,-166,o),
(239,-184,o),
(187,-184,cs),
(175,-184,o),
(153,-182,o),
(131,-178,c),
(131,-228,l),
(156,-234,o),
(182,-236,o),
(207,-236,cs)
);
}
);
width = 478;
},
{
layerId = m003;
shapes = (
{
closed = 1;
nodes = (
(357,-236,o),
(406,-188,o),
(406,-136,cs),
(406,-84,o),
(357,-56,o),
(281,-56,cs),
(270,-56,l),
(313,-11,l),
(448,-2,o),
(536,55,o),
(536,155,cs),
(536,243,o),
(485,302,o),
(317,326,cs),
(221,340,o),
(200,352,o),
(200,376,cs),
(200,400,o),
(226,415,o),
(268,415,cs),
(306,415,o),
(350,404,o),
(352,348,c),
(520,348,l),
(515,452,o),
(446,532,o),
(268,532,cs),
(112,532,o),
(18,473,o),
(18,363,cs),
(18,275,o),
(74,224,o),
(242,194,cs),
(338,177,o),
(351,166,o),
(351,142,cs),
(351,118,o),
(318,105,o),
(284,105,cs),
(232,105,o),
(197,118,o),
(190,172,c),
(12,172,l),
(20,45,o),
(101,-4,o),
(237,-11,c),
(197,-63,l),
(197,-103,l),
(207,-101,o),
(217,-101,o),
(227,-101,cs),
(267,-101,o),
(284,-114,o),
(284,-136,cs),
(284,-158,o),
(267,-172,o),
(219,-172,cs),
(205,-172,o),
(184,-170,o),
(162,-166,c),
(162,-228,l),
(187,-234,o),
(212,-236,o),
(237,-236,cs)
);
}
);
width = 548;
}
);
unicode = 351;
},
{
color = 5;
glyphname = germandbls;
lastChange = "2022-09-14 16:27:56 +0000";
layers = (
{
guides = (
{
pos = (0,732);
},
{
pos = (0,720);
}
);
layerId = m01;
shapes = (
{
closed = 1;
nodes = (
(402,-12,o),
(484,72,o),
(484,191,cs),
(484,289,o),
(428,361,o),
(325,383,c),
(403,410,o),
(442,470,o),
(442,548,cs),
(442,651,o),
(370,732,o),
(252,732,cs),
(134,732,o),
(62,651,o),
(62,520,cs),
(62,0,l),
(94,0,l),
(94,520,ls),
(94,635,o),
(156,703,o),
(252,703,cs),
(348,703,o),
(410,635,o),
(410,548,cs),
(410,458,o),
(349,394,o),
(223,394,cs),
(196,394,l),
(196,364,l),
(254,364,ls),
(380,364,o),
(451,294,o),
(451,191,cs),
(451,88,o),
(380,18,o),
(254,18,cs),
(228,18,o),
(202,19,o),
(176,25,c),
(176,-3,l),
(202,-9,o),
(228,-12,o),
(254,-12,cs)
);
}
);
width = 526;
},
{
guides = (
{
pos = (-825,732);
},
{
pos = (-825,720);
}
);
layerId = m002;
shapes = (
{
closed = 1;
nodes = (
(442,-12,o),
(520,83,o),
(520,201,cs),
(520,290,o),
(478,359,o),
(389,390,c),
(444,419,o),
(480,469,o),
(480,538,cs),
(480,645,o),
(403,732,o),
(270,732,cs),
(137,732,o),
(62,645,o),
(62,520,cs),
(62,0,l),
(146,0,l),
(146,520,ls),
(146,605,o),
(192,656,o),
(270,656,cs),
(348,656,o),
(394,605,o),
(394,538,cs),
(394,467,o),
(349,419,o),
(270,419,cs),
(232,419,l),
(232,341,l),
(277,341,ls),
(385,341,o),
(432,282,o),
(432,201,cs),
(432,123,o),
(385,62,o),
(277,62,cs),
(255,62,o),
(234,64,o),
(212,68,c),
(212,-6,l),
(233,-10,o),
(256,-12,o),
(277,-12,cs)
);
}
);
width = 558;
},
{
guides = (
{
pos = (-370,732);
},
{
pos = (-370,720);
}
);
layerId = m003;
shapes = (
{
closed = 1;
nodes = (
(500,-12,o),
(598,64,o),
(598,220,cs),
(598,298,o),
(560,356,o),
(486,389,c),
(527,424,o),
(550,474,o),
(550,534,cs),
(550,652,o),
(448,732,o),
(306,732,cs),
(138,732,o),
(42,652,o),
(42,498,cs),
(42,0,l),
(230,0,l),
(230,498,ls),
(230,546,o),
(264,572,o),
(306,572,cs),
(348,572,o),
(382,546,o),
(382,498,cs),
(382,450,o),
(348,424,o),
(306,424,cs),
(278,424,l),
(278,306,l),
(306,306,ls),
(360,306,o),
(406,284,o),
(406,220,cs),
(406,158,o),
(360,134,o),
(316,134,cs),
(303,134,o),
(289,135,o),
(276,138,c),
(276,-8,l),
(293,-11,o),
(309,-12,o),
(326,-12,cs)
);
}
);
width = 620;
}
);
unicode = 223;
},
{
color = 4;
glyphname = t;
lastChange = "2022-09-14 12:49:35 +0000";
layers = (
{
anchors = (
{
name = caron.alt;
pos = (206,520);
},
{
name = cedilla;
pos = (210,0);
},
{
name = top;
pos = (130,680);
}
);
guides = (
{
angle = 90;
pos = (302,0);
},
{
angle = 90;
pos = (114,0);
},
{
angle = 90;
pos = (146,0);
}
);
layerId = m01;
shapes = (
{
closed = 1;
nodes = (
(302,0,l),
(302,28,l),
(218,28,ls),
(154,28,o),
(146,68,o),
(146,122,cs),
(146,492,l),
(302,492,l),
(302,520,l),
(146,520,l),
(146,680,l),
(114,680,l),
(114,520,l),
(14,520,l),
(14,492,l),
(114,492,l),
(114,122,ls),
(114,58,o),
(124,0,o),
(218,0,cs)
);
}
);
width = 326;
},
{
anchors = (
{
name = caron.alt;
pos = (230,520);
},
{
name = cedilla;
pos = (238,0);
},
{
name = top;
pos = (156,680);
}
);
guides = (
{
angle = 90;
pos = (338,0);
},
{
angle = 90;
pos = (114,0);
},
{
angle = 90;
pos = (198,0);
}
);
layerId = m002;
shapes = (
{
closed = 1;
nodes = (
(338,0,l),
(338,74,l),
(252,74,ls),
(214,74,o),
(198,90,o),
(198,128,cs),
(198,446,l),
(338,446,l),
(338,520,l),
(198,520,l),
(198,680,l),
(114,680,l),
(114,520,l),
(18,520,l),
(18,446,l),
(114,446,l),
(114,118,ls),
(114,38,o),
(146,0,o),
(236,0,cs)
);
}
);
width = 366;
},
{
anchors = (
{
name = caron.alt;
pos = (316,520);
},
{
name = cedilla;
pos = (252,0);
},
{
name = top;
pos = (190,680);
}
);
guides = (
{
angle = 90;
pos = (404,0);
},
{
angle = 90;
pos = (96,0);
},
{
angle = 90;
pos = (284,0);
}
);
layerId = m003;
shapes = (
{
closed = 1;
nodes = (
(404,0,l),
(404,132,l),
(328,132,ls),
(292,132,o),
(284,146,o),
(284,173,cs),
(284,388,l),
(404,388,l),
(404,520,l),
(284,520,l),
(284,680,l),
(96,680,l),
(96,520,l),
(12,520,l),
(12,388,l),
(96,388,l),
(96,155,ls),
(96,13,o),
(189,0,o),
(273,0,cs)
);
}
);
width = 426;
}
);
unicode = 116;
},
{
color = 5;
glyphname = tcedilla;
lastChange = "2022-09-14 14:11:07 +0000";
layers = (
{
layerId = m01;
shapes = (
{
closed = 1;
nodes = (
(258,-212,o),
(302,-187,o),
(302,-135,cs),
(302,-83,o),
(258,-61,o),
(187,-61,cs),
(181,-61,l),
(224,0,l),
(302,0,l),
(302,28,l),
(218,28,ls),
(154,28,o),
(146,68,o),
(146,122,cs),
(146,492,l),
(302,492,l),
(302,520,l),
(146,520,l),
(146,680,l),
(114,680,l),
(114,520,l),
(14,520,l),
(14,492,l),
(114,492,l),
(114,122,ls),
(114,63,o),
(122,10,o),
(196,1,c),
(154,-63,l),
(154,-84,l),
(162,-83,o),
(172,-82,o),
(180,-82,cs),
(243,-82,o),
(272,-99,o),
(272,-135,cs),
(272,-171,o),
(242,-189,o),
(180,-189,cs),
(161,-189,o),
(143,-187,o),
(124,-183,c),
(124,-205,l),
(146,-211,o),
(168,-212,o),
(190,-212,cs)
);
}
);
width = 326;
},
{
layerId = m002;
shapes = (
{
closed = 1;
nodes = (
(296,-224,o),
(338,-178,o),
(338,-128,cs),
(338,-78,o),
(296,-45,o),
(235,-45,cs),
(231,-45,l),
(272,0,l),
(338,0,l),
(338,74,l),
(252,74,ls),
(214,74,o),
(198,90,o),
(198,128,cs),
(198,446,l),
(338,446,l),
(338,520,l),
(198,520,l),
(198,680,l),
(114,680,l),
(114,520,l),
(18,520,l),
(18,446,l),
(114,446,l),
(114,118,ls),
(114,49,o),
(138,11,o),
(203,2,c),
(165,-50,l),
(165,-91,l),
(175,-89,o),
(186,-89,o),
(196,-89,cs),
(238,-89,o),
(258,-102,o),
(258,-128,cs),
(258,-154,o),
(238,-172,o),
(186,-172,cs),
(174,-172,o),
(152,-170,o),
(130,-166,c),
(130,-216,l),
(155,-222,o),
(181,-224,o),
(206,-224,cs)
);
}
);
width = 366;
},
{
layerId = m003;
shapes = (
{
closed = 1;
nodes = (
(335,-224,o),
(384,-176,o),
(384,-124,cs),
(384,-72,o),
(335,-44,o),
(259,-44,cs),
(248,-44,l),
(290,0,l),
(404,0,l),
(404,132,l),
(328,132,ls),
(292,132,o),
(284,146,o),
(284,173,cs),
(284,388,l),
(404,388,l),
(404,520,l),
(284,520,l),
(284,680,l),
(96,680,l),
(96,520,l),
(12,520,l),
(12,388,l),
(96,388,l),
(96,155,ls),
(96,45,o),
(152,12,o),
(217,3,c),
(175,-51,l),
(175,-91,l),
(185,-89,o),
(195,-89,o),
(205,-89,cs),
(245,-89,o),
(262,-102,o),
(262,-124,cs),
(262,-146,o),
(245,-160,o),
(197,-160,cs),
(183,-160,o),
(162,-158,o),
(140,-154,c),
(140,-216,l),
(165,-222,o),
(190,-224,o),
(215,-224,cs)
);
}
);
width = 426;
}
);
unicode = 355;
},
{
color = 5;
glyphname = uogonek;
lastChange = "2022-09-14 14:13:48 +0000";
layers = (
{
layerId = m01;
shapes = (
{
closed = 1;
nodes = (
(419,-212,o),
(441,-209,o),
(462,-199,c),
(462,-172,l),
(442,-181,o),
(424,-184,o),
(404,-184,cs),
(366,-184,o),
(337,-168,o),
(337,-130,cs),
(337,-92,o),
(384,-44,o),
(462,0,c),
(462,520,l),
(430,520,l),
(430,229,ls),
(430,114,o),
(363,18,o),
(252,18,cs),
(151,18,o),
(93,74,o),
(93,191,cs),
(93,520,l),
(62,520,l),
(62,187,ls),
(62,58,o),
(129,-12,o),
(248,-12,cs),
(343,-12,o),
(403,41,o),
(431,117,c),
(431,0,l),
(432,0,l),
(360,-39,o),
(306,-82,o),
(306,-138,cs),
(306,-184,o),
(342,-212,o),
(398,-212,cs)
);
}
);
width = 524;
},
{
layerId = m002;
shapes = (
{
closed = 1;
nodes = (
(447,-212,o),
(471,-209,o),
(494,-201,c),
(494,-133,l),
(477,-139,o),
(461,-142,o),
(444,-142,cs),
(412,-142,o),
(390,-129,o),
(390,-99,cs),
(390,-69,o),
(428,-36,o),
(494,0,c),
(494,520,l),
(410,520,l),
(410,229,ls),
(410,81,o),
(299,64,o),
(263,64,cs),
(183,64,o),
(145,114,o),
(145,186,cs),
(145,520,l),
(62,520,l),
(62,178,ls),
(62,86,o),
(115,-12,o),
(247,-12,cs),
(324,-12,o),
(379,26,o),
(414,75,c),
(414,0,l),
(416,0,l),
(363,-23,o),
(310,-62,o),
(310,-119,cs),
(310,-181,o),
(358,-212,o),
(424,-212,cs)
);
}
);
width = 556;
},
{
layerId = m003;
shapes = (
{
closed = 1;
nodes = (
(515,-212,o),
(549,-209,o),
(572,-202,c),
(572,-110,l),
(558,-114,o),
(544,-116,o),
(530,-116,cs),
(502,-116,o),
(480,-107,o),
(480,-83,cs),
(480,-59,o),
(498,-34,o),
(572,0,c),
(572,520,l),
(384,520,l),
(384,242,ls),
(384,194,o),
(363,148,o),
(303,148,cs),
(243,148,o),
(230,190,o),
(230,238,cs),
(230,520,l),
(42,520,l),
(42,214,ls),
(42,46,o),
(125,-12,o),
(227,-12,cs),
(298,-12,o),
(352,22,o),
(388,67,c),
(388,0,l),
(440,0,l),
(375,-29,o),
(346,-77,o),
(346,-114,cs),
(346,-186,o),
(410,-212,o),
(492,-212,cs)
);
}
);
width = 614;
}
);
unicode = 371;
},
{
color = 4;
glyphname = v;
lastChange = "2022-09-14 12:50:14 +0000";
layers = (
{
anchors = (
{
name = top;
pos = (255,520);
}
);
guides = (
{
angle = 90;
pos = (54,520);
},
{
angle = 90;
pos = (456,520);
}
);
layerId = m01;
shapes = (
{
closed = 1;
nodes = (
(271,0,l),
(490,520,l),
(456,520,l),
(255,33,l),
(54,520,l),
(20,520,l),
(239,0,l)
);
}
);
width = 510;
},
{
anchors = (
{
name = top;
pos = (259,520);
}
);
guides = (
{
angle = 90;
pos = (99,520);
},
{
angle = 90;
pos = (419,520);
}
);
layerId = m002;
shapes = (
{
closed = 1;
nodes = (
(302,0,l),
(510,520,l),
(419,520,l),
(259,97,l),
(99,520,l),
(8,520,l),
(216,0,l)
);
}
);
width = 518;
},
{
anchors = (
{
name = top;
pos = (298,520);
}
);
guides = (
{
angle = 90;
pos = (204,520);
},
{
angle = 90;
pos = (392,520);
}
);
layerId = m003;
shapes = (
{
closed = 1;
nodes = (
(411,0,l),
(594,520,l),
(392,520,l),
(301,161,l),
(204,520,l),
(2,520,l),
(185,0,l)
);
}
);
width = 596;
}
);
unicode = 118;
},
{
color = 4;
glyphname = w;
lastChange = "2022-09-14 12:50:14 +0000";
layers = (
{
anchors = (
{
name = top;
pos = (411,520);
}
);
guides = (
{
pos = (1147,38);
},
{
angle = 90;
pos = (394,520);
},
{
angle = 90;
pos = (428,520);
}
);
layerId = m01;
shapes = (
{
closed = 1;
nodes = (
(250,0,l),
(411,481,l),
(572,0,l),
(606,0,l),
(804,520,l),
(772,520,l),
(589,38,l),
(428,520,l),
(394,520,l),
(233,38,l),
(50,520,l),
(18,520,l),
(216,0,l)
);
}
);
width = 822;
},
{
anchors = (
{
name = top;
pos = (405,520);
}
);
guides = (
{
angle = 90;
pos = (361,520);
},
{
angle = 90;
pos = (448,520);
}
);
layerId = m002;
shapes = (
{
closed = 1;
nodes = (
(282,0,l),
(405,408,l),
(527,0,l),
(613,0,l),
(801,520,l),
(710,520,l),
(571,108,l),
(448,520,l),
(361,520,l),
(238,108,l),
(99,520,l),
(8,520,l),
(196,0,l)
);
}
);
width = 809;
},
{
anchors = (
{
name = top;
pos = (452,520);
}
);
guides = (
{
angle = 90;
pos = (366,520);
},
{
angle = 90;
pos = (538,520);
}
);
layerId = m003;
shapes = (
{
closed = 1;
nodes = (
(373,0,l),
(452,291,l),
(531,0,l),
(729,0,l),
(902,520,l),
(700,520,l),
(614,217,l),
(538,520,l),
(366,520,l),
(290,217,l),
(204,520,l),
(2,520,l),
(175,0,l)
);
}
);
width = 904;
}
);
unicode = 119;
},
{
color = 4;
glyphname = x;
lastChange = "2022-09-14 12:50:14 +0000";
layers = (
{
anchors = (
{
name = top;
pos = (240,520);
}
);
guides = (
{
angle = 90;
pos = (64,520);
},
{
angle = 90;
pos = (416,520);
}
);
layerId = m01;
shapes = (
{
closed = 1;
nodes = (
(55,0,l),
(240,242,l),
(425,0,l),
(462,0,l),
(259,266,l),
(453,520,l),
(416,520,l),
(240,290,l),
(64,520,l),
(27,520,l),
(222,266,l),
(18,0,l)
);
}
);
width = 480;
},
{
anchors = (
{
name = top;
pos = (249,520);
}
);
guides = (
{
angle = 90;
pos = (114,520);
},
{
angle = 90;
pos = (384,520);
}
);
layerId = m002;
shapes = (
{
closed = 1;
nodes = (
(104,0,l),
(249,199,l),
(393,0,l),
(492,0,l),
(298,267,l),
(482,520,l),
(384,520,l),
(249,334,l),
(114,520,l),
(15,520,l),
(200,266,l),
(6,0,l)
);
}
);
width = 498;
},
{
anchors = (
{
name = top;
pos = (290,520);
}
);
guides = (
{
angle = 90;
pos = (222,520);
},
{
angle = 90;
pos = (358,520);
}
);
layerId = m003;
shapes = (
{
closed = 1;
nodes = (
(208,0,l),
(288,116,l),
(368,0,l),
(580,0,l),
(394,270,l),
(566,520,l),
(358,520,l),
(290,421,l),
(222,520,l),
(10,520,l),
(184,267,l),
(0,0,l)
);
}
);
width = 580;
}
);
unicode = 120;
},
{
color = 4;
glyphname = y;
lastChange = "2022-09-14 12:51:36 +0000";
layers = (
{
anchors = (
{
name = top;
pos = (245,520);
}
);
guides = (
{
angle = 68.2309;
pos = (192,-91);
},
{
angle = 68.119;
pos = (221,-100);
},
{
angle = 90;
pos = (54,520);
},
{
angle = 90;
pos = (436,520);
}
);
layerId = m01;
shapes = (
{
closed = 1;
nodes = (
(106,-200,ls),
(180,-200,o),
(198,-158,o),
(221,-100,cs),
(470,520,l),
(436,520,l),
(245,37,l),
(54,520,l),
(20,520,l),
(229,0,l),
(192,-91,ls),
(172,-141,o),
(159,-172,o),
(99,-172,cs),
(30,-172,l),
(30,-200,l)
);
}
);
width = 490;
},
{
anchors = (
{
name = top;
pos = (249,520);
}
);
guides = (
{
angle = 90;
pos = (99,520);
},
{
angle = 90;
pos = (399,520);
}
);
layerId = m002;
shapes = (
{
closed = 1;
nodes = (
(137,-200,ls),
(213,-200,o),
(236,-150,o),
(260,-86,cs),
(490,520,l),
(399,520,l),
(249,104,l),
(99,520,l),
(8,520,l),
(206,1,l),
(181,-65,ls),
(165,-109,o),
(153,-126,o),
(106,-126,cs),
(28,-126,l),
(28,-200,l)
);
}
);
width = 498;
},
{
anchors = (
{
name = top;
pos = (298,520);
}
);
guides = (
{
angle = 90;
pos = (204,520);
},
{
angle = 90;
pos = (392,520);
}
);
layerId = m003;
shapes = (
{
closed = 1;
nodes = (
(171,-200,ls),
(305,-200,o),
(365,-128,o),
(404,-18,cs),
(594,520,l),
(392,520,l),
(302,160,l),
(204,520,l),
(2,520,l),
(198,-15,l),
(195,-21,ls),
(182,-47,o),
(166,-54,o),
(122,-54,cs),
(32,-54,l),
(32,-200,l)
);
}
);
width = 596;
}
);
unicode = 121;
},
{
color = 4;
glyphname = z;
lastChange = "2022-09-14 12:50:14 +0000";
layers = (
{
anchors = (
{
name = top;
pos = (239,520);
}
);
layerId = m01;
shapes = (
{
closed = 1;
nodes = (
(444,0,l),
(444,28,l),
(69,28,l),
(434,493,l),
(434,520,l),
(44,520,l),
(44,492,l),
(399,492,l),
(34,27,l),
(34,0,l)
);
}
);
width = 478;
},
{
anchors = (
{
name = top;
pos = (248,520);
}
);
layerId = m002;
shapes = (
{
closed = 1;
nodes = (
(458,0,l),
(458,74,l),
(143,74,l),
(448,456,l),
(448,520,l),
(48,520,l),
(48,446,l),
(344,446,l),
(38,64,l),
(38,0,l)
);
}
);
width = 496;
},
{
anchors = (
{
name = top;
pos = (273,520);
}
);
layerId = m003;
shapes = (
{
closed = 1;
nodes = (
(508,0,l),
(508,138,l),
(268,138,l),
(498,402,l),
(498,520,l),
(38,520,l),
(38,382,l),
(268,382,l),
(38,118,l),
(38,0,l)
);
}
);
width = 546;
}
);
unicode = 122;
},
{
color = 6;
glyphname = a.ss01;
lastChange = "2022-09-15 15:28:32 +0000";
layers = (
{
anchors = (
{
name = ogonek;
pos = (520,0);
},
{
name = top;
pos = (292,520);
}
);
guides = (
{
angle = 90;
pos = (520,520);
},
{
angle = 90;
pos = (62,520);
}
);
layerId = m01;
shapes = (
{
closed = 1;
nodes = (
(388,-12,o),
(455,43,o),
(489,125,c),
(489,0,l),
(520,0,l),
(520,520,l),
(488,520,l),
(488,398,l),
(454,478,o),
(387,532,o),
(292,532,cs),
(141,532,o),
(62,410,o),
(62,260,cs),
(62,110,o),
(141,-12,o),
(292,-12,cs)
);
},
{
closed = 1;
nodes = (
(161,18,o),
(94,128,o),
(94,260,cs),
(94,392,o),
(161,502,o),
(292,502,cs),
(423,502,o),
(490,392,o),
(490,260,cs),
(490,128,o),
(423,18,o),
(292,18,cs)
);
}
);
width = 562;
},
{
anchors = (
{
name = ogonek;
pos = (560,0);
},
{
name = top;
pos = (311,520);
}
);
guides = (
{
angle = 90;
pos = (560,520);
},
{
angle = 90;
pos = (62,520);
}
);
layerId = m002;
shapes = (
{
closed = 1;
nodes = (
(384,-12,o),
(443,23,o),
(480,80,c),
(480,0,l),
(560,0,l),
(560,520,l),
(476,520,l),
(476,446,l),
(439,500,o),
(381,532,o),
(304,532,cs),
(148,532,o),
(62,416,o),
(62,260,cs),
(62,104,o),
(148,-12,o),
(304,-12,cs)
);
},
{
closed = 1;
nodes = (
(204,64,o),
(150,146,o),
(150,260,cs),
(150,374,o),
(204,456,o),
(314,456,cs),
(424,456,o),
(478,374,o),
(478,260,cs),
(478,146,o),
(424,64,o),
(314,64,cs)
);
}
);
width = 598;
},
{
anchors = (
{
name = ogonek;
pos = (593,0);
},
{
name = top;
pos = (318,520);
}
);
guides = (
{
angle = 90;
pos = (593,520);
},
{
angle = 90;
pos = (42,520);
}
);
layerId = m003;
shapes = (
{
closed = 1;
nodes = (
(330,-12,o),
(378,14,o),
(410,58,c),
(410,0,l),
(593,0,l),
(593,520,l),
(405,520,l),
(405,469,l),
(373,509,o),
(326,532,o),
(262,532,cs),
(118,532,o),
(42,414,o),
(42,260,cs),
(42,106,o),
(118,-12,o),
(262,-12,cs)
);
},
{
closed = 1;
nodes = (
(255,136,o),
(231,182,o),
(231,260,cs),
(231,338,o),
(255,384,o),
(319,384,cs),
(383,384,o),
(407,338,o),
(407,260,cs),
(407,182,o),
(383,136,o),
(319,136,cs)
);
}
);
width = 622;
}
);
},
{
color = 5;
glyphname = aogonek.ss01;
lastChange = "2022-09-15 15:34:47 +0000";
layers = (
{
layerId = m01;
shapes = (
{
closed = 1;
nodes = (
(477,-212,o),
(499,-209,o),
(520,-199,c),
(520,-172,l),
(500,-181,o),
(482,-184,o),
(462,-184,cs),
(424,-184,o),
(395,-168,o),
(395,-130,cs),
(395,-92,o),
(442,-44,o),
(520,0,c),
(520,520,l),
(488,520,l),
(488,398,l),
(454,478,o),
(387,532,o),
(292,532,cs),
(141,532,o),
(62,410,o),
(62,260,cs),
(62,110,o),
(141,-12,o),
(292,-12,cs),
(388,-12,o),
(455,43,o),
(489,125,c),
(489,0,l),
(490,0,l),
(418,-39,o),
(364,-82,o),
(364,-138,cs),
(364,-184,o),
(400,-212,o),
(456,-212,cs)
);
},
{
closed = 1;
nodes = (
(161,18,o),
(94,128,o),
(94,260,cs),
(94,392,o),
(161,502,o),
(292,502,cs),
(423,502,o),
(490,392,o),
(490,260,cs),
(490,128,o),
(423,18,o),
(292,18,cs)
);
}
);
width = 562;
},
{
layerId = m002;
shapes = (
{
closed = 1;
nodes = (
(513,-212,o),
(537,-209,o),
(560,-201,c),
(560,-133,l),
(543,-139,o),
(527,-142,o),
(510,-142,cs),
(478,-142,o),
(456,-129,o),
(456,-99,cs),
(456,-69,o),
(494,-36,o),
(560,0,c),
(560,520,l),
(476,520,l),
(476,446,l),
(439,500,o),
(381,532,o),
(304,532,cs),
(148,532,o),
(62,416,o),
(62,260,cs),
(62,104,o),
(148,-12,o),
(304,-12,cs),
(384,-12,o),
(443,23,o),
(480,80,c),
(480,0,l),
(482,0,l),
(429,-23,o),
(376,-62,o),
(376,-119,cs),
(376,-181,o),
(424,-212,o),
(490,-212,cs)
);
},
{
closed = 1;
nodes = (
(204,64,o),
(150,146,o),
(150,260,cs),
(150,374,o),
(204,456,o),
(314,456,cs),
(424,456,o),
(478,374,o),
(478,260,cs),
(478,146,o),
(424,64,o),
(314,64,cs)
);
}
);
width = 598;
},
{
layerId = m003;
shapes = (
{
closed = 1;
nodes = (
(536,-212,o),
(570,-209,o),
(593,-202,c),
(593,-110,l),
(579,-114,o),
(565,-116,o),
(551,-116,cs),
(523,-116,o),
(501,-107,o),
(501,-83,cs),
(501,-59,o),
(519,-34,o),
(593,0,c),
(593,520,l),
(405,520,l),
(405,469,l),
(373,509,o),
(326,532,o),
(262,532,cs),
(118,532,o),
(42,414,o),
(42,260,cs),
(42,106,o),
(118,-12,o),
(262,-12,cs),
(330,-12,o),
(378,14,o),
(410,58,c),
(410,0,l),
(461,0,l),
(396,-29,o),
(367,-77,o),
(367,-114,cs),
(367,-186,o),
(431,-212,o),
(513,-212,cs)
);
},
{
closed = 1;
nodes = (
(255,136,o),
(231,182,o),
(231,260,cs),
(231,338,o),
(255,384,o),
(319,384,cs),
(383,384,o),
(407,338,o),
(407,260,cs),
(407,182,o),
(383,136,o),
(319,136,cs)
);
}
);
width = 622;
}
);
},
{
color = 6;
glyphname = l.ss02;
lastChange = "2022-09-15 15:27:33 +0000";
layers = (
{
anchors = (
{
name = caron.alt;
pos = (134,520);
},
{
name = slash;
pos = (78,375);
},
{
name = top;
pos = (78,720);
}
);
guides = (
{
angle = 90;
pos = (94,720);
},
{
angle = 90;
pos = (62,720);
},
{
angle = 180;
pos = (94,520);
}
);
layerId = m01;
shapes = (
{
closed = 1;
nodes = (
(94,0,l),
(94,720,l),
(62,720,l),
(62,0,l)
);
}
);
width = 156;
},
{
anchors = (
{
name = caron.alt;
pos = (186,520);
},
{
name = slash;
pos = (104,370);
},
{
name = top;
pos = (104,720);
}
);
guides = (
{
angle = 90;
pos = (146,720);
},
{
angle = 90;
pos = (62,720);
},
{
angle = 180;
pos = (146,520);
}
);
layerId = m002;
shapes = (
{
closed = 1;
nodes = (
(146,0,l),
(146,720,l),
(62,720,l),
(62,0,l)
);
}
);
width = 208;
},
{
anchors = (
{
name = caron.alt;
pos = (270,520);
},
{
name = slash;
pos = (136,364);
},
{
name = top;
pos = (136,720);
}
);
guides = (
{
angle = 90;
pos = (230,720);
},
{
angle = 90;
pos = (42,720);
},
{
angle = 180;
pos = (230,520);
}
);
layerId = m003;
shapes = (
{
closed = 1;
nodes = (
(230,0,l),
(230,720,l),
(42,720,l),
(42,0,l)
);
}
);
width = 272;
}
);
},
{
color = 5;
glyphname = lslash.ss02;
lastChange = "2022-09-15 15:35:13 +0000";
layers = (
{
layerId = m01;
shapes = (
{
closed = 1;
nodes = (
(94,0,l),
(94,367,l),
(186,410,l),
(186,440,l),
(94,397,l),
(94,720,l),
(62,720,l),
(62,383,l),
(-30,340,l),
(-30,310,l),
(62,353,l),
(62,0,l)
);
}
);
width = 156;
},
{
layerId = m002;
shapes = (
{
closed = 1;
nodes = (
(146,0,l),
(146,350,l),
(232,390,l),
(232,470,l),
(146,430,l),
(146,720,l),
(62,720,l),
(62,390,l),
(-24,350,l),
(-24,270,l),
(62,310,l),
(62,0,l)
);
}
);
width = 208;
},
{
layerId = m003;
shapes = (
{
closed = 1;
nodes = (
(230,0,l),
(230,348,l),
(306,380,l),
(306,490,l),
(230,458,l),
(230,720,l),
(42,720,l),
(42,378,l),
(-34,346,l),
(-34,236,l),
(42,268,l),
(42,0,l)
);
}
);
width = 272;
}
);
},
{
color = 6;
glyphname = t.ss03;
lastChange = "2022-09-15 15:29:10 +0000";
layers = (
{
anchors = (
{
name = caron.alt;
pos = (186,520);
},
{
name = cedilla;
pos = (130,0);
},
{
name = top;
pos = (130,680);
}
);
guides = (
{
angle = 90;
pos = (272,0);
},
{
angle = 90;
pos = (114,0);
},
{
angle = 90;
pos = (146,0);
},
{
angle = 90;
pos = (14,0);
}
);
layerId = m01;
shapes = (
{
closed = 1;
nodes = (
(146,0,l),
(146,492,l),
(272,492,l),
(272,520,l),
(146,520,l),
(146,680,l),
(114,680,l),
(114,520,l),
(14,520,l),
(14,492,l),
(114,492,l),
(114,0,l)
);
}
);
width = 296;
},
{
anchors = (
{
name = caron.alt;
pos = (230,520);
},
{
name = cedilla;
pos = (156,0);
},
{
name = top;
pos = (156,680);
}
);
guides = (
{
angle = 90;
pos = (114,0);
},
{
angle = 90;
pos = (198,0);
},
{
angle = 90;
pos = (18,0);
},
{
angle = 90;
pos = (318,0);
}
);
layerId = m002;
shapes = (
{
closed = 1;
nodes = (
(198,0,l),
(198,446,l),
(318,446,l),
(318,520,l),
(198,520,l),
(198,680,l),
(114,680,l),
(114,520,l),
(18,520,l),
(18,446,l),
(114,446,l),
(114,0,l)
);
}
);
width = 346;
},
{
anchors = (
{
name = caron.alt;
pos = (316,520);
},
{
name = cedilla;
pos = (190,0);
},
{
name = top;
pos = (190,680);
}
);
guides = (
{
angle = 90;
pos = (96,0);
},
{
angle = 90;
pos = (284,0);
},
{
angle = 90;
pos = (12,0);
},
{
angle = 90;
pos = (384,0);
}
);
layerId = m003;
shapes = (
{
closed = 1;
nodes = (
(284,0,l),
(284,388,l),
(384,388,l),
(384,520,l),
(284,520,l),
(284,680,l),
(96,680,l),
(96,520,l),
(12,520,l),
(12,388,l),
(96,388,l),
(96,0,l)
);
}
);
width = 406;
}
);
},
{
color = 5;
glyphname = tcedilla.ss03;
lastChange = "2022-09-15 15:35:44 +0000";
layers = (
{
layerId = m01;
shapes = (
{
closed = 1;
nodes = (
(178,-212,o),
(222,-187,o),
(222,-135,cs),
(222,-83,o),
(178,-61,o),
(107,-61,cs),
(101,-61,l),
(144,0,l),
(146,0,l),
(146,492,l),
(272,492,l),
(272,520,l),
(146,520,l),
(146,680,l),
(114,680,l),
(114,520,l),
(14,520,l),
(14,492,l),
(114,492,l),
(114,0,l),
(115,0,l),
(74,-63,l),
(74,-84,l),
(82,-83,o),
(92,-82,o),
(100,-82,cs),
(163,-82,o),
(192,-99,o),
(192,-135,cs),
(192,-171,o),
(162,-189,o),
(100,-189,cs),
(81,-189,o),
(63,-187,o),
(44,-183,c),
(44,-205,l),
(66,-211,o),
(88,-212,o),
(110,-212,cs)
);
}
);
width = 296;
},
{
layerId = m002;
shapes = (
{
closed = 1;
nodes = (
(214,-224,o),
(256,-178,o),
(256,-128,cs),
(256,-78,o),
(214,-45,o),
(153,-45,cs),
(149,-45,l),
(190,0,l),
(198,0,l),
(198,446,l),
(318,446,l),
(318,520,l),
(198,520,l),
(198,680,l),
(114,680,l),
(114,520,l),
(18,520,l),
(18,446,l),
(114,446,l),
(114,0,l),
(120,0,l),
(83,-50,l),
(83,-91,l),
(93,-89,o),
(104,-89,o),
(114,-89,cs),
(156,-89,o),
(176,-102,o),
(176,-128,cs),
(176,-154,o),
(156,-172,o),
(104,-172,cs),
(92,-172,o),
(70,-170,o),
(48,-166,c),
(48,-216,l),
(73,-222,o),
(99,-224,o),
(124,-224,cs)
);
}
);
width = 346;
},
{
layerId = m003;
shapes = (
{
closed = 1;
nodes = (
(273,-224,o),
(322,-176,o),
(322,-124,cs),
(322,-72,o),
(273,-44,o),
(197,-44,cs),
(186,-44,l),
(228,0,l),
(284,0,l),
(284,388,l),
(384,388,l),
(384,520,l),
(284,520,l),
(284,680,l),
(96,680,l),
(96,520,l),
(12,520,l),
(12,388,l),
(96,388,l),
(96,0,l),
(152,0,l),
(113,-51,l),
(113,-91,l),
(123,-89,o),
(133,-89,o),
(143,-89,cs),
(183,-89,o),
(200,-102,o),
(200,-124,cs),
(200,-146,o),
(183,-160,o),
(135,-160,cs),
(121,-160,o),
(100,-158,o),
(78,-154,c),
(78,-216,l),
(103,-222,o),
(128,-224,o),
(153,-224,cs)
);
}
);
width = 406;
}
);
},
{
color = 6;
glyphname = u.ss04;
lastChange = "2022-09-15 15:27:33 +0000";
layers = (
{
anchors = (
{
name = bottom;
pos = (262,0);
},
{
name = ogonek;
pos = (342,0);
},
{
name = top;
pos = (262,520);
}
);
guides = (
{
angle = 90;
pos = (94,520);
},
{
angle = 90;
pos = (430,520);
},
{
angle = 90;
pos = (62,520);
},
{
angle = 90;
pos = (462,520);
}
);
layerId = m01;
shapes = (
{
closed = 1;
nodes = (
(385,-12,o),
(462,57,o),
(462,197,cs),
(462,520,l),
(430,520,l),
(430,201,ls),
(430,73,o),
(363,16,o),
(262,16,cs),
(161,16,o),
(94,73,o),
(94,201,cs),
(94,520,l),
(62,520,l),
(62,197,ls),
(62,57,o),
(139,-12,o),
(262,-12,cs)
);
}
);
width = 524;
},
{
anchors = (
{
name = bottom;
pos = (278,0);
},
{
name = ogonek;
pos = (362,0);
},
{
name = top;
pos = (278,520);
}
);
guides = (
{
angle = 90;
pos = (494,520);
},
{
angle = 90;
pos = (62,520);
},
{
angle = 90;
pos = (146,520);
},
{
angle = 90;
pos = (410,520);
}
);
layerId = m002;
shapes = (
{
closed = 1;
nodes = (
(431,-12,o),
(494,86,o),
(494,188,cs),
(494,520,l),
(410,520,l),
(410,196,ls),
(410,114,o),
(363,62,o),
(278,62,cs),
(193,62,o),
(146,114,o),
(146,196,cs),
(146,520,l),
(62,520,l),
(62,188,ls),
(62,86,o),
(125,-12,o),
(278,-12,cs)
);
}
);
width = 556;
},
{
anchors = (
{
name = bottom;
pos = (307,0);
},
{
name = ogonek;
pos = (411,0);
},
{
name = top;
pos = (307,520);
}
);
guides = (
{
angle = 90;
pos = (572,520);
},
{
angle = 90;
pos = (42,520);
},
{
angle = 90;
pos = (228,520);
},
{
angle = 90;
pos = (386,520);
}
);
layerId = m003;
shapes = (
{
closed = 1;
nodes = (
(467,-12,o),
(572,54,o),
(572,230,cs),
(572,520,l),
(386,520,l),
(386,234,ls),
(386,172,o),
(371,134,o),
(307,134,cs),
(243,134,o),
(228,172,o),
(228,234,cs),
(228,520,l),
(42,520,l),
(42,230,ls),
(42,54,o),
(147,-12,o),
(307,-12,cs)
);
}
);
width = 614;
}
);
},
{
color = 5;
glyphname = uogonek.ss04;
lastChange = "2022-09-15 15:36:17 +0000";
layers = (
{
layerId = m01;
shapes = (
{
closed = 1;
nodes = (
(299,-212,o),
(321,-209,o),
(342,-199,c),
(342,-172,l),
(322,-181,o),
(304,-184,o),
(284,-184,cs),
(246,-184,o),
(217,-168,o),
(217,-130,cs),
(217,-92,o),
(264,-44,o),
(342,0,c),
(417,25,o),
(462,90,o),
(462,197,cs),
(462,520,l),
(430,520,l),
(430,201,ls),
(430,73,o),
(363,16,o),
(262,16,cs),
(161,16,o),
(94,73,o),
(94,201,cs),
(94,520,l),
(62,520,l),
(62,197,ls),
(62,39,o),
(161,-23,o),
(290,-11,c),
(229,-47,o),
(186,-88,o),
(186,-138,cs),
(186,-184,o),
(222,-212,o),
(278,-212,cs)
);
}
);
width = 524;
},
{
layerId = m002;
shapes = (
{
closed = 1;
nodes = (
(315,-212,o),
(339,-209,o),
(362,-201,c),
(362,-133,l),
(345,-139,o),
(329,-142,o),
(312,-142,cs),
(280,-142,o),
(258,-129,o),
(258,-99,cs),
(258,-69,o),
(296,-36,o),
(361,0,c),
(454,29,o),
(494,107,o),
(494,188,cs),
(494,520,l),
(410,520,l),
(410,196,ls),
(410,114,o),
(363,62,o),
(278,62,cs),
(193,62,o),
(146,114,o),
(146,196,cs),
(146,520,l),
(62,520,l),
(62,188,ls),
(62,90,o),
(120,-4,o),
(260,-12,c),
(216,-35,o),
(178,-71,o),
(178,-119,cs),
(178,-181,o),
(226,-212,o),
(292,-212,cs)
);
}
);
width = 556;
},
{
layerId = m003;
shapes = (
{
closed = 1;
nodes = (
(354,-212,o),
(388,-209,o),
(411,-202,c),
(411,-110,l),
(397,-114,o),
(383,-116,o),
(369,-116,cs),
(341,-116,o),
(319,-107,o),
(319,-83,cs),
(319,-59,o),
(337,-34,o),
(410,-1,c),
(510,25,o),
(572,95,o),
(572,230,cs),
(572,520,l),
(386,520,l),
(386,234,ls),
(386,172,o),
(371,134,o),
(307,134,cs),
(243,134,o),
(228,172,o),
(228,234,cs),
(228,520,l),
(42,520,l),
(42,230,ls),
(42,72,o),
(127,3,o),
(259,-10,c),
(208,-39,o),
(185,-81,o),
(185,-114,cs),
(185,-186,o),
(249,-212,o),
(331,-212,cs)
);
}
);
width = 614;
}
);
},
{
color = 6;
glyphname = y.ss05;
lastChange = "2022-09-15 15:29:33 +0000";
layers = (
{
anchors = (
{
name = top;
pos = (255,520);
}
);
guides = (
{
angle = 90;
pos = (54,520);
},
{
angle = 90;
pos = (456,520);
}
);
layerId = m01;
shapes = (
{
closed = 1;
nodes = (
(187,-200,l),
(490,520,l),
(456,520,l),
(254,36,l),
(54,520,l),
(20,520,l),
(239,1,l),
(155,-200,l)
);
}
);
width = 510;
},
{
anchors = (
{
name = top;
pos = (259,520);
}
);
guides = (
{
angle = 90;
pos = (99,520);
},
{
angle = 90;
pos = (419,520);
}
);
layerId = m002;
shapes = (
{
closed = 1;
nodes = (
(222,-200,l),
(510,520,l),
(419,520,l),
(261,113,l),
(99,520,l),
(8,520,l),
(221,10,l),
(139,-200,l)
);
}
);
width = 518;
},
{
anchors = (
{
name = top;
pos = (303,520);
}
);
guides = (
{
angle = 90;
pos = (204,520);
},
{
angle = 90;
pos = (402,520);
}
);
layerId = m003;
shapes = (
{
closed = 1;
nodes = (
(295,-200,l),
(604,520,l),
(402,520,l),
(302,224,l),
(204,520,l),
(2,520,l),
(208,16,l),
(115,-200,l)
);
}
);
width = 606;
}
);
},
{
color = 4;
glyphname = zero;
lastChange = "2022-09-14 12:54:03 +0000";
layers = (
{
layerId = m01;
shapes = (
{
closed = 1;
nodes = (
(465,-12,o),
(522,154,o),
(522,360,cs),
(522,566,o),
(465,732,o),
(289,732,cs),
(113,732,o),
(56,566,o),
(56,360,cs),
(56,154,o),
(113,-12,o),
(289,-12,cs)
);
},
{
closed = 1;
nodes = (
(133,18,o),
(88,172,o),
(88,360,cs),
(88,548,o),
(133,702,o),
(289,702,cs),
(445,702,o),
(490,548,o),
(490,360,cs),
(490,172,o),
(445,18,o),
(289,18,cs)
);
}
);
width = 578;
},
{
layerId = m002;
shapes = (
{
closed = 1;
nodes = (
(487,-12,o),
(552,144,o),
(552,360,cs),
(552,576,o),
(487,732,o),
(301,732,cs),
(115,732,o),
(50,576,o),
(50,360,cs),
(50,144,o),
(115,-12,o),
(301,-12,cs)
);
},
{
closed = 1;
nodes = (
(181,68,o),
(142,184,o),
(142,360,cs),
(142,536,o),
(181,652,o),
(301,652,cs),
(421,652,o),
(460,536,o),
(460,360,cs),
(460,184,o),
(421,68,o),
(301,68,cs)
);
}
);
width = 602;
},
{
layerId = m003;
shapes = (
{
closed = 1;
nodes = (
(569,-12,o),
(658,144,o),
(658,360,cs),
(658,576,o),
(569,732,o),
(345,732,cs),
(121,732,o),
(32,576,o),
(32,360,cs),
(32,144,o),
(121,-12,o),
(345,-12,cs)
);
},
{
closed = 1;
nodes = (
(263,154,o),
(244,232,o),
(244,360,cs),
(244,488,o),
(263,566,o),
(345,566,cs),
(427,566,o),
(446,488,o),
(446,360,cs),
(446,232,o),
(427,154,o),
(345,154,cs)
);
}
);
width = 690;
}
);
unicode = 48;
},
{
color = 4;
glyphname = one;
lastChange = "2022-09-14 12:54:03 +0000";
layers = (
{
layerId = m01;
shapes = (
{
closed = 1;
nodes = (
(247,0,l),
(247,720,l),
(216,720,l),
(46,590,l),
(46,552,l),
(215,681,l),
(215,0,l)
);
}
);
width = 313;
},
{
layerId = m002;
shapes = (
{
closed = 1;
nodes = (
(299,0,l),
(299,720,l),
(217,720,l),
(48,596,l),
(48,495,l),
(211,615,l),
(211,0,l)
);
}
);
width = 367;
},
{
layerId = m003;
shapes = (
{
closed = 1;
nodes = (
(366,0,l),
(366,720,l),
(174,720,l),
(22,619,l),
(22,419,l),
(162,514,l),
(162,0,l)
);
}
);
width = 418;
}
);
unicode = 49;
},
{
color = 4;
glyphname = two;
lastChange = "2022-09-14 12:54:03 +0000";
layers = (
{
layerId = m01;
shapes = (
{
closed = 1;
nodes = (
(486,0,l),
(486,31,l),
(87,31,l),
(351,307,ls),
(424,384,o),
(473,461,o),
(473,543,cs),
(473,646,o),
(397,732,o),
(267,732,cs),
(143,732,o),
(54,645,o),
(48,517,c),
(80,517,l),
(84,631,o),
(168,702,o),
(268,702,cs),
(368,702,o),
(442,639,o),
(442,545,cs),
(442,463,o),
(389,392,o),
(332,332,cs),
(48,30,l),
(48,0,l)
);
}
);
width = 524;
},
{
layerId = m002;
shapes = (
{
closed = 1;
nodes = (
(520,0,l),
(520,80,l),
(163,80,l),
(390,301,ls),
(453,363,o),
(510,445,o),
(510,533,cs),
(510,639,o),
(426,732,o),
(285,732,cs),
(144,732,o),
(49,645,o),
(48,493,c),
(136,493,l),
(135,601,o),
(199,652,o),
(285,652,cs),
(371,652,o),
(424,606,o),
(424,533,cs),
(424,464,o),
(382,408,o),
(330,356,cs),
(48,78,l),
(48,0,l)
);
}
);
width = 554;
},
{
layerId = m003;
shapes = (
{
closed = 1;
nodes = (
(588,0,l),
(588,166,l),
(301,166,l),
(451,289,ls),
(515,341,o),
(582,409,o),
(582,515,cs),
(582,649,o),
(465,732,o),
(309,732,cs),
(117,732,o),
(29,636,o),
(30,476,c),
(224,476,l),
(223,535,o),
(253,566,o),
(309,566,cs),
(353,566,o),
(384,542,o),
(384,500,cs),
(384,456,o),
(360,421,o),
(325,393,cs),
(30,156,l),
(30,0,l)
);
}
);
width = 626;
}
);
unicode = 50;
},
{
color = 4;
glyphname = three;
lastChange = "2022-09-14 12:54:03 +0000";
layers = (
{
layerId = m01;
shapes = (
{
closed = 1;
nodes = (
(408,-12,o),
(500,68,o),
(500,186,cs),
(500,279,o),
(448,348,o),
(349,372,c),
(442,400,o),
(480,477,o),
(480,549,cs),
(480,647,o),
(399,732,o),
(274,732,cs),
(145,732,o),
(68,649,o),
(59,519,c),
(91,519,l),
(98,636,o),
(163,702,o),
(275,702,cs),
(373,702,o),
(448,641,o),
(448,549,cs),
(448,460,o),
(389,383,o),
(249,383,cs),
(207,383,l),
(207,355,l),
(249,355,ls),
(385,355,o),
(468,301,o),
(468,186,cs),
(468,84,o),
(391,18,o),
(274,18,cs),
(147,18,o),
(85,90,o),
(76,201,c),
(44,201,l),
(55,64,o),
(135,-12,o),
(274,-12,cs)
);
}
);
width = 538;
},
{
layerId = m002;
shapes = (
{
closed = 1;
nodes = (
(443,-12,o),
(535,79,o),
(535,200,cs),
(535,282,o),
(494,345,o),
(405,373,c),
(484,412,o),
(515,481,o),
(515,537,cs),
(515,641,o),
(431,732,o),
(289,732,cs),
(129,732,o),
(58,645,o),
(52,506,c),
(140,506,l),
(143,601,o),
(188,652,o),
(287,652,cs),
(368,652,o),
(427,610,o),
(427,537,cs),
(427,460,o),
(370,405,o),
(265,405,cs),
(214,405,l),
(214,327,l),
(272,327,ls),
(382,327,o),
(447,296,o),
(447,200,cs),
(447,120,o),
(388,68,o),
(293,68,cs),
(182,68,o),
(139,122,o),
(136,214,c),
(48,214,l),
(50,72,o),
(134,-12,o),
(293,-12,cs)
);
}
);
width = 573;
},
{
layerId = m003;
shapes = (
{
closed = 1;
nodes = (
(513,-12,o),
(611,83,o),
(611,212,cs),
(611,285,o),
(571,349,o),
(493,379,c),
(566,404,o),
(592,463,o),
(592,526,cs),
(592,635,o),
(500,732,o),
(321,732,cs),
(141,732,o),
(47,647,o),
(47,496,c),
(241,496,l),
(241,550,o),
(271,576,o),
(318,576,cs),
(365,576,o),
(394,550,o),
(394,505,cs),
(394,448,o),
(355,438,o),
(286,438,cs),
(242,438,l),
(242,300,l),
(301,300,ls),
(366,300,o),
(411,287,o),
(411,224,cs),
(411,174,o),
(376,144,o),
(321,144,cs),
(268,144,o),
(229,174,o),
(226,233,c),
(32,233,l),
(34,75,o),
(135,-12,o),
(325,-12,cs)
);
}
);
width = 639;
}
);
unicode = 51;
},
{
color = 4;
glyphname = four;
lastChange = "2022-09-14 12:54:03 +0000";
layers = (
{
layerId = m01;
shapes = (
{
closed = 1;
nodes = (
(448,0,l),
(448,188,l),
(566,188,l),
(566,218,l),
(448,218,l),
(448,720,l),
(412,720,l),
(28,220,l),
(28,188,l),
(416,188,l),
(416,0,l)
);
},
{
closed = 1;
nodes = (
(416,678,l),
(416,218,l),
(66,218,l)
);
}
);
width = 584;
},
{
layerId = m002;
shapes = (
{
closed = 1;
nodes = (
(478,0,l),
(478,164,l),
(578,164,l),
(578,244,l),
(478,244,l),
(478,720,l),
(384,720,l),
(28,248,l),
(28,164,l),
(390,164,l),
(390,0,l)
);
},
{
closed = 1;
nodes = (
(390,604,l),
(390,244,l),
(122,244,l)
);
}
);
width = 600;
},
{
layerId = m003;
shapes = (
{
closed = 1;
nodes = (
(578,0,l),
(578,132,l),
(672,132,l),
(672,298,l),
(578,298,l),
(578,720,l),
(354,720,l),
(38,318,l),
(38,132,l),
(374,132,l),
(374,0,l)
);
},
{
closed = 1;
nodes = (
(380,531,l),
(380,298,l),
(203,298,l)
);
}
);
width = 704;
}
);
unicode = 52;
},
{
color = 4;
glyphname = five;
lastChange = "2022-09-14 12:54:03 +0000";
layers = (
{
layerId = m01;
shapes = (
{
closed = 1;
nodes = (
(410,-12,o),
(493,89,o),
(493,224,cs),
(493,359,o),
(411,460,o),
(274,460,cs),
(199,460,o),
(148,437,o),
(107,387,c),
(150,690,l),
(461,690,l),
(461,720,l),
(123,720,l),
(64,314,l),
(93,314,l),
(125,384,o),
(179,430,o),
(273,430,cs),
(389,430,o),
(460,343,o),
(460,224,cs),
(460,105,o),
(389,18,o),
(273,18,cs),
(163,18,o),
(98,87,o),
(84,179,c),
(52,179,l),
(65,71,o),
(142,-12,o),
(273,-12,cs)
);
}
);
width = 527;
},
{
layerId = m002;
shapes = (
{
closed = 1;
nodes = (
(437,-12,o),
(521,94,o),
(521,230,cs),
(521,366,o),
(444,472,o),
(287,472,cs),
(236,472,o),
(195,456,o),
(161,429,c),
(192,640,l),
(490,640,l),
(490,720,l),
(122,720,l),
(62,306,l),
(144,306,l),
(170,360,o),
(205,392,o),
(280,392,cs),
(374,392,o),
(429,326,o),
(429,230,cs),
(429,134,o),
(374,68,o),
(280,68,cs),
(200,68,o),
(143,116,o),
(136,196,c),
(48,196,l),
(55,76,o),
(138,-12,o),
(280,-12,cs)
);
}
);
width = 559;
},
{
layerId = m003;
shapes = (
{
closed = 1;
nodes = (
(461,-12,o),
(593,81,o),
(593,246,cs),
(593,361,o),
(518,480,o),
(352,480,cs),
(315,480,o),
(272,473,o),
(239,449,c),
(256,554,l),
(556,554,l),
(556,720,l),
(100,720,l),
(36,295,l),
(224,295,l),
(239,323,o),
(270,348,o),
(309,348,cs),
(366,348,o),
(405,305,o),
(405,246,cs),
(405,187,o),
(366,142,o),
(309,142,cs),
(253,142,o),
(226,174,o),
(218,208,c),
(28,208,l),
(49,70,o),
(156,-12,o),
(309,-12,cs)
);
}
);
width = 615;
}
);
unicode = 53;
},
{
color = 4;
glyphname = six;
lastChange = "2022-09-14 12:54:03 +0000";
layers = (
{
layerId = m01;
shapes = (
{
closed = 1;
nodes = (
(433,-12,o),
(516,89,o),
(516,223,cs),
(516,357,o),
(433,458,o),
(297,458,cs),
(180,458,o),
(108,384,o),
(90,278,c),
(78,464,o),
(108,702,o),
(297,702,cs),
(383,702,o),
(447,637,o),
(465,550,c),
(497,550,l),
(478,652,o),
(403,732,o),
(297,732,cs),
(123,732,o),
(56,570,o),
(56,353,cs),
(56,222,o),
(83,101,o),
(158,36,cs),
(193,6,o),
(238,-12,o),
(297,-12,cs)
);
},
{
closed = 1;
nodes = (
(183,18,o),
(111,105,o),
(111,223,cs),
(111,341,o),
(183,428,o),
(297,428,cs),
(411,428,o),
(483,341,o),
(483,223,cs),
(483,105,o),
(411,18,o),
(297,18,cs)
);
}
);
width = 568;
},
{
layerId = m002;
shapes = (
{
closed = 1;
nodes = (
(458,-12,o),
(542,93,o),
(542,229,cs),
(542,365,o),
(458,470,o),
(306,470,cs),
(232,470,o),
(173,435,o),
(136,379,c),
(137,551,o),
(197,652,o),
(306,652,cs),
(373,652,o),
(427,611,o),
(442,535,c),
(528,535,l),
(508,656,o),
(419,732,o),
(306,732,cs),
(138,732,o),
(51,584,o),
(51,357,cs),
(51,230,o),
(71,109,o),
(159,39,cs),
(198,8,o),
(242,-12,o),
(306,-12,cs)
);
},
{
closed = 1;
nodes = (
(218,68,o),
(161,133,o),
(161,229,cs),
(161,325,o),
(218,390,o),
(306,390,cs),
(394,390,o),
(451,325,o),
(451,229,cs),
(451,133,o),
(394,68,o),
(306,68,cs)
);
}
);
width = 590;
},
{
layerId = m003;
shapes = (
{
closed = 1;
nodes = (
(489,-12,o),
(606,81,o),
(606,245,cs),
(606,359,o),
(541,477,o),
(365,477,cs),
(299,477,o),
(250,454,o),
(216,419,c),
(224,550,o),
(265,588,o),
(329,588,cs),
(367,588,o),
(398,567,o),
(408,520,c),
(592,520,l),
(574,655,o),
(466,732,o),
(327,732,cs),
(140,732,o),
(32,600,o),
(32,340,cs),
(32,197,o),
(73,96,o),
(154,40,cs),
(202,6,o),
(256,-12,o),
(327,-12,cs)
);
},
{
closed = 1;
nodes = (
(260,140,o),
(234,186,o),
(234,240,cs),
(234,293,o),
(260,339,o),
(327,339,cs),
(394,339,o),
(420,293,o),
(420,240,cs),
(420,186,o),
(394,140,o),
(327,140,cs)
);
}
);
width = 634;
}
);
unicode = 54;
},
{
color = 4;
glyphname = seven;
lastChange = "2022-09-14 12:54:03 +0000";
layers = (
{
layerId = m01;
shapes = (
{
closed = 1;
nodes = (
(165,0,l),
(466,692,l),
(466,720,l),
(26,720,l),
(26,690,l),
(432,690,l),
(132,0,l)
);
}
);
width = 492;
},
{
layerId = m002;
shapes = (
{
closed = 1;
nodes = (
(197,0,l),
(476,646,l),
(476,720,l),
(22,720,l),
(22,640,l),
(388,640,l),
(106,0,l)
);
}
);
width = 498;
},
{
layerId = m003;
shapes = (
{
closed = 1;
nodes = (
(296,0,l),
(538,566,l),
(538,720,l),
(12,720,l),
(12,554,l),
(334,554,l),
(88,0,l)
);
}
);
width = 550;
}
);
unicode = 55;
},
{
color = 4;
glyphname = eight;
lastChange = "2022-09-14 12:54:03 +0000";
layers = (
{
layerId = m01;
shapes = (
{
closed = 1;
nodes = (
(428,-12,o),
(520,75,o),
(520,194,cs),
(520,288,o),
(457,359,o),
(362,385,c),
(437,410,o),
(493,468,o),
(493,550,cs),
(493,661,o),
(400,732,o),
(278,732,cs),
(156,732,o),
(63,661,o),
(63,550,cs),
(63,468,o),
(119,410,o),
(194,385,c),
(99,359,o),
(36,288,o),
(36,194,cs),
(36,75,o),
(128,-12,o),
(278,-12,cs)
);
},
{
closed = 1;
nodes = (
(146,18,o),
(69,92,o),
(69,194,cs),
(69,296,o),
(146,370,o),
(278,370,cs),
(410,370,o),
(487,296,o),
(487,194,cs),
(487,92,o),
(410,18,o),
(278,18,cs)
);
},
{
closed = 1;
nodes = (
(177,398,o),
(96,456,o),
(96,550,cs),
(96,644,o),
(177,702,o),
(278,702,cs),
(379,702,o),
(460,644,o),
(460,550,cs),
(460,456,o),
(379,398,o),
(278,398,cs)
);
}
);
width = 556;
},
{
layerId = m002;
shapes = (
{
closed = 1;
nodes = (
(430,-12,o),
(536,72,o),
(536,207,cs),
(536,297,o),
(484,356,o),
(409,385,c),
(466,411,o),
(508,459,o),
(508,536,cs),
(508,663,o),
(403,732,o),
(287,732,cs),
(171,732,o),
(66,663,o),
(66,536,cs),
(66,459,o),
(108,411,o),
(165,385,c),
(90,356,o),
(38,297,o),
(38,207,cs),
(38,72,o),
(144,-12,o),
(287,-12,cs)
);
},
{
closed = 1;
nodes = (
(196,68,o),
(130,117,o),
(130,207,cs),
(130,297,o),
(196,346,o),
(287,346,cs),
(378,346,o),
(444,297,o),
(444,207,cs),
(444,117,o),
(378,68,o),
(287,68,cs)
);
},
{
closed = 1;
nodes = (
(216,420,o),
(154,459,o),
(154,536,cs),
(154,613,o),
(216,652,o),
(287,652,cs),
(358,652,o),
(420,613,o),
(420,536,cs),
(420,459,o),
(358,420,o),
(287,420,cs)
);
}
);
width = 574;
},
{
layerId = m003;
shapes = (
{
closed = 1;
nodes = (
(501,-12,o),
(612,82,o),
(612,207,cs),
(612,283,o),
(575,343,o),
(502,379,c),
(554,415,o),
(583,467,o),
(583,531,cs),
(583,652,o),
(478,732,o),
(316,732,cs),
(154,732,o),
(49,652,o),
(49,531,cs),
(49,467,o),
(78,415,o),
(130,379,c),
(57,343,o),
(20,283,o),
(20,207,cs),
(20,82,o),
(131,-12,o),
(316,-12,cs)
);
},
{
closed = 1;
nodes = (
(242,140,o),
(216,185,o),
(216,228,cs),
(216,273,o),
(245,315,o),
(316,315,cs),
(387,315,o),
(416,273,o),
(416,228,cs),
(416,185,o),
(390,140,o),
(316,140,cs)
);
},
{
closed = 1;
nodes = (
(251,435,o),
(227,475,o),
(227,513,cs),
(227,554,o),
(254,594,o),
(316,594,cs),
(378,594,o),
(405,554,o),
(405,513,cs),
(405,475,o),
(381,435,o),
(316,435,cs)
);
}
);
width = 630;
}
);
unicode = 56;
},
{
color = 6;
glyphname = three.ss09;
lastChange = "2022-09-15 15:24:00 +0000";
layers = (
{
layerId = m01;
shapes = (
{
closed = 1;
nodes = (
(408,-12,o),
(500,78,o),
(500,206,cs),
(500,313,o),
(444,417,o),
(237,425,c),
(480,692,l),
(480,720,l),
(64,720,l),
(64,690,l),
(440,690,l),
(197,421,l),
(197,395,l),
(209,395,ls),
(385,395,o),
(468,331,o),
(468,206,cs),
(468,94,o),
(396,18,o),
(274,18,cs),
(152,18,o),
(81,90,o),
(76,201,c),
(44,201,l),
(55,64,o),
(140,-12,o),
(274,-12,cs)
);
}
);
width = 538;
},
{
layerId = m002;
shapes = (
{
closed = 1;
nodes = (
(440,-12,o),
(533,89,o),
(533,210,cs),
(533,341,o),
(461,419,o),
(311,440,c),
(520,646,l),
(520,720,l),
(68,720,l),
(68,640,l),
(407,640,l),
(200,437,l),
(200,367,l),
(231,367,ls),
(380,367,o),
(445,316,o),
(445,210,cs),
(445,130,o),
(392,68,o),
(292,68,cs),
(192,68,o),
(139,122,o),
(136,214,c),
(48,214,l),
(50,72,o),
(144,-12,o),
(292,-12,cs)
);
}
);
width = 571;
},
{
layerId = m003;
shapes = (
{
closed = 1;
nodes = (
(513,-12,o),
(611,95,o),
(611,224,cs),
(611,342,o),
(538,409,o),
(432,439,c),
(581,566,l),
(581,720,l),
(58,720,l),
(58,554,l),
(351,554,l),
(212,438,l),
(212,320,l),
(291,320,ls),
(376,320,o),
(411,287,o),
(411,234,cs),
(411,174,o),
(366,144,o),
(321,144,cs),
(268,144,o),
(229,174,o),
(226,233,c),
(32,233,l),
(34,75,o),
(135,-12,o),
(325,-12,cs)
);
}
);
width = 639;
}
);
},
{
color = 6;
glyphname = six.ss09;
lastChange = "2022-09-15 15:25:29 +0000";
layers = (
{
layerId = m01;
shapes = (
{
closed = 1;
nodes = (
(411,-12,o),
(494,89,o),
(494,223,cs),
(494,357,o),
(411,458,o),
(275,458,cs),
(244,458,o),
(216,453,o),
(190,443,c),
(392,720,l),
(352,720,l),
(106,381,ls),
(74,339,o),
(56,285,o),
(56,223,cs),
(56,89,o),
(139,-12,o),
(275,-12,cs)
);
},
{
closed = 1;
nodes = (
(161,18,o),
(89,105,o),
(89,223,cs),
(89,341,o),
(161,428,o),
(275,428,cs),
(389,428,o),
(461,341,o),
(461,223,cs),
(461,105,o),
(389,18,o),
(275,18,cs)
);
}
);
width = 546;
},
{
layerId = m002;
shapes = (
{
closed = 1;
nodes = (
(440,-12,o),
(524,93,o),
(524,229,cs),
(524,365,o),
(440,470,o),
(288,470,cs),
(280,470,o),
(273,470,o),
(266,469,c),
(450,720,l),
(344,720,l),
(102,387,ls),
(69,345,o),
(52,290,o),
(52,229,cs),
(52,93,o),
(136,-12,o),
(288,-12,cs)
);
},
{
closed = 1;
nodes = (
(200,68,o),
(144,133,o),
(144,229,cs),
(144,325,o),
(200,390,o),
(288,390,cs),
(376,390,o),
(432,325,o),
(432,229,cs),
(432,133,o),
(376,68,o),
(288,68,cs)
);
}
);
width = 572;
},
{
layerId = m003;
shapes = (
{
closed = 1;
nodes = (
(473,-12,o),
(590,81,o),
(590,245,cs),
(590,382,o),
(508,470,o),
(386,495,cs),
(373,498,o),
(359,500,o),
(345,501,c),
(508,720,l),
(314,720,l),
(84,407,ls),
(51,365,o),
(32,311,o),
(32,245,cs),
(32,81,o),
(149,-12,o),
(311,-12,cs)
);
},
{
closed = 1;
nodes = (
(244,140,o),
(218,186,o),
(218,245,cs),
(218,304,o),
(244,350,o),
(311,350,cs),
(378,350,o),
(404,304,o),
(404,245,cs),
(404,186,o),
(378,140,o),
(311,140,cs)
);
}
);
width = 618;
}
);
},
{
color = 6;
glyphname = one.ss10;
lastChange = "2022-09-15 15:24:00 +0000";
layers = (
{
layerId = m01;
shapes = (
{
closed = 1;
nodes = (
(206,0,l),
(206,720,l),
(46,720,l),
(46,690,l),
(174,690,l),
(174,0,l)
);
}
);
width = 272;
},
{
layerId = m002;
shapes = (
{
closed = 1;
nodes = (
(260,0,l),
(260,720,l),
(48,720,l),
(48,640,l),
(172,640,l),
(172,0,l)
);
}
);
width = 328;
},
{
layerId = m003;
shapes = (
{
closed = 1;
nodes = (
(336,0,l),
(336,720,l),
(22,720,l),
(22,554,l),
(132,554,l),
(132,0,l)
);
}
);
width = 388;
}
);
},
{
color = 6;
glyphname = four.ss10;
lastChange = "2022-09-15 15:24:13 +0000";
layers = (
{
layerId = m01;
shapes = (
{
closed = 1;
nodes = (
(418,0,l),
(418,188,l),
(536,188,l),
(536,218,l),
(418,218,l),
(418,440,l),
(386,440,l),
(386,218,l),
(66,218,l),
(412,720,l),
(374,720,l),
(28,220,l),
(28,188,l),
(386,188,l),
(386,0,l)
);
}
);
width = 554;
},
{
layerId = m002;
shapes = (
{
closed = 1;
nodes = (
(468,0,l),
(468,164,l),
(568,164,l),
(568,244,l),
(468,244,l),
(468,440,l),
(380,440,l),
(380,244,l),
(122,244,l),
(444,720,l),
(350,720,l),
(28,248,l),
(28,164,l),
(380,164,l),
(380,0,l)
);
}
);
width = 590;
},
{
layerId = m003;
shapes = (
{
closed = 1;
nodes = (
(581,0,l),
(581,132,l),
(665,132,l),
(665,298,l),
(571,298,l),
(571,440,l),
(387,440,l),
(387,298,l),
(238,298,l),
(509,720,l),
(305,720,l),
(38,318,l),
(38,132,l),
(377,132,l),
(377,0,l)
);
}
);
width = 697;
}
);
},
{
glyphname = .notdef;
lastChange = "2022-08-14 12:03:15 +0000";
layers = (
{
layerId = m01;
shapes = (
{
attr = {
fill = "1";
};
closed = 1;
nodes = (
(550,0,l),
(550,720,l),
(70,720,l),
(70,0,l)
);
}
);
width = 620;
},
{
layerId = m002;
shapes = (
{
attr = {
fill = "1";
};
closed = 1;
nodes = (
(580,0,l),
(580,720,l),
(70,720,l),
(70,0,l)
);
}
);
width = 650;
},
{
layerId = m003;
shapes = (
{
attr = {
fill = "1";
};
closed = 1;
nodes = (
(650,0,l),
(650,720,l),
(70,720,l),
(70,0,l)
);
}
);
width = 720;
}
);
note = ".notdef";
},
{
color = 4;
glyphname = period;
lastChange = "2022-08-05 08:42:57 +0000";
layers = (
{
layerId = m01;
shapes = (
{
closed = 1;
nodes = (
(84,0,l),
(84,96,l),
(48,96,l),
(48,0,l)
);
}
);
width = 132;
},
{
layerId = m002;
shapes = (
{
closed = 1;
nodes = (
(148,0,l),
(148,124,l),
(48,124,l),
(48,0,l)
);
}
);
width = 196;
},
{
layerId = m003;
shapes = (
{
closed = 1;
nodes = (
(240,0,l),
(240,202,l),
(32,202,l),
(32,0,l)
);
}
);
width = 272;
}
);
unicode = 46;
},
{
color = 4;
glyphname = comma;
lastChange = "2022-08-05 08:43:12 +0000";
layers = (
{
layerId = m01;
shapes = (
{
closed = 1;
nodes = (
(20,-108,l),
(47,-108,l),
(95,96,l),
(59,96,l)
);
}
);
width = 143;
},
{
layerId = m002;
shapes = (
{
closed = 1;
nodes = (
(20,-134,l),
(91,-134,l),
(174,124,l),
(76,124,l)
);
}
);
width = 222;
},
{
layerId = m003;
shapes = (
{
closed = 1;
nodes = (
(16,-166,l),
(160,-166,l),
(288,202,l),
(84,202,l)
);
}
);
width = 320;
}
);
unicode = 44;
},
{
color = 4;
glyphname = exclam;
lastChange = "2022-08-04 16:54:33 +0000";
layers = (
{
guides = (
{
angle = 270;
pos = (49,500);
},
{
angle = 270;
pos = (83,500);
}
);
layerId = m01;
shapes = (
{
closed = 1;
nodes = (
(78,186,l),
(83,500,l),
(83,720,l),
(49,720,l),
(49,500,l),
(54,186,l)
);
},
{
ref = period;
}
);
width = 132;
},
{
guides = (
{
angle = 270;
pos = (48,500);
},
{
angle = 270;
pos = (136,500);
}
);
layerId = m002;
shapes = (
{
closed = 1;
nodes = (
(120,192,l),
(136,500,l),
(136,720,l),
(48,720,l),
(48,500,l),
(64,192,l)
);
},
{
pos = (-6,0);
ref = period;
}
);
width = 184;
},
{
guides = (
{
angle = 270;
pos = (34,500);
},
{
angle = 270;
pos = (238,500);
}
);
layerId = m003;
shapes = (
{
closed = 1;
nodes = (
(186,262,l),
(238,500,l),
(238,720,l),
(34,720,l),
(34,500,l),
(86,262,l)
);
},
{
ref = period;
}
);
width = 272;
}
);
unicode = 33;
},
{
color = 4;
glyphname = question;
lastChange = "2022-08-04 16:50:41 +0000";
layers = (
{
guides = (
{
angle = 270;
pos = (207,186);
},
{
angle = 270;
pos = (237,186);
}
);
layerId = m01;
shapes = (
{
closed = 1;
nodes = (
(237,186,l),
(237,276,o),
(265,310,o),
(344,378,cs),
(415,437,o),
(455,474,o),
(455,560,cs),
(455,657,o),
(376,732,o),
(246,732,cs),
(116,732,o),
(32,665,o),
(32,520,c),
(64,520,l),
(64,645,o),
(139,702,o),
(246,702,cs),
(353,702,o),
(422,644,o),
(422,560,cs),
(422,478,o),
(371,440,o),
(320,397,cs),
(237,326,o),
(207,288,o),
(207,186,c)
);
},
{
pos = (156,0);
ref = period;
}
);
width = 487;
},
{
guides = (
{
angle = 270;
pos = (203,192);
},
{
angle = 270;
pos = (285,192);
}
);
layerId = m002;
shapes = (
{
closed = 1;
nodes = (
(285,192,l),
(285,282,o),
(306,306,o),
(384,370,cs),
(454,429,o),
(488,467,o),
(488,551,cs),
(488,657,o),
(403,732,o),
(259,732,cs),
(115,732,o),
(28,659,o),
(28,503,c),
(116,503,l),
(116,608,o),
(173,652,o),
(259,652,cs),
(345,652,o),
(398,612,o),
(398,549,cs),
(398,482,o),
(358,451,o),
(316,415,cs),
(232,343,o),
(203,306,o),
(203,192,c)
);
},
{
pos = (146,0);
ref = period;
}
);
width = 516;
},
{
guides = (
{
angle = 270;
pos = (186,262);
},
{
angle = 270;
pos = (366,262);
}
);
layerId = m003;
shapes = (
{
closed = 1;
nodes = (
(366,262,l),
(366,308,o),
(400,333,o),
(456,363,cs),
(541,408,o),
(564,457,o),
(564,535,cs),
(564,655,o),
(460,732,o),
(286,732,cs),
(104,732,o),
(19,635,o),
(18,492,c),
(206,492,l),
(206,539,o),
(228,578,o),
(286,578,cs),
(344,578,o),
(360,545,o),
(360,524,cs),
(360,493,o),
(353,472,o),
(286,434,cs),
(206,388,o),
(186,351,o),
(186,262,c)
);
},
{
pos = (140,0);
ref = period;
}
);
width = 582;
}
);
unicode = 63;
},
{
color = 4;
glyphname = asterisk;
lastChange = "2022-09-14 12:57:49 +0000";
layers = (
{
guides = (
{
angle = 90;
pos = (238,720);
}
);
layerId = m01;
shapes = (
{
closed = 1;
nodes = (
(238,497,l),
(357,339,l),
(378,354,l),
(259,512,l),
(434,565,l),
(426,590,l),
(251,537,l),
(251,720,l),
(225,720,l),
(225,537,l),
(50,590,l),
(42,565,l),
(217,512,l),
(98,354,l),
(119,339,l)
);
}
);
width = 476;
},
{
guides = (
{
angle = 90;
pos = (245,720);
}
);
layerId = m002;
shapes = (
{
closed = 1;
nodes = (
(245,460,l),
(347,325,l),
(401,366,l),
(301,499,l),
(448,543,l),
(428,608,l),
(279,563,l),
(279,720,l),
(211,720,l),
(211,563,l),
(62,608,l),
(42,543,l),
(189,499,l),
(89,366,l),
(143,325,l)
);
}
);
width = 490;
},
{
guides = (
{
angle = 90;
pos = (223,720);
}
);
layerId = m003;
shapes = (
{
closed = 1;
nodes = (
(223,420,l),
(306,310,l),
(400,381,l),
(322,485,l),
(434,519,l),
(400,632,l),
(282,595,l),
(282,720,l),
(164,720,l),
(164,595,l),
(46,632,l),
(12,519,l),
(124,485,l),
(46,381,l),
(140,310,l)
);
}
);
width = 446;
}
);
unicode = 42;
},
{
color = 4;
glyphname = numbersign;
lastChange = "2022-09-14 12:57:45 +0000";
layers = (
{
layerId = m01;
shapes = (
{
closed = 1;
nodes = (
(143,0,l),
(189,237,l),
(379,237,l),
(333,0,l),
(365,0,l),
(411,237,l),
(536,237,l),
(542,265,l),
(417,265,l),
(453,455,l),
(578,455,l),
(584,483,l),
(459,483,l),
(505,720,l),
(473,720,l),
(427,483,l),
(237,483,l),
(283,720,l),
(251,720,l),
(205,483,l),
(80,483,l),
(74,455,l),
(199,455,l),
(163,265,l),
(38,265,l),
(32,237,l),
(157,237,l),
(111,0,l)
);
},
{
closed = 1;
nodes = (
(231,455,l),
(421,455,l),
(385,265,l),
(195,265,l)
);
}
);
width = 616;
},
{
layerId = m002;
shapes = (
{
closed = 1;
nodes = (
(180,0,l),
(220,208,l),
(380,208,l),
(340,0,l),
(424,0,l),
(464,208,l),
(568,208,l),
(582,280,l),
(478,280,l),
(510,440,l),
(614,440,l),
(628,512,l),
(524,512,l),
(564,720,l),
(480,720,l),
(440,512,l),
(280,512,l),
(320,720,l),
(236,720,l),
(196,512,l),
(92,512,l),
(78,440,l),
(182,440,l),
(150,280,l),
(46,280,l),
(32,208,l),
(136,208,l),
(96,0,l)
);
},
{
closed = 1;
nodes = (
(266,440,l),
(426,440,l),
(394,280,l),
(234,280,l)
);
}
);
width = 660;
},
{
layerId = m003;
shapes = (
{
closed = 1;
nodes = (
(288,0,l),
(316,143,l),
(446,143,l),
(418,0,l),
(584,0,l),
(612,143,l),
(700,143,l),
(729,295,l),
(641,295,l),
(667,425,l),
(755,425,l),
(784,577,l),
(696,577,l),
(724,720,l),
(558,720,l),
(530,577,l),
(400,577,l),
(428,720,l),
(262,720,l),
(234,577,l),
(146,577,l),
(117,425,l),
(205,425,l),
(179,295,l),
(91,295,l),
(62,143,l),
(150,143,l),
(122,0,l)
);
},
{
closed = 1;
nodes = (
(371,425,l),
(501,425,l),
(475,295,l),
(345,295,l)
);
}
);
width = 846;
}
);
unicode = 35;
},
{
color = 4;
glyphname = slash;
lastChange = "2022-08-04 13:52:20 +0000";
layers = (
{
layerId = m01;
shapes = (
{
closed = 1;
nodes = (
(44,0,l),
(306,720,l),
(274,720,l),
(12,0,l)
);
}
);
width = 318;
},
{
layerId = m002;
shapes = (
{
closed = 1;
nodes = (
(98,0,l),
(360,720,l),
(278,720,l),
(16,0,l)
);
}
);
width = 376;
},
{
layerId = m003;
shapes = (
{
closed = 1;
nodes = (
(178,0,l),
(440,720,l),
(258,720,l),
(-4,0,l)
);
}
);
width = 436;
}
);
unicode = 47;
},
{
color = 4;
glyphname = hyphen;
lastChange = "2022-08-03 14:13:52 +0000";
layers = (
{
layerId = m01;
shapes = (
{
closed = 1;
nodes = (
(322,275,l),
(322,305,l),
(58,305,l),
(58,275,l)
);
}
);
width = 380;
},
{
layerId = m002;
shapes = (
{
closed = 1;
nodes = (
(338,252,l),
(338,328,l),
(42,328,l),
(42,252,l)
);
}
);
width = 380;
},
{
layerId = m003;
shapes = (
{
closed = 1;
nodes = (
(340,211,l),
(340,369,l),
(28,369,l),
(28,211,l)
);
}
);
width = 368;
}
);
unicode = 45;
},
{
color = 4;
glyphname = endash;
lastChange = "2022-08-05 08:50:57 +0000";
layers = (
{
layerId = m01;
shapes = (
{
closed = 1;
nodes = (
(464,275,l),
(464,305,l),
(58,305,l),
(58,275,l)
);
}
);
width = 522;
},
{
layerId = m002;
shapes = (
{
closed = 1;
nodes = (
(498,250,l),
(498,326,l),
(42,326,l),
(42,250,l)
);
}
);
width = 540;
},
{
layerId = m003;
shapes = (
{
closed = 1;
nodes = (
(512,211,l),
(512,369,l),
(28,369,l),
(28,211,l)
);
}
);
width = 540;
}
);
unicode = 8211;
},
{
color = 4;
glyphname = emdash;
lastChange = "2022-08-03 14:22:24 +0000";
layers = (
{
layerId = m01;
shapes = (
{
closed = 1;
nodes = (
(848,275,l),
(848,305,l),
(58,305,l),
(58,275,l)
);
}
);
width = 906;
},
{
layerId = m002;
shapes = (
{
closed = 1;
nodes = (
(928,252,l),
(928,328,l),
(42,328,l),
(42,252,l)
);
}
);
width = 970;
},
{
layerId = m003;
shapes = (
{
closed = 1;
nodes = (
(972,211,l),
(972,369,l),
(28,369,l),
(28,211,l)
);
}
);
width = 1000;
}
);
unicode = 8212;
},
{
color = 4;
glyphname = underscore;
lastChange = "2022-08-03 14:22:44 +0000";
layers = (
{
layerId = m01;
shapes = (
{
closed = 1;
nodes = (
(448,-180,l),
(448,-152,l),
(-2,-152,l),
(-2,-180,l)
);
}
);
width = 446;
},
{
layerId = m002;
shapes = (
{
closed = 1;
nodes = (
(498,-180,l),
(498,-106,l),
(-2,-106,l),
(-2,-180,l)
);
}
);
width = 496;
},
{
layerId = m003;
shapes = (
{
closed = 1;
nodes = (
(548,-180,l),
(548,-48,l),
(-2,-48,l),
(-2,-180,l)
);
}
);
width = 546;
}
);
unicode = 95;
},
{
color = 4;
glyphname = parenright;
lastChange = "2022-08-30 15:41:11 +0000";
layers = (
{
guides = (
{
pos = (16,800);
},
{
pos = (16,300);
},
{
pos = (16,-200);
}
);
layerId = m01;
shapes = (
{
closed = 1;
nodes = (
(46,-200,l),
(138,-33,o),
(191,123,o),
(191,300,cs),
(191,477,o),
(138,633,o),
(46,800,c),
(16,800,l),
(111,623,o),
(157,475,o),
(157,300,cs),
(157,125,o),
(111,-23,o),
(16,-200,c)
);
}
);
width = 251;
},
{
guides = (
{
pos = (12,800);
},
{
pos = (12,300);
},
{
pos = (12,-200);
}
);
layerId = m002;
shapes = (
{
closed = 1;
nodes = (
(90,-200,l),
(192,-33,o),
(244,123,o),
(244,300,cs),
(244,477,o),
(192,633,o),
(90,800,c),
(12,800,l),
(117,623,o),
(158,475,o),
(158,300,cs),
(158,125,o),
(117,-23,o),
(12,-200,c)
);
}
);
width = 296;
},
{
guides = (
{
pos = (0,800);
},
{
pos = (0,300);
},
{
pos = (0,-200);
}
);
layerId = m003;
shapes = (
{
closed = 1;
nodes = (
(172,-200,l),
(248,-33,o),
(300,122,o),
(300,300,cs),
(300,478,o),
(248,633,o),
(172,800,c),
(0,800,l),
(75,623,o),
(110,476,o),
(110,300,cs),
(110,124,o),
(75,-23,o),
(0,-200,c)
);
}
);
width = 338;
}
);
unicode = 41;
},
{
color = 4;
glyphname = braceright;
lastChange = "2022-09-14 12:58:12 +0000";
layers = (
{
guides = (
{
pos = (26,800);
},
{
pos = (26,300);
},
{
pos = (26,-200);
}
);
layerId = m01;
shapes = (
{
closed = 1;
nodes = (
(107,-200,ls),
(201,-200,o),
(210,-142,o),
(210,-78,cs),
(210,192,ls),
(210,246,o),
(219,286,o),
(298,286,c),
(298,314,l),
(219,314,o),
(210,354,o),
(210,408,cs),
(210,678,ls),
(210,742,o),
(201,800,o),
(107,800,cs),
(26,800,l),
(26,772,l),
(107,772,ls),
(171,772,o),
(180,732,o),
(180,678,cs),
(180,408,ls),
(180,357,o),
(186,315,o),
(235,300,c),
(186,285,o),
(180,243,o),
(180,192,cs),
(180,-78,ls),
(180,-132,o),
(171,-172,o),
(107,-172,cs),
(26,-172,l),
(26,-200,l)
);
}
);
width = 360;
},
{
guides = (
{
pos = (22,800);
},
{
pos = (22,300);
},
{
pos = (22,-200);
}
);
layerId = m002;
shapes = (
{
closed = 1;
nodes = (
(128,-200,ls),
(218,-200,o),
(260,-152,o),
(260,-72,cs),
(260,197,ls),
(260,243,o),
(282,263,o),
(348,263,c),
(348,337,l),
(282,337,o),
(260,357,o),
(260,403,cs),
(260,672,ls),
(260,752,o),
(218,800,o),
(128,800,cs),
(22,800,l),
(22,726,l),
(112,726,ls),
(150,726,o),
(176,700,o),
(176,662,cs),
(176,391,ls),
(176,337,o),
(195,309,o),
(246,300,c),
(195,291,o),
(176,263,o),
(176,209,cs),
(176,-62,ls),
(176,-100,o),
(150,-126,o),
(112,-126,cs),
(22,-126,l),
(22,-200,l)
);
}
);
width = 390;
},
{
guides = (
{
pos = (-325,800);
},
{
pos = (-325,-200);
},
{
pos = (-325,300);
}
);
layerId = m003;
shapes = (
{
closed = 1;
nodes = (
(157,-200,ls),
(241,-200,o),
(344,-177,o),
(344,-35,cs),
(344,163,ls),
(344,200,o),
(360,224,o),
(428,224,c),
(428,376,l),
(360,376,o),
(344,400,o),
(344,437,cs),
(344,635,ls),
(344,777,o),
(241,800,o),
(157,800,cs),
(12,800,l),
(12,648,l),
(118,648,ls),
(154,648,o),
(172,624,o),
(172,597,cs),
(172,403,ls),
(172,333,o),
(217,308,o),
(269,300,c),
(217,292,o),
(172,267,o),
(172,197,cs),
(172,3,ls),
(172,-24,o),
(154,-48,o),
(118,-48,cs),
(12,-48,l),
(12,-200,l)
);
}
);
width = 454;
}
);
unicode = 125;
},
{
color = 4;
glyphname = bracketright;
lastChange = "2022-09-14 12:58:12 +0000";
layers = (
{
guides = (
{
pos = (26,800);
},
{
pos = (26,300);
},
{
pos = (26,-200);
}
);
layerId = m01;
shapes = (
{
closed = 1;
nodes = (
(210,-200,l),
(210,800,l),
(26,800,l),
(26,772,l),
(180,772,l),
(180,-172,l),
(26,-172,l),
(26,-200,l)
);
}
);
width = 278;
},
{
guides = (
{
pos = (22,800);
},
{
pos = (22,300);
},
{
pos = (22,-200);
}
);
layerId = m002;
shapes = (
{
closed = 1;
nodes = (
(260,-200,l),
(260,800,l),
(22,800,l),
(22,726,l),
(176,726,l),
(176,-126,l),
(22,-126,l),
(22,-200,l)
);
}
);
width = 328;
},
{
guides = (
{
pos = (12,800);
},
{
pos = (12,300);
},
{
pos = (12,-200);
}
);
layerId = m003;
shapes = (
{
closed = 1;
nodes = (
(344,-200,l),
(344,800,l),
(12,800,l),
(12,644,l),
(166,644,l),
(166,-44,l),
(12,-44,l),
(12,-200,l)
);
}
);
width = 396;
}
);
unicode = 93;
},
{
color = 4;
glyphname = quotesingle;
lastChange = "2022-08-04 16:01:56 +0000";
layers = (
{
layerId = m01;
shapes = (
{
closed = 1;
nodes = (
(72,516,l),
(96,516,l),
(100,720,l),
(68,720,l)
);
}
);
width = 168;
},
{
layerId = m002;
shapes = (
{
closed = 1;
nodes = (
(80,462,l),
(144,462,l),
(156,720,l),
(68,720,l)
);
}
);
width = 224;
},
{
layerId = m003;
shapes = (
{
closed = 1;
nodes = (
(83,352,l),
(223,352,l),
(254,720,l),
(52,720,l)
);
}
);
width = 306;
}
);
unicode = 39;
},
{
color = 4;
glyphname = at;
lastChange = "2022-09-14 12:58:12 +0000";
layers = (
{
layerId = m01;
shapes = (
{
closed = 1;
nodes = (
(539,-116,o),
(612,-96,o),
(675,-58,c),
(675,-28,l),
(612,-68,o),
(537,-88,o),
(461,-88,cs),
(241,-88,o),
(72,79,o),
(72,309,cs),
(72,539,o),
(241,704,o),
(461,704,cs),
(681,704,o),
(854,550,o),
(854,320,cs),
(854,190,o),
(784,113,o),
(710,113,cs),
(653,113,o),
(619,143,o),
(619,195,cs),
(619,410,ls),
(619,486,o),
(568,532,o),
(470,532,cs),
(382,532,o),
(303,486,o),
(304,389,c),
(334,389,l),
(333,473,o),
(401,504,o),
(470,504,cs),
(550,504,o),
(590,474,o),
(590,407,cs),
(590,369,l),
(441,336,ls),
(331,312,o),
(286,276,o),
(286,207,cs),
(286,139,o),
(333,87,o),
(423,87,cs),
(495,87,o),
(557,117,o),
(591,183,c),
(596,126,o),
(636,87,o),
(710,87,cs),
(800,87,o),
(884,180,o),
(884,320,cs),
(884,570,o),
(701,732,o),
(461,732,cs),
(221,732,o),
(42,559,o),
(42,309,cs),
(42,59,o),
(221,-116,o),
(461,-116,cs)
);
},
{
closed = 1;
nodes = (
(351,115,o),
(316,155,o),
(316,208,cs),
(316,267,o),
(356,288,o),
(444,309,cs),
(590,343,l),
(590,283,ls),
(590,169,o),
(517,115,o),
(424,115,cs)
);
}
);
width = 926;
},
{
layerId = m002;
shapes = (
{
closed = 1;
nodes = (
(539,-116,o),
(608,-96,o),
(669,-61,c),
(669,24,l),
(606,-20,o),
(537,-44,o),
(463,-44,cs),
(265,-44,o),
(118,98,o),
(118,308,cs),
(118,518,o),
(265,660,o),
(463,660,cs),
(661,660,o),
(800,532,o),
(800,332,cs),
(800,225,o),
(762,148,o),
(697,148,cs),
(661,148,o),
(635,160,o),
(635,218,cs),
(635,405,ls),
(635,482,o),
(582,532,o),
(471,532,cs),
(381,532,o),
(289,492,o),
(288,383,c),
(365,383,l),
(366,449,o),
(422,463,o),
(471,463,cs),
(529,463,o),
(560,447,o),
(560,398,cs),
(560,369,l),
(429,344,ls),
(333,326,o),
(272,285,o),
(272,207,cs),
(272,125,o),
(333,78,o),
(431,78,cs),
(482,78,o),
(534,94,o),
(572,145,c),
(588,103,o),
(624,78,o),
(681,78,cs),
(805,78,o),
(880,179,o),
(880,332,cs),
(880,573,o),
(707,732,o),
(463,732,cs),
(219,732,o),
(38,560,o),
(38,308,cs),
(38,56,o),
(219,-116,o),
(463,-116,cs)
);
},
{
closed = 1;
nodes = (
(375,147,o),
(352,172,o),
(352,209,cs),
(352,254,o),
(386,267,o),
(441,278,cs),
(560,302,l),
(560,261,ls),
(560,180,o),
(496,147,o),
(435,147,cs)
);
}
);
width = 918;
},
{
layerId = m003;
shapes = (
{
closed = 1;
nodes = (
(568,-116,o),
(632,-95,o),
(691,-69,c),
(691,41,l),
(631,9,o),
(556,-6,o),
(469,-6,cs),
(285,-6,o),
(152,100,o),
(152,308,cs),
(152,516,o),
(285,616,o),
(469,616,cs),
(653,616,o),
(777,540,o),
(777,332,cs),
(777,271,o),
(772,208,o),
(727,208,cs),
(689,208,o),
(679,226,o),
(679,268,cs),
(679,396,ls),
(679,479,o),
(609,532,o),
(470,532,cs),
(351,532,o),
(259,476,o),
(260,376,c),
(416,376,l),
(416,395,o),
(433,420,o),
(472,420,cs),
(519,420,o),
(524,397,o),
(524,378,cs),
(524,364,l),
(417,347,ls),
(290,327,o),
(243,291,o),
(243,214,cs),
(243,126,o),
(313,78,o),
(396,78,cs),
(460,78,o),
(505,96,o),
(543,146,c),
(567,98,o),
(617,78,o),
(680,78,cs),
(824,78,o),
(905,189,o),
(905,332,cs),
(905,574,o),
(743,732,o),
(469,732,cs),
(195,732,o),
(24,550,o),
(24,308,cs),
(24,66,o),
(195,-116,o),
(469,-116,cs)
);
},
{
closed = 1;
nodes = (
(415,182,o),
(397,196,o),
(397,219,cs),
(397,243,o),
(411,250,o),
(450,258,cs),
(524,273,l),
(524,250,ls),
(524,200,o),
(490,182,o),
(447,182,cs)
);
}
);
width = 929;
}
);
unicode = 64;
},
{
color = 4;
glyphname = ampersand;
lastChange = "2022-09-14 12:58:42 +0000";
layers = (
{
guides = (
{
pos = (239,374);
}
);
layerId = m01;
shapes = (
{
closed = 1;
nodes = (
(351,-12,o),
(429,32,o),
(482,103,c),
(574,0,l),
(616,0,l),
(500,130,l),
(540,196,o),
(562,280,o),
(562,374,c),
(534,374,l),
(534,289,o),
(514,213,o),
(479,153,c),
(266,391,l),
(347,439,o),
(423,490,o),
(423,584,cs),
(423,668,o),
(361,732,o),
(271,732,cs),
(181,732,o),
(119,668,o),
(119,584,cs),
(119,514,o),
(155,468,o),
(218,398,c),
(131,347,o),
(44,289,o),
(44,174,cs),
(44,76,o),
(122,-12,o),
(255,-12,cs)
);
},
{
closed = 1;
nodes = (
(144,18,o),
(76,91,o),
(76,175,cs),
(76,273,o),
(156,325,o),
(238,374,c),
(461,126,l),
(412,59,o),
(341,18,o),
(255,18,cs)
);
},
{
closed = 1;
nodes = (
(185,481,o),
(151,523,o),
(151,584,cs),
(151,648,o),
(199,703,o),
(271,703,cs),
(343,703,o),
(391,648,o),
(391,584,cs),
(391,504,o),
(322,459,o),
(245,414,c)
);
}
);
width = 634;
},
{
guides = (
{
pos = (250,364);
}
);
layerId = m002;
shapes = (
{
closed = 1;
nodes = (
(358,-12,o),
(434,20,o),
(490,75,c),
(557,0,l),
(670,0,l),
(543,142,l),
(579,203,o),
(600,279,o),
(602,364,c),
(520,364,l),
(519,306,o),
(506,253,o),
(484,208,c),
(324,386,l),
(400,432,o),
(469,484,o),
(469,574,cs),
(469,678,o),
(383,732,o),
(291,732,cs),
(199,732,o),
(113,678,o),
(113,574,cs),
(113,495,o),
(145,459,o),
(195,405,c),
(112,358,o),
(32,299,o),
(32,188,cs),
(32,78,o),
(117,-12,o),
(265,-12,cs)
);
},
{
closed = 1;
nodes = (
(167,68,o),
(121,126,o),
(121,188,cs),
(121,259,o),
(180,303,o),
(250,344,c),
(434,138,l),
(390,94,o),
(332,68,o),
(265,68,cs)
);
},
{
closed = 1;
nodes = (
(225,495,o),
(201,524,o),
(201,574,cs),
(201,626,o),
(241,656,o),
(291,656,cs),
(341,656,o),
(381,626,o),
(381,574,cs),
(381,517,o),
(331,482,o),
(269,446,c)
);
}
);
width = 670;
},
{
guides = (
{
pos = (272,364);
}
);
layerId = m003;
shapes = (
{
closed = 1;
nodes = (
(375,-12,o),
(442,4,o),
(502,33,c),
(532,0,l),
(748,0,l),
(627,131,l),
(678,192,o),
(710,270,o),
(712,364,c),
(552,364,l),
(550,318,o),
(539,279,o),
(521,246,c),
(418,358,l),
(495,392,o),
(565,441,o),
(565,544,cs),
(565,658,o),
(478,732,o),
(331,732,cs),
(186,732,o),
(97,658,o),
(97,544,cs),
(97,489,o),
(120,451,o),
(164,401,c),
(87,364,o),
(22,310,o),
(22,208,cs),
(22,76,o),
(123,-12,o),
(307,-12,cs)
);
},
{
closed = 1;
nodes = (
(257,138,o),
(218,170,o),
(218,216,cs),
(218,249,o),
(237,271,o),
(265,290,c),
(395,149,l),
(371,142,o),
(345,138,o),
(317,138,cs)
);
},
{
closed = 1;
nodes = (
(295,490,o),
(281,510,o),
(281,534,cs),
(281,568,o),
(303,590,o),
(341,590,cs),
(379,590,o),
(401,568,o),
(401,534,cs),
(401,501,o),
(368,481,o),
(321,462,c)
);
}
);
width = 748;
}
);
unicode = 38;
},
{
color = 4;
glyphname = copyright;
lastChange = "2022-09-19 17:24:19 +0000";
layers = (
{
guides = (
{
pos = (0,580);
},
{
pos = (0,140);
}
);
layerId = m01;
shapes = (
{
closed = 1;
nodes = (
(521,140,o),
(582,206,o),
(596,295,c),
(566,295,l),
(554,221,o),
(503,168,o),
(427,168,cs),
(323,168,o),
(270,255,o),
(270,360,cs),
(270,465,o),
(323,552,o),
(427,552,cs),
(500,552,o),
(550,503,o),
(564,435,c),
(593,435,l),
(578,519,o),
(517,580,o),
(427,580,cs),
(305,580,o),
(241,481,o),
(241,360,cs),
(241,239,o),
(305,140,o),
(427,140,cs)
);
},
{
pos = (44,0);
ref = _part_copyright_ring;
}
);
width = 836;
},
{
guides = (
{
pos = (0,140);
},
{
pos = (0,580);
}
);
layerId = m002;
shapes = (
{
closed = 1;
nodes = (
(520,140,o),
(593,204,o),
(604,296,c),
(530,296,l),
(521,240,o),
(482,205,o),
(423,205,cs),
(344,205,o),
(302,270,o),
(302,360,cs),
(302,450,o),
(344,515,o),
(423,515,cs),
(482,515,o),
(520,480,o),
(530,426,c),
(604,426,l),
(592,517,o),
(528,580,o),
(423,580,cs),
(305,580,o),
(228,486,o),
(228,360,cs),
(228,234,o),
(305,140,o),
(423,140,cs)
);
},
{
pos = (40,0);
ref = _part_copyright_ring;
}
);
width = 832;
},
{
guides = (
{
pos = (0,173);
},
{
pos = (0,547);
}
);
layerId = m003;
shapes = (
{
closed = 1;
nodes = (
(533,173,o),
(589,239,o),
(599,329,c),
(469,329,l),
(466,296,o),
(448,277,o),
(415,277,cs),
(373,277,o),
(358,307,o),
(358,360,cs),
(358,413,o),
(373,442,o),
(415,442,cs),
(445,442,o),
(464,426,o),
(469,399,c),
(599,399,l),
(589,485,o),
(529,547,o),
(415,547,cs),
(292,547,o),
(226,466,o),
(226,360,cs),
(226,254,o),
(292,173,o),
(415,173,cs)
);
},
{
pos = (24,0);
ref = _part_copyright_ring;
}
);
width = 824;
}
);
unicode = 169;
},
{
color = 4;
glyphname = registered;
lastChange = "2022-09-19 17:33:11 +0000";
layers = (
{
guides = (
{
pos = (0,151);
},
{
pos = (0,569);
}
);
layerId = m01;
shapes = (
{
closed = 1;
nodes = (
(305,151,l),
(305,340,l),
(444,340,ls),
(509,340,o),
(527,311,o),
(535,262,cs),
(553,151,l),
(582,151,l),
(560,282,ls),
(555,314,o),
(539,340,o),
(502,352,c),
(553,371,o),
(577,409,o),
(577,455,cs),
(577,523,o),
(530,569,o),
(440,569,cs),
(277,569,l),
(277,151,l)
);
},
{
pos = (44,0);
ref = _part_copyright_ring;
},
{
closed = 1;
nodes = (
(305,542,l),
(440,542,ls),
(510,542,o),
(548,507,o),
(548,455,cs),
(548,401,o),
(510,367,o),
(440,367,cs),
(305,367,l)
);
}
);
width = 836;
},
{
guides = (
{
pos = (0,151);
},
{
pos = (0,569);
}
);
layerId = m002;
shapes = (
{
closed = 1;
nodes = (
(331,151,l),
(331,319,l),
(436,319,ls),
(480,319,o),
(503,300,o),
(509,254,cs),
(523,151,l),
(597,151,l),
(578,272,ls),
(572,307,o),
(557,333,o),
(524,347,c),
(567,370,o),
(590,406,o),
(590,447,cs),
(590,520,o),
(544,569,o),
(443,569,cs),
(259,569,l),
(259,151,l)
);
},
{
pos = (40,0);
ref = _part_copyright_ring;
},
{
closed = 1;
nodes = (
(331,508,l),
(436,508,ls),
(491,508,o),
(516,485,o),
(516,444,cs),
(516,402,o),
(491,379,o),
(436,379,cs),
(331,379,l)
);
}
);
width = 832;
},
{
guides = (
{
pos = (0,184);
},
{
pos = (0,536);
}
);
layerId = m003;
shapes = (
{
closed = 1;
nodes = (
(370,184,l),
(370,301,l),
(411,301,ls),
(437,301,o),
(451,284,o),
(455,254,cs),
(465,184,l),
(578,184,l),
(567,262,ls),
(563,294,o),
(550,320,o),
(518,338,c),
(549,359,o),
(570,389,o),
(570,427,cs),
(570,488,o),
(530,536,o),
(438,536,cs),
(258,536,l),
(258,184,l)
);
},
{
pos = (24,0);
ref = _part_copyright_ring;
},
{
closed = 1;
nodes = (
(370,450,l),
(414,450,ls),
(440,450,o),
(456,443,o),
(456,416,cs),
(456,388,o),
(440,381,o),
(414,381,cs),
(370,381,l)
);
}
);
width = 824;
}
);
unicode = 174;
},
{
color = 4;
glyphname = published;
lastChange = "2022-09-19 17:33:11 +0000";
layers = (
{
guides = (
{
pos = (0,151);
},
{
pos = (0,569);
}
);
layerId = m01;
shapes = (
{
closed = 1;
nodes = (
(321,151,l),
(321,324,l),
(452,324,ls),
(543,324,o),
(589,377,o),
(589,446,cs),
(589,515,o),
(543,569,o),
(452,569,cs),
(293,569,l),
(293,151,l)
);
},
{
pos = (44,0);
ref = _part_copyright_ring;
},
{
closed = 1;
nodes = (
(321,542,l),
(452,542,ls),
(523,542,o),
(560,502,o),
(560,446,cs),
(560,391,o),
(523,351,o),
(452,351,cs),
(321,351,l)
);
}
);
width = 836;
},
{
guides = (
{
pos = (0,151);
},
{
pos = (0,569);
}
);
layerId = m002;
shapes = (
{
closed = 1;
nodes = (
(351,151,l),
(351,303,l),
(453,303,ls),
(554,303,o),
(605,361,o),
(605,436,cs),
(605,510,o),
(554,569,o),
(453,569,cs),
(279,569,l),
(279,151,l)
);
},
{
pos = (40,0);
ref = _part_copyright_ring;
},
{
closed = 1;
nodes = (
(351,506,l),
(450,506,ls),
(506,506,o),
(531,479,o),
(531,436,cs),
(531,393,o),
(506,366,o),
(450,366,cs),
(351,366,l)
);
}
);
width = 832;
},
{
guides = (
{
pos = (0,184);
},
{
pos = (0,536);
}
);
layerId = m003;
shapes = (
{
closed = 1;
nodes = (
(389,184,l),
(389,286,l),
(441,286,ls),
(533,286,o),
(584,336,o),
(584,411,cs),
(584,486,o),
(533,536,o),
(441,536,cs),
(277,536,l),
(277,184,l)
);
},
{
pos = (24,0);
ref = _part_copyright_ring;
},
{
closed = 1;
nodes = (
(389,443,l),
(432,443,ls),
(458,443,o),
(474,438,o),
(474,411,cs),
(474,384,o),
(458,379,o),
(432,379,cs),
(389,379,l)
);
}
);
width = 824;
}
);
unicode = 8471;
},
{
color = 4;
glyphname = trademark;
lastChange = "2022-09-19 17:32:55 +0000";
layers = (
{
layerId = m01;
shapes = (
{
closed = 1;
nodes = (
(330,432,l),
(330,678,l),
(437,432,l),
(461,432,l),
(568,678,l),
(568,432,l),
(591,432,l),
(591,720,l),
(560,720,l),
(449,459,l),
(338,720,l),
(307,720,l),
(307,432,l)
);
},
{
closed = 1;
nodes = (
(175,432,l),
(175,698,l),
(277,698,l),
(277,720,l),
(48,720,l),
(48,698,l),
(150,698,l),
(150,432,l)
);
}
);
width = 639;
},
{
layerId = m002;
shapes = (
{
closed = 1;
nodes = (
(346,432,l),
(346,652,l),
(427,432,l),
(471,432,l),
(552,652,l),
(552,432,l),
(600,432,l),
(600,720,l),
(530,720,l),
(449,491,l),
(368,720,l),
(298,720,l),
(298,432,l)
);
},
{
closed = 1;
nodes = (
(174,432,l),
(174,676,l),
(268,676,l),
(268,720,l),
(30,720,l),
(30,676,l),
(124,676,l),
(124,432,l)
);
}
);
width = 630;
},
{
layerId = m003;
shapes = (
{
closed = 1;
nodes = (
(382,432,l),
(382,634,l),
(437,432,l),
(503,432,l),
(558,634,l),
(558,432,l),
(636,432,l),
(636,720,l),
(511,720,l),
(470,554,l),
(429,720,l),
(304,720,l),
(304,432,l)
);
},
{
closed = 1;
nodes = (
(190,432,l),
(190,647,l),
(274,647,l),
(274,720,l),
(24,720,l),
(24,647,l),
(108,647,l),
(108,432,l)
);
}
);
width = 660;
}
);
unicode = 8482;
},
{
color = 4;
glyphname = degree;
lastChange = "2022-09-19 17:24:19 +0000";
layers = (
{
layerId = m01;
shapes = (
{
closed = 1;
nodes = (
(238,490,o),
(294,542,o),
(294,611,cs),
(294,679,o),
(238,732,o),
(168,732,cs),
(98,732,o),
(42,679,o),
(42,611,cs),
(42,542,o),
(98,490,o),
(168,490,cs)
);
},
{
closed = 1;
nodes = (
(111,516,o),
(70,555,o),
(70,611,cs),
(70,666,o),
(111,706,o),
(168,706,cs),
(225,706,o),
(266,666,o),
(266,611,cs),
(266,555,o),
(225,516,o),
(168,516,cs)
);
}
);
width = 336;
},
{
layerId = m002;
shapes = (
{
closed = 1;
nodes = (
(246,480,o),
(304,537,o),
(304,606,cs),
(304,675,o),
(246,732,o),
(173,732,cs),
(100,732,o),
(42,675,o),
(42,606,cs),
(42,537,o),
(100,480,o),
(173,480,cs)
);
},
{
closed = 1;
nodes = (
(137,544,o),
(111,570,o),
(111,606,cs),
(111,641,o),
(137,668,o),
(173,668,cs),
(208,668,o),
(235,641,o),
(235,606,cs),
(235,570,o),
(208,544,o),
(173,544,cs)
);
}
);
width = 346;
},
{
layerId = m003;
shapes = (
{
closed = 1;
nodes = (
(279,408,o),
(356,475,o),
(356,570,cs),
(356,665,o),
(279,732,o),
(184,732,cs),
(89,732,o),
(12,665,o),
(12,570,cs),
(12,475,o),
(89,408,o),
(184,408,cs)
);
},
{
closed = 1;
nodes = (
(149,510,o),
(124,535,o),
(124,570,cs),
(124,605,o),
(149,630,o),
(184,630,cs),
(219,630,o),
(244,605,o),
(244,570,cs),
(244,535,o),
(219,510,o),
(184,510,cs)
);
}
);
width = 368;
}
);
unicode = 176;
},
{
color = 4;
glyphname = bar;
lastChange = "2022-09-04 14:14:51 +0000";
layers = (
{
guides = (
{
pos = (0,810);
},
{
pos = (0,-220);
}
);
layerId = m01;
shapes = (
{
closed = 1;
nodes = (
(98,-220,l),
(98,810,l),
(68,810,l),
(68,-220,l)
);
}
);
width = 166;
},
{
guides = (
{
pos = (0,810);
},
{
pos = (0,-220);
}
);
layerId = m002;
shapes = (
{
closed = 1;
nodes = (
(144,-220,l),
(144,810,l),
(68,810,l),
(68,-220,l)
);
}
);
width = 212;
},
{
guides = (
{
pos = (0,810);
},
{
pos = (0,-220);
}
);
layerId = m003;
shapes = (
{
closed = 1;
nodes = (
(208,-220,l),
(208,810,l),
(54,810,l),
(54,-220,l)
);
}
);
width = 262;
}
);
unicode = 124;
},
{
color = 4;
glyphname = dagger;
lastChange = "2022-09-14 13:25:13 +0000";
layers = (
{
layerId = m01;
shapes = (
{
closed = 1;
nodes = (
(281,-200,l),
(281,490,l),
(504,490,l),
(504,520,l),
(281,520,l),
(281,720,l),
(249,720,l),
(249,520,l),
(26,520,l),
(26,490,l),
(249,490,l),
(249,-200,l)
);
}
);
width = 530;
},
{
layerId = m002;
shapes = (
{
closed = 1;
nodes = (
(333,-200,l),
(333,440,l),
(556,440,l),
(556,520,l),
(333,520,l),
(333,720,l),
(245,720,l),
(245,520,l),
(22,520,l),
(22,440,l),
(245,440,l),
(245,-200,l)
);
}
);
width = 578;
},
{
layerId = m003;
shapes = (
{
closed = 1;
nodes = (
(419,-200,l),
(419,348,l),
(622,348,l),
(622,520,l),
(419,520,l),
(419,720,l),
(215,720,l),
(215,520,l),
(12,520,l),
(12,348,l),
(215,348,l),
(215,-200,l)
);
}
);
width = 634;
}
);
unicode = 8224;
},
{
glyphname = daggerdbl;
lastChange = "2022-09-14 13:25:00 +0000";
layers = (
{
layerId = m01;
shapes = (
{
closed = 1;
nodes = (
(281,-200,l),
(281,0,l),
(504,0,l),
(504,30,l),
(281,30,l),
(281,490,l),
(504,490,l),
(504,520,l),
(281,520,l),
(281,720,l),
(249,720,l),
(249,520,l),
(26,520,l),
(26,490,l),
(249,490,l),
(249,30,l),
(26,30,l),
(26,0,l),
(249,0,l),
(249,-200,l)
);
}
);
width = 530;
},
{
layerId = m002;
shapes = (
{
closed = 1;
nodes = (
(333,-200,l),
(333,0,l),
(556,0,l),
(556,80,l),
(333,80,l),
(333,440,l),
(556,440,l),
(556,520,l),
(333,520,l),
(333,720,l),
(245,720,l),
(245,520,l),
(22,520,l),
(22,440,l),
(245,440,l),
(245,80,l),
(22,80,l),
(22,0,l),
(245,0,l),
(245,-200,l)
);
}
);
width = 578;
},
{
layerId = m003;
shapes = (
{
closed = 1;
nodes = (
(419,-200,l),
(419,0,l),
(622,0,l),
(622,172,l),
(419,172,l),
(419,348,l),
(622,348,l),
(622,520,l),
(419,520,l),
(419,720,l),
(215,720,l),
(215,520,l),
(12,520,l),
(12,348,l),
(215,348,l),
(215,172,l),
(12,172,l),
(12,0,l),
(215,0,l),
(215,-200,l)
);
}
);
width = 634;
}
);
unicode = 8225;
},
{
color = 4;
glyphname = servicemark;
lastChange = "2022-09-19 17:32:24 +0000";
layers = (
{
layerId = m01;
shapes = (
{
closed = 1;
nodes = (
(321,432,l),
(321,678,l),
(428,432,l),
(452,432,l),
(559,678,l),
(559,432,l),
(582,432,l),
(582,720,l),
(551,720,l),
(440,459,l),
(329,720,l),
(298,720,l),
(298,432,l)
);
},
{
closed = 1;
nodes = (
(228,427,o),
(268,460,o),
(268,509,cs),
(268,549,o),
(251,574,o),
(166,591,cs),
(94,605,o),
(82,621,o),
(82,652,cs),
(82,682,o),
(110,703,o),
(154,703,cs),
(206,703,o),
(235,679,o),
(237,632,c),
(262,632,l),
(260,685,o),
(226,725,o),
(154,725,cs),
(97,725,o),
(58,696,o),
(58,652,cs),
(58,605,o),
(85,583,o),
(156,570,cs),
(230,555,o),
(244,538,o),
(244,509,cs),
(244,472,o),
(213,449,o),
(164,449,cs),
(114,449,o),
(75,470,o),
(72,527,c),
(48,527,l),
(51,456,o),
(99,427,o),
(164,427,cs)
);
}
);
width = 630;
},
{
layerId = m002;
shapes = (
{
closed = 1;
nodes = (
(344,432,l),
(344,652,l),
(425,432,l),
(469,432,l),
(550,652,l),
(550,432,l),
(598,432,l),
(598,720,l),
(528,720,l),
(447,491,l),
(366,720,l),
(296,720,l),
(296,432,l)
);
},
{
closed = 1;
nodes = (
(219,427,o),
(266,459,o),
(266,514,cs),
(266,558,o),
(244,584,o),
(159,600,cs),
(98,612,o),
(89,624,o),
(89,647,cs),
(89,670,o),
(110,684,o),
(143,684,cs),
(188,684,o),
(209,666,o),
(211,629,c),
(259,629,l),
(257,685,o),
(221,725,o),
(143,725,cs),
(81,725,o),
(38,693,o),
(38,646,cs),
(38,594,o),
(72,571,o),
(140,558,cs),
(203,546,o),
(215,534,o),
(215,512,cs),
(215,483,o),
(190,468,o),
(153,468,cs),
(115,468,o),
(81,482,o),
(79,529,c),
(30,529,l),
(32,460,o),
(82,427,o),
(152,427,cs)
);
}
);
width = 628;
},
{
layerId = m003;
shapes = (
{
closed = 1;
nodes = (
(389,432,l),
(389,634,l),
(444,432,l),
(510,432,l),
(565,634,l),
(565,432,l),
(643,432,l),
(643,720,l),
(518,720,l),
(477,554,l),
(436,720,l),
(311,720,l),
(311,432,l)
);
},
{
closed = 1;
nodes = (
(224,427,o),
(281,456,o),
(281,520,cs),
(281,571,o),
(252,599,o),
(166,611,cs),
(121,618,o),
(111,628,o),
(111,640,cs),
(111,654,o),
(126,662,o),
(148,662,cs),
(177,662,o),
(193,652,o),
(194,626,c),
(271,626,l),
(268,693,o),
(221,725,o),
(148,725,cs),
(71,725,o),
(28,686,o),
(28,636,cs),
(28,585,o),
(59,554,o),
(138,542,cs),
(190,535,o),
(197,526,o),
(197,514,cs),
(197,499,o),
(181,490,o),
(156,490,cs),
(128,490,o),
(103,495,o),
(103,528,c),
(24,528,l),
(24,469,o),
(68,427,o),
(152,427,cs)
);
}
);
width = 667;
}
);
unicode = 8480;
},
{
color = 6;
glyphname = at.ss11;
lastChange = "2022-09-15 15:18:58 +0000";
layers = (
{
layerId = m01;
shapes = (
{
closed = 1;
nodes = (
(539,-116,o),
(612,-96,o),
(675,-58,c),
(675,-28,l),
(612,-68,o),
(537,-88,o),
(461,-88,cs),
(241,-88,o),
(72,79,o),
(72,309,cs),
(72,539,o),
(241,704,o),
(461,704,cs),
(681,704,o),
(854,550,o),
(854,320,cs),
(854,190,o),
(788,113,o),
(714,113,cs),
(661,113,o),
(627,143,o),
(627,195,cs),
(627,520,l),
(598,520,l),
(598,432,l),
(569,492,o),
(518,532,o),
(450,532,cs),
(335,532,o),
(269,431,o),
(269,309,cs),
(269,187,o),
(335,87,o),
(450,87,cs),
(519,87,o),
(571,128,o),
(599,189,c),
(602,128,o),
(641,87,o),
(714,87,cs),
(804,87,o),
(884,180,o),
(884,320,cs),
(884,570,o),
(701,732,o),
(461,732,cs),
(221,732,o),
(42,559,o),
(42,309,cs),
(42,59,o),
(221,-116,o),
(461,-116,cs)
);
},
{
closed = 1;
nodes = (
(354,115,o),
(299,204,o),
(299,309,cs),
(299,414,o),
(354,504,o),
(450,504,cs),
(546,504,o),
(600,414,o),
(600,309,cs),
(600,204,o),
(546,115,o),
(450,115,cs)
);
}
);
width = 926;
},
{
layerId = m002;
shapes = (
{
closed = 1;
nodes = (
(539,-116,o),
(608,-96,o),
(669,-61,c),
(669,24,l),
(606,-20,o),
(537,-44,o),
(463,-44,cs),
(265,-44,o),
(118,98,o),
(118,308,cs),
(118,518,o),
(265,660,o),
(463,660,cs),
(661,660,o),
(800,532,o),
(800,332,cs),
(800,225,o),
(766,148,o),
(701,148,cs),
(665,148,o),
(643,160,o),
(643,218,cs),
(643,520,l),
(568,520,l),
(568,468,l),
(539,508,o),
(496,532,o),
(442,532,cs),
(325,532,o),
(253,434,o),
(253,305,cs),
(253,175,o),
(325,78,o),
(442,78,cs),
(501,78,o),
(547,107,o),
(577,155,c),
(590,107,o),
(627,78,o),
(685,78,cs),
(809,78,o),
(880,179,o),
(880,332,cs),
(880,573,o),
(707,732,o),
(463,732,cs),
(219,732,o),
(38,560,o),
(38,308,cs),
(38,56,o),
(219,-116,o),
(463,-116,cs)
);
},
{
closed = 1;
nodes = (
(374,147,o),
(333,212,o),
(333,305,cs),
(333,397,o),
(374,463,o),
(450,463,cs),
(526,463,o),
(570,397,o),
(570,305,cs),
(570,212,o),
(526,147,o),
(450,147,cs)
);
}
);
width = 918;
},
{
layerId = m003;
shapes = (
{
closed = 1;
nodes = (
(568,-116,o),
(632,-95,o),
(691,-69,c),
(691,41,l),
(631,9,o),
(556,-6,o),
(469,-6,cs),
(285,-6,o),
(152,100,o),
(152,308,cs),
(152,516,o),
(285,616,o),
(469,616,cs),
(653,616,o),
(777,540,o),
(777,332,cs),
(777,271,o),
(772,208,o),
(727,208,cs),
(689,208,o),
(679,226,o),
(679,268,cs),
(679,520,l),
(524,520,l),
(524,485,l),
(498,515,o),
(461,532,o),
(412,532,cs),
(298,532,o),
(234,433,o),
(234,305,cs),
(234,177,o),
(298,78,o),
(412,78,cs),
(473,78,o),
(515,105,o),
(541,149,c),
(565,99,o),
(615,78,o),
(680,78,cs),
(824,78,o),
(905,189,o),
(905,332,cs),
(905,574,o),
(743,732,o),
(469,732,cs),
(195,732,o),
(24,550,o),
(24,308,cs),
(24,66,o),
(195,-116,o),
(469,-116,cs)
);
},
{
closed = 1;
nodes = (
(411,205,o),
(392,241,o),
(392,305,cs),
(392,369,o),
(411,405,o),
(459,405,cs),
(507,405,o),
(526,369,o),
(526,305,cs),
(526,241,o),
(507,205,o),
(459,205,cs)
);
}
);
width = 929;
}
);
},
{
color = 6;
glyphname = copyright.ss13;
lastChange = "2022-09-19 17:24:19 +0000";
layers = (
{
guides = (
{
pos = (0,626);
},
{
pos = (0,334);
}
);
layerId = m01;
shapes = (
{
closed = 1;
nodes = (
(364,334,o),
(407,377,o),
(416,436,c),
(390,436,l),
(382,390,o),
(349,358,o),
(302,358,cs),
(236,358,o),
(203,412,o),
(203,480,cs),
(203,548,o),
(236,602,o),
(302,602,cs),
(348,602,o),
(380,571,o),
(389,529,c),
(415,529,l),
(405,586,o),
(364,626,o),
(302,626,cs),
(221,626,o),
(177,562,o),
(177,480,cs),
(177,398,o),
(221,334,o),
(302,334,cs)
);
},
{
pos = (44,0);
ref = _part_copyright_ring_sm;
}
);
width = 594;
},
{
guides = (
{
pos = (0,626);
},
{
pos = (0,334);
}
);
layerId = m002;
shapes = (
{
closed = 1;
nodes = (
(369,334,o),
(415,377,o),
(424,440,c),
(368,440,l),
(362,404,o),
(337,382,o),
(300,382,cs),
(250,382,o),
(223,423,o),
(223,480,cs),
(223,537,o),
(250,578,o),
(300,578,cs),
(336,578,o),
(361,557,o),
(368,522,c),
(424,522,l),
(415,584,o),
(373,626,o),
(300,626,cs),
(218,626,o),
(167,564,o),
(167,480,cs),
(167,396,o),
(218,334,o),
(300,334,cs)
);
},
{
pos = (40,0);
ref = _part_copyright_ring_sm;
}
);
width = 590;
},
{
guides = (
{
pos = (0,599);
},
{
pos = (0,331);
}
);
layerId = m003;
shapes = (
{
closed = 1;
nodes = (
(388,331,o),
(428,377,o),
(436,442,c),
(345,442,l),
(342,417,o),
(328,404,o),
(304,404,cs),
(273,404,o),
(261,427,o),
(261,465,cs),
(261,503,o),
(273,526,o),
(304,526,cs),
(326,526,o),
(341,515,o),
(345,494,c),
(436,494,l),
(428,556,o),
(386,599,o),
(304,599,cs),
(216,599,o),
(169,541,o),
(169,465,cs),
(169,389,o),
(216,331,o),
(304,331,cs)
);
},
{
pos = (24,0);
ref = _part_copyright_ring_sm;
}
);
width = 604;
}
);
},
{
color = 6;
glyphname = registered.ss13;
lastChange = "2022-09-19 17:32:31 +0000";
layers = (
{
guides = (
{
pos = (0,621);
},
{
pos = (0,339);
}
);
layerId = m01;
shapes = (
{
closed = 1;
nodes = (
(223,339,l),
(223,465,l),
(313,465,ls),
(355,465,o),
(368,447,o),
(373,414,cs),
(385,339,l),
(409,339,l),
(394,428,ls),
(391,449,o),
(380,467,o),
(356,475,c),
(390,488,o),
(405,513,o),
(405,543,cs),
(405,590,o),
(374,621,o),
(312,621,cs),
(199,621,l),
(199,339,l)
);
},
{
pos = (44,0);
ref = _part_copyright_ring_sm;
},
{
closed = 1;
nodes = (
(223,599,l),
(312,599,ls),
(358,599,o),
(381,577,o),
(381,543,cs),
(381,509,o),
(358,486,o),
(312,486,cs),
(223,486,l)
);
}
);
width = 594;
},
{
guides = (
{
pos = (0,621);
},
{
pos = (0,339);
}
);
layerId = m002;
shapes = (
{
closed = 1;
nodes = (
(239,339,l),
(239,451,l),
(306,451,ls),
(335,451,o),
(350,437,o),
(354,407,cs),
(363,339,l),
(417,339,l),
(405,419,ls),
(402,442,o),
(392,460,o),
(369,470,c),
(396,486,o),
(412,510,o),
(412,538,cs),
(412,587,o),
(381,621,o),
(313,621,cs),
(187,621,l),
(187,339,l)
);
},
{
pos = (40,0);
ref = _part_copyright_ring_sm;
},
{
closed = 1;
nodes = (
(239,577,l),
(306,577,ls),
(341,577,o),
(358,562,o),
(358,535,cs),
(358,508,o),
(341,493,o),
(306,493,cs),
(239,493,l)
);
}
);
width = 590;
},
{
guides = (
{
pos = (0,591);
},
{
pos = (0,339);
}
);
layerId = m003;
shapes = (
{
closed = 1;
nodes = (
(270,339,l),
(270,423,l),
(299,423,ls),
(318,423,o),
(328,411,o),
(331,389,cs),
(338,339,l),
(419,339,l),
(411,395,ls),
(407,418,o),
(399,436,o),
(375,450,c),
(398,464,o),
(413,486,o),
(413,513,cs),
(413,556,o),
(384,591,o),
(319,591,cs),
(190,591,l),
(190,339,l)
);
},
{
pos = (24,0);
ref = _part_copyright_ring_sm;
},
{
closed = 1;
nodes = (
(270,529,l),
(301,529,ls),
(320,529,o),
(331,525,o),
(331,505,cs),
(331,485,o),
(320,480,o),
(301,480,cs),
(270,480,l)
);
}
);
width = 604;
}
);
},
{
color = 6;
glyphname = published.ss13;
lastChange = "2022-09-19 17:32:31 +0000";
layers = (
{
guides = (
{
pos = (0,621);
},
{
pos = (0,339);
}
);
layerId = m01;
shapes = (
{
closed = 1;
nodes = (
(237,339,l),
(237,453,l),
(324,453,ls),
(386,453,o),
(417,491,o),
(417,537,cs),
(417,584,o),
(386,621,o),
(324,621,cs),
(213,621,l),
(213,339,l)
);
},
{
pos = (44,0);
ref = _part_copyright_ring_sm;
},
{
closed = 1;
nodes = (
(237,599,l),
(324,599,ls),
(370,599,o),
(393,573,o),
(393,537,cs),
(393,502,o),
(370,475,o),
(324,475,cs),
(237,475,l)
);
}
);
width = 594;
},
{
guides = (
{
pos = (0,621);
},
{
pos = (0,339);
}
);
layerId = m002;
shapes = (
{
closed = 1;
nodes = (
(255,339,l),
(255,439,l),
(321,439,ls),
(389,439,o),
(425,478,o),
(425,530,cs),
(425,581,o),
(389,621,o),
(321,621,cs),
(201,621,l),
(201,339,l)
);
},
{
pos = (40,0);
ref = _part_copyright_ring_sm;
},
{
closed = 1;
nodes = (
(255,575,l),
(318,575,ls),
(354,575,o),
(371,558,o),
(371,530,cs),
(371,502,o),
(354,485,o),
(318,485,cs),
(255,485,l)
);
}
);
width = 590;
},
{
guides = (
{
pos = (0,591);
},
{
pos = (0,339);
}
);
layerId = m003;
shapes = (
{
closed = 1;
nodes = (
(285,339,l),
(285,412,l),
(322,412,ls),
(388,412,o),
(426,448,o),
(426,501,cs),
(426,555,o),
(388,591,o),
(322,591,cs),
(205,591,l),
(205,339,l)
);
},
{
pos = (24,0);
ref = _part_copyright_ring_sm;
},
{
closed = 1;
nodes = (
(285,525,l),
(316,525,ls),
(334,525,o),
(346,521,o),
(346,501,cs),
(346,482,o),
(334,479,o),
(316,479,cs),
(285,479,l)
);
}
);
width = 604;
}
);
},
{
color = 6;
glyphname = trademark.ss14;
lastChange = "2022-09-19 17:32:39 +0000";
layers = (
{
guides = (
{
pos = (0,238);
},
{
pos = (0,482);
}
);
layerId = m01;
shapes = (
{
closed = 1;
nodes = (
(423,238,l),
(423,435,l),
(506,238,l),
(532,238,l),
(615,434,l),
(615,238,l),
(641,238,l),
(641,482,l),
(607,482,l),
(519,267,l),
(431,482,l),
(397,482,l),
(397,238,l)
);
},
{
closed = 1;
nodes = (
(283,238,l),
(283,458,l),
(367,458,l),
(367,482,l),
(171,482,l),
(171,458,l),
(255,458,l),
(255,238,l)
);
},
{
pos = (44,0);
ref = _part_trademark_ring;
}
);
width = 836;
},
{
guides = (
{
pos = (0,238);
},
{
pos = (0,482);
}
);
layerId = m002;
shapes = (
{
closed = 1;
nodes = (
(442,238,l),
(442,418,l),
(499,238,l),
(547,238,l),
(604,418,l),
(604,238,l),
(658,238,l),
(658,482,l),
(574,482,l),
(523,314,l),
(472,482,l),
(388,482,l),
(388,238,l)
);
},
{
closed = 1;
nodes = (
(293,238,l),
(293,432,l),
(368,432,l),
(368,482,l),
(162,482,l),
(162,432,l),
(237,432,l),
(237,238,l)
);
},
{
pos = (40,0);
ref = _part_trademark_ring;
}
);
width = 832;
},
{
guides = (
{
angle = 180;
pos = (0,468);
},
{
angle = 180;
pos = (0,252);
}
);
layerId = m003;
shapes = (
{
closed = 1;
nodes = (
(450,252,l),
(450,394,l),
(485,252,l),
(540,252,l),
(575,394,l),
(575,252,l),
(641,252,l),
(641,468,l),
(535,468,l),
(513,366,l),
(490,468,l),
(384,468,l),
(384,252,l)
);
},
{
closed = 1;
nodes = (
(306,252,l),
(306,407,l),
(368,407,l),
(368,468,l),
(176,468,l),
(176,407,l),
(238,407,l),
(238,252,l)
);
},
{
pos = (24,0);
ref = _part_trademark_ring;
}
);
width = 824;
}
);
},
